<svg width="211" height="220" viewBox="0 0 211 220" fill="none" xmlns="http://www.w3.org/2000/svg">
<g clip-path="url(#clip0_285_754)">
<path d="M211 10.7141C194.46 10.7065 177.92 10.6951 161.38 10.6951C144.182 10.6951 126.984 10.7293 109.786 10.6925C105.856 10.6849 102.23 11.5817 98.8904 13.65C97.9851 13.6576 97.0899 13.6399 96.4526 14.4948C96.2175 14.8115 95.8053 14.8305 95.4436 14.5936C95.144 14.3973 94.8431 14.4328 94.5017 14.4923C93.3296 14.6975 93.0995 14.4264 93.3979 13.2599C93.4586 13.0205 93.5433 12.7875 93.5863 12.7241C93.2853 13.5234 93.231 14.7697 92.1373 15.1712C91.2307 15.5043 90.3709 16.2795 89.0003 15.6576C89.6275 16.4606 90.4114 16.5505 90.7806 17.2231C90.9159 16.7684 90.7907 16.2187 91.4153 16.2541C91.9324 16.2833 92.0854 16.6899 92.1246 17.118C92.203 17.9818 92.2498 18.8291 92.9022 19.527C93.2183 19.8639 92.8504 20.2262 92.6923 20.534C91.5885 22.6809 91.0183 24.9747 90.9007 27.3673C90.8526 28.3527 90.3203 28.5984 89.544 28.5135C86.9937 28.2374 84.4662 28.701 81.9248 28.7225C80.974 28.7301 80.7186 28.492 80.7451 27.5699C80.8564 23.7891 81.6188 20.1591 83.2828 16.7646C83.6722 15.9704 84.2348 15.2497 84.5623 14.4037C84.6875 14.0794 85.0061 13.9375 85.3437 13.8628C86.3919 13.6298 86.8129 12.8989 86.866 11.8958C86.8787 11.6501 86.8053 11.2562 86.9912 11.2004C88.0836 10.8711 88.1304 9.79704 88.5982 9.03582C89.3177 7.86548 90.266 8.66977 91.1485 8.72677C90.4468 7.5577 90.5985 7.11439 91.83 6.60396C92.4344 6.35317 92.8314 5.91746 92.9667 5.2639C97.0292 2.32286 101.609 0.571162 106.56 0.362174C122.21 -0.300256 137.873 0.159518 153.53 0.0987217C172.686 0.0252592 191.843 0.0797228 210.999 0.0784562V10.7141H211Z" fill="#84B8D1"/>
<path d="M47.5398 210.072C41.6136 202.455 38.6246 193.599 36.6648 184.298C35.3157 177.901 34.5456 171.407 33.3622 164.983C32.0535 157.878 29.5399 151.143 27.2261 144.337C24.1637 135.327 22.1938 126.097 22.6199 116.506C23.0068 107.796 25.2941 99.7241 30.9775 92.8768C34.1499 89.0555 38.1757 86.5603 42.9222 85.1937C43.629 84.9897 44.3421 84.8061 45.0514 84.6136C46.4676 83.5534 48.172 83.6915 49.7777 83.5585C57.1377 82.948 64.0666 84.687 70.7641 87.5837C75.2729 89.533 79.9549 90.7566 84.886 90.6831C89.2583 90.6185 93.4232 89.4621 97.4591 87.8383C102.285 85.8966 107.186 84.1931 112.395 83.6852C116.213 83.314 120.039 83.3736 123.814 84.2007C124.297 84.3058 124.783 84.4261 125.108 84.8529C135.038 87.4545 140.957 94.2245 144.249 103.581C146.798 110.823 147.003 118.314 146.189 125.884C145.245 134.661 142.612 142.978 139.563 151.198C136.936 158.285 135.592 165.676 134.468 173.118C133.129 181.982 131.638 190.809 128.073 199.129C126.445 202.926 124.504 206.53 121.976 209.804C122.031 210.122 121.877 210.37 121.678 210.579C120.094 212.242 118.53 213.9 116.402 214.937C111.518 217.32 106.54 216.149 103.328 211.752C102.603 210.759 101.914 209.735 101.364 208.628C98.9119 203.594 97.6298 198.174 96.2036 192.804C94.9973 188.26 93.69 183.758 91.4507 179.587C90.9425 178.639 90.3874 177.731 89.7223 176.889C87.2138 173.706 82.9616 173.454 80.1332 176.325C78.487 177.997 77.4185 180.031 76.5031 182.162C74.4776 186.873 73.3156 191.854 71.9791 196.778C70.8779 200.835 69.7437 204.878 67.8029 208.637C66.852 210.521 65.7495 212.307 64.1589 213.716C60.5895 216.879 55.7697 216.978 51.5352 214.096C50.415 213.334 49.3567 212.483 48.3869 211.528C47.9709 211.117 47.6144 210.679 47.5372 210.074L47.5398 210.072Z" fill="#4A93B5"/>
<path d="M125.109 84.8518C115.752 82.577 106.864 84.3642 98.1874 87.9714C94.0617 89.6877 89.8083 90.8909 85.3222 91.0543C80.2179 91.2392 75.3816 89.998 70.7337 87.9955C65.0212 85.5345 59.1279 83.8816 52.8692 83.7942C50.2354 83.7575 47.6308 84.0994 45.0502 84.6124C44.2549 84.4262 43.9641 84.0766 44.5179 83.3002C46.441 80.6024 48.3275 77.8792 50.2468 75.1788C52.4987 72.0098 54.7658 68.8509 57.0353 65.6945C57.488 65.0638 57.9811 64.4621 58.4565 63.8478C58.9332 63.8846 59.1481 64.2595 59.3795 64.5913C60.611 66.3633 62.3736 67.0979 64.451 67.1689C66.0112 67.2221 67.574 67.1828 69.1355 67.1828C80.5201 67.1828 91.9059 67.141 103.289 67.2132C106.171 67.2309 108.569 66.585 110.15 63.9922C110.277 63.7833 110.458 63.6009 110.747 63.6313C111.952 64.6597 112.658 66.072 113.562 67.3284C117.323 72.5506 121.065 77.7855 124.791 83.0317C125.161 83.551 125.757 84.1172 125.106 84.8518H125.109Z" fill="#C5E2EE"/>
<path d="M58.6638 60.9219C57.4816 60.8345 56.2956 60.7851 55.1197 60.6509C52.0207 60.2988 50.4225 57.4223 51.3556 54.7612C53.1309 49.6936 54.8087 44.5917 56.5169 39.5C56.7495 38.8072 56.9228 38.0953 57.1238 37.3911C57.8635 37.6761 58.6259 37.7876 59.4187 37.7268C62.6593 37.4747 65.9012 37.5963 69.1456 37.5988C71.4708 37.6001 73.8023 37.8281 76.1503 37.5836C78.9231 37.2961 81.7301 37.5393 84.5218 37.6672C88.1355 37.8319 91.7491 37.7052 95.364 37.6128C98.8929 37.5228 102.427 37.3316 105.954 37.6432C106.735 37.7128 107.513 37.7394 108.294 37.7673C109.37 37.8053 110.07 38.2993 110.357 39.3645C111.582 43.9001 113.045 48.3624 114.694 52.7587C116.037 56.3406 113.38 60.9219 108.812 61.0802C108.277 61.0992 107.742 61.0904 107.209 61.0904C92.0348 61.0904 76.8622 61.0992 61.6882 61.0714C60.6856 61.0701 59.645 61.4526 58.6651 60.9181L58.6638 60.9219Z" fill="#B0D5E4"/>
<path d="M58.6638 60.9219C59.7107 60.6432 60.7804 60.6799 61.8475 60.6799C77.3565 60.6799 92.8655 60.6495 108.375 60.7015C111.372 60.7116 114.01 58.8611 114.653 55.4147C114.849 54.3634 114.475 53.3717 114.128 52.4103C112.577 48.1217 111.061 43.8241 109.98 39.3872C109.777 38.55 109.328 38.1523 108.428 38.1447C105.231 38.1156 102.042 37.98 98.8372 38.0294C94.2551 38.0991 89.6641 38.3461 85.0807 38.1269C82.3838 37.9978 79.6716 37.7571 76.9949 38.0003C74.5344 38.2232 72.0916 37.9889 69.6438 38.0535C66.9557 38.1231 64.2436 37.9281 61.5403 38.0193C60.3973 38.0586 59.2543 38.0928 58.1113 38.1523C57.5448 38.1814 57.1276 38.07 57.12 37.3923C57.3969 31.7813 61.7654 28.5578 66.4727 28.5236C70.7059 28.4932 74.9403 28.478 79.1735 28.5363C80.2533 28.5515 80.6086 28.326 80.644 27.1468C80.9234 17.9729 85.2969 10.9952 92.4142 5.53872C92.5735 5.41713 92.7796 5.35506 92.9629 5.26514C93.1349 5.9567 92.5001 7.21189 91.9994 7.04597C91.3407 6.82685 91.2724 7.17516 91.036 7.56147C90.6908 8.12258 91.2117 8.15677 91.4532 8.37209C91.7074 8.59882 91.8477 8.8724 91.8414 9.30558C91.1359 9.12952 90.4316 9.08139 89.8689 8.77487C89.3973 8.51775 89.1976 8.68621 88.9371 8.95853C88.6678 9.24225 88.2821 9.44997 88.5274 9.98954C88.8536 10.7052 88.8536 11.2473 87.7764 11.018C87.3402 10.9256 87.0784 11.1941 87.0987 11.664C87.1695 13.3181 86.847 13.7526 85.2413 14.201C85.0554 14.2529 84.8063 14.3492 84.7342 14.4961C83.1474 17.7246 81.3204 20.9013 81.1952 24.6035C81.1598 25.6586 80.7754 26.6465 80.8715 27.7003C80.9196 28.2234 80.9664 28.4324 81.6529 28.421C84.3018 28.3805 86.9394 27.7991 89.6009 28.2323C90.1142 28.3159 90.6883 28.1639 90.7161 27.5458C90.7945 25.7966 91.0878 24.1108 91.6075 22.4313C91.8414 21.6764 92.4015 21.1343 92.5861 20.3908C92.6468 20.1426 93.0236 19.855 92.643 19.6499C91.6328 19.1027 91.916 18.1223 91.8237 17.2889C91.7807 16.9001 91.8148 16.401 91.3609 16.4872C90.7894 16.5948 91.2724 16.9583 91.3672 17.2079C91.4798 17.5017 91.3432 17.6892 91.0941 17.7981C90.8185 17.9184 90.6124 17.812 90.5214 17.527C90.3355 16.9457 89.9195 16.7253 89.3417 16.5999C88.8397 16.4922 88.3694 16.13 88.6564 15.5372C88.9383 14.9533 89.3847 15.1838 89.7627 15.5296C89.8512 15.6107 89.9562 15.7082 90.0649 15.7247C90.1623 15.7386 90.2988 15.6778 90.3772 15.6056C91.3015 14.7709 93.0375 14.9369 93.2335 13.1839C93.3422 12.2061 93.5331 12.0845 94.709 11.5677C94.2968 12.1909 94.0048 12.6443 93.7013 13.0889C93.4484 13.4575 93.3245 13.8881 93.609 14.2314C93.9276 14.6151 94.2779 14.2288 94.5965 14.0933C94.8152 13.9996 95.1339 13.6525 95.2173 13.8058C96.0581 15.3688 96.2946 13.8679 96.8104 13.5474C97.4894 13.1244 98.2114 13.2472 98.8866 13.6513C94.4599 16.5606 92.0778 20.7771 91.2711 25.9106C90.864 28.4996 90.9829 28.5173 93.6406 28.516C96.8079 28.5148 99.9752 28.5084 103.144 28.5186C107.955 28.535 111.864 31.7446 112.676 36.5222C113.419 40.8932 114.952 45.0058 116.468 49.1311C117.05 50.7131 117.747 52.2533 118.31 53.8416C119.573 57.4083 117.398 60.5634 113.614 60.7167C111.724 60.7935 110.768 61.765 110.747 63.6311C109.475 66.4024 107.301 67.612 104.277 67.6044C91.1687 67.5715 78.0608 67.574 64.9541 67.5994C62.0233 67.6057 59.7752 66.5696 58.4552 63.8464C58.3869 62.861 58.3174 61.8756 58.6638 60.9206V60.9219Z" fill="#76B1CE"/>
<path d="M101.672 208.57C102.174 209.368 102.656 210.18 103.179 210.963C107.042 216.732 113.615 217.495 119.014 212.77C120.064 211.852 120.992 210.796 121.976 209.803C126.598 210.355 131.245 210.772 135.736 212.104C136.242 212.254 136.706 212.549 137.184 212.787C137.658 213.024 138.185 213.203 138.169 213.899C138.152 214.58 137.713 214.981 137.195 215.212C136.337 215.597 135.445 215.944 134.533 216.164C130.317 217.176 126.044 217.834 121.725 218.248C117.82 218.623 113.918 219.001 109.999 219.249C106.564 219.466 103.127 219.573 99.6932 219.744C90.6958 220.19 81.6985 219.923 72.7036 219.908C67.6321 219.899 62.5569 219.529 57.4917 219.179C53.1738 218.882 48.8648 218.431 44.5621 217.957C40.7044 217.533 36.8607 216.97 33.1345 215.823C32.5896 215.654 32.0687 215.397 31.5515 215.152C31.0685 214.922 30.5362 214.685 30.5375 214.038C30.5375 213.368 31.0559 213.043 31.5616 212.761C32.9069 212.012 34.4065 211.705 35.8808 211.373C39.392 210.584 42.9879 210.354 46.5421 209.841C46.9505 209.782 47.1414 210.317 47.541 210.072C48.8648 211.477 50.2379 212.826 51.8563 213.9C56.9341 217.269 62.3192 216.261 65.8316 211.259C66.4423 210.389 66.9746 209.465 67.5424 208.565C67.9621 208.268 68.4413 208.143 68.942 208.16C71.5366 208.249 74.1096 207.86 76.7041 207.874C84.2728 207.917 91.8427 207.885 99.4113 207.894C100.226 207.894 101.085 207.793 101.675 208.57H101.672Z" fill="#C3DFEA"/>
<path d="M174.941 68.1796C174.852 68.7217 174.531 68.9953 174.044 69.1042C173.285 69.2739 172.522 69.431 171.766 69.6184C167.174 70.7609 164.507 73.7247 163.604 78.3301C163.335 79.7005 163.11 81.0799 163.078 82.4832C163.073 82.7277 163.027 82.9759 162.967 83.2128C162.856 83.6523 162.765 84.1742 162.157 84.1121C161.607 84.0551 161.468 83.5586 161.406 83.1089C161.222 81.7663 161.125 80.4098 160.907 79.0736C159.955 73.2434 157.226 70.4379 151.513 69.3347C150.735 69.184 149.656 69.2423 149.581 68.1847C149.498 67.0067 150.667 67.1334 151.399 66.9675C152.927 66.6204 154.434 66.2417 155.831 65.5134C159.168 63.7718 160.409 60.7421 160.876 57.2438C161.049 55.9405 161.202 54.6346 161.351 53.3288C161.408 52.8335 161.591 52.3813 162.119 52.3725C162.661 52.3623 162.828 52.8323 162.894 53.3174C163.11 54.9031 163.273 56.5003 163.569 58.0722C164.503 63.0334 167.353 65.863 172.311 66.8509C172.953 66.9789 173.587 67.1536 174.224 67.3094C174.692 67.4247 174.871 67.7705 174.942 68.1809L174.941 68.1796Z" fill="#77B2CF"/>
<path d="M9.03789 84.0538C8.61685 83.8942 8.60926 83.499 8.56248 83.1469C8.43604 82.2122 8.36524 81.2673 8.21098 80.3376C7.57246 76.491 5.26116 74.2326 1.53627 73.3067C0.954651 73.1624 -0.0366299 73.327 0.0013018 72.4746C0.0316471 71.7932 0.954651 71.8907 1.53627 71.759C6.02612 70.7432 8.16673 68.0643 8.53719 63.022C8.5726 62.5318 8.65605 62.0442 8.73317 61.5578C8.77616 61.283 8.77743 60.927 9.18456 60.9511C9.56514 60.9739 9.58284 61.3298 9.62836 61.5996C9.83951 62.8535 9.97986 64.1214 10.2365 65.3652C10.9345 68.7407 13.0801 70.7204 16.3473 71.5766C16.8227 71.7007 17.3019 71.8185 17.7748 71.9528C18.0934 72.044 18.4272 72.1389 18.4095 72.5785C18.3931 72.999 18.0606 73.1244 17.7495 73.2067C17.1553 73.3637 16.542 73.4461 15.9478 73.5993C12.5301 74.4859 10.2075 77.2623 9.78135 80.9519C9.69158 81.7271 9.60181 82.501 9.51204 83.2761C9.47411 83.6004 9.46652 83.9436 9.03789 84.0538Z" fill="#75B1CE"/>
<path d="M175.381 97.0694C175.86 97.1352 175.911 97.4975 175.95 97.88C176.043 98.7793 176.118 99.6811 176.252 100.574C176.759 103.955 178.787 105.886 182.047 106.646C182.647 106.787 183.599 106.646 183.636 107.471C183.678 108.383 182.659 108.188 182.097 108.334C178.485 109.279 176.507 111.576 176.183 115.299C176.129 115.913 176.019 116.522 175.936 117.132C175.889 117.472 175.817 117.834 175.387 117.814C174.94 117.792 174.97 117.393 174.927 117.07C174.794 116.094 174.682 115.113 174.512 114.143C173.957 110.956 172.092 109.016 168.934 108.321C168.534 108.233 168.142 108.113 167.752 107.99C167.508 107.914 167.304 107.776 167.286 107.482C167.265 107.132 167.477 106.956 167.769 106.854C167.961 106.787 168.161 106.734 168.36 106.69C172.684 105.754 174.4 103.753 174.706 99.3151C174.745 98.7426 174.854 98.1739 174.936 97.6052C174.974 97.3417 175.108 97.1517 175.381 97.0681V97.0694Z" fill="#77B2CF"/>
<path d="M97.6247 92.7425C101.341 91.0985 105.099 89.5824 109.108 88.7882C114.508 87.7205 119.905 87.647 125.2 89.2493C132.639 91.5 137.334 96.6905 140.042 103.802C142.414 110.029 142.896 116.514 142.461 123.113C141.844 132.485 139.092 141.322 135.847 150.041C133.197 157.16 131.801 164.567 130.711 172.058C129.444 180.763 127.932 189.423 124.536 197.615C122.921 201.509 120.965 205.211 118.07 208.331C116.775 209.725 115.336 210.923 113.493 211.575C111.232 212.372 109.291 211.866 107.611 210.242C105.221 207.932 104.157 204.889 103.115 201.851C101.356 196.721 100.357 191.372 98.683 186.219C97.2833 181.908 95.6801 177.697 92.8327 174.074C88.5629 168.641 80.8539 168.514 76.5233 173.882C73.394 177.76 71.7149 182.362 70.252 187.039C68.6361 192.207 67.6195 197.551 65.7824 202.654C64.7936 205.402 63.7239 208.128 61.5681 210.237C59.7158 212.049 57.5904 212.417 55.25 211.333C52.6188 210.115 50.7424 208.055 49.1316 205.733C45.1109 199.94 42.864 193.393 41.1495 186.629C39.5615 180.366 38.7662 173.957 37.7534 167.592C36.6382 160.586 34.7682 153.801 32.29 147.167C29.6221 140.026 27.6686 132.697 26.9125 125.095C26.0502 116.439 26.7014 107.964 30.8764 100.128C34.509 93.31 40.267 89.4507 47.9279 88.3627C55.4599 87.2937 62.524 88.8845 69.3808 91.8711C74.9176 94.2827 80.6946 95.4911 86.7485 95.2504C86.9052 95.2048 87.0785 95.1275 87.2138 95.2605C87.4338 95.4759 87.2454 95.6456 87.0898 95.7532C86.4804 96.175 85.833 96.536 85.1781 96.8805C81.8793 98.6158 78.4187 99.8899 74.7519 100.588C74.2373 100.685 73.6886 100.713 73.1285 101.145C73.7151 101.599 74.3511 101.595 74.9732 101.614C78.9598 101.732 82.7239 100.752 86.3464 99.1946C89.2684 97.9381 91.9122 96.175 94.5131 94.3613C95.4892 93.6811 96.5981 93.2998 97.626 92.7425H97.6247Z" fill="#FEFEFE"/>
<path d="M101.672 208.57C101.175 208.331 100.645 208.327 100.108 208.327C91.5266 208.333 82.9452 208.276 74.3651 208.371C72.0943 208.397 69.8183 208.62 67.5399 208.564C70.247 202.885 71.5468 196.754 73.2335 190.747C74.5573 186.029 75.962 181.339 78.8347 177.266C81.9704 172.821 87.2947 172.794 90.4317 177.249C93.0515 180.967 94.4259 185.243 95.6827 189.554C97.0963 194.403 98.1204 199.366 99.8653 204.12C100.417 205.622 101.068 207.087 101.672 208.569V208.57Z" fill="#E5F3F8"/>
<path d="M97.6248 92.7427C95.2831 94.2803 92.9554 95.8395 90.5961 97.3506C86.7055 99.8407 82.4306 101.318 77.8712 101.906C76.3439 102.104 74.7659 102.151 73.2284 101.742C72.8478 101.641 72.4154 101.511 72.4154 101.122C72.4154 100.703 72.9186 100.612 73.2562 100.532C75.0023 100.116 76.7712 99.8179 78.4971 99.2884C81.4545 98.379 84.2109 97.0491 86.8914 95.5393C87.2998 95.3101 86.8105 95.3443 86.7498 95.2505C90.4494 94.7401 94.0984 94.0055 97.6261 92.7427H97.6248Z" fill="#C7E4EF"/>
<path d="M84.6242 151.97C78.6159 151.662 73.5469 149.532 70.0699 144.35C69.774 143.908 69.5072 143.437 69.2948 142.951C68.8093 141.844 69.1304 140.832 70.0901 140.297C71.0725 139.75 72.0714 139.992 72.7339 141.054C73.6531 142.53 74.6596 143.902 76.0327 145.006C82.055 149.848 92.2852 148.73 96.3489 141.31C97.0519 140.027 98.1557 139.655 99.2077 140.254C100.196 140.818 100.485 141.935 99.8374 143.17C97.2353 148.137 92.9679 150.743 87.5804 151.707C86.6119 151.88 85.6332 152.04 84.6242 151.971V151.97Z" fill="#4A92B5"/>
<path d="M56.0959 129.074C56.2071 126.12 59.0571 122.828 62.5139 121.65C68.2467 119.696 73.4559 123.122 74.6647 129.046C74.867 130.04 74.2487 130.957 73.2789 131.217C72.2522 131.49 71.5088 131.085 71.0372 130.173C70.869 129.849 70.8108 129.47 70.6844 129.123C69.664 126.321 68.0191 125.15 65.245 125.242C62.8009 125.323 60.6502 127.022 59.9523 129.506C59.7221 130.325 59.3593 130.961 58.5159 131.179C57.0909 131.547 56.0377 130.614 56.0946 129.074H56.0959Z" fill="#4A92B5"/>
<path d="M103.968 121.188C108.5 121.207 112.144 124.11 113.108 128.472C113.398 129.783 112.877 130.869 111.817 131.16C110.616 131.49 109.688 130.857 109.317 129.45C108.667 126.985 106.778 125.389 104.34 125.245C101.649 125.085 99.8766 126.277 98.8689 128.893C98.6641 129.423 98.5983 130.007 98.2329 130.481C97.5893 131.314 96.7523 131.53 95.8293 131.129C94.9973 130.77 94.5548 130.045 94.7508 129.126C95.8407 124.026 99.4113 121.089 103.967 121.187L103.968 121.188Z" fill="#4A92B5"/>
</g>
<defs>
<clipPath id="clip0_285_754">
<rect width="211" height="220" fill="white"/>
</clipPath>
</defs>
</svg>
