<svg width="126" height="208" viewBox="0 0 126 208" fill="none" xmlns="http://www.w3.org/2000/svg">
<g clip-path="url(#clip0_285_770)">
<path d="M98.8378 130.081C98.9304 137.604 96.8565 144.229 94.2042 150.716C91.902 156.346 90.7629 162.232 90.149 168.251C89.0569 178.971 86.8574 189.388 81.431 198.878C79.6185 202.047 77.4114 204.897 74.1566 206.761C69.7424 209.288 65.8445 207.847 64.1512 203.064C63.1022 200.102 62.8738 196.981 62.4223 193.906C61.4748 187.459 60.5907 181.001 57.9485 174.954C57.1545 173.136 56.1905 171.425 54.7368 170.034C52.1683 167.576 48.9211 167.557 46.3842 170.052C44.0553 172.342 42.9201 175.31 41.932 178.317C40.2615 183.397 39.489 188.672 38.6924 193.938C38.2332 196.971 38.0036 200.051 36.9546 202.972C36.4485 204.38 35.775 205.704 34.5586 206.633C32.2348 208.407 29.7296 208.349 27.2435 207.073C23.7731 205.293 21.5165 202.298 19.6507 199.016C15.5257 191.761 13.1842 183.91 11.9018 175.7C10.9593 169.671 10.6955 163.548 9.24188 157.591C8.30577 153.751 6.67329 150.164 5.3871 146.453C3.46669 140.916 2.10312 135.281 2.29719 129.374C2.51283 122.855 4.12881 116.831 8.61527 111.815C11.9944 108.037 16.2665 105.969 21.1766 105.047C27.6177 103.837 33.8597 104.942 40.061 106.618C43.2702 107.486 46.4578 108.433 49.8343 108.507C53.679 108.593 57.3257 107.646 60.975 106.63C65.9092 105.257 70.9107 104.334 76.0668 104.556C87.8785 105.066 96.5216 112.82 98.3507 123.994C98.7033 126.148 98.9012 128.307 98.8378 130.081Z" fill="#6998BD"/>
<path d="M50.1274 72.7957C42.91 72.8134 35.7027 72.5087 28.5107 71.9814C23.6336 71.6236 18.759 71.1444 13.9275 70.3302C10.4685 69.7473 7.96841 67.9241 6.46531 64.7405C4.28487 60.1231 2.87057 55.2491 1.53871 50.3434C0.569627 46.7666 -0.119133 43.186 0.0178581 39.4334C0.371751 29.7131 5.9275 20.2128 16.7853 16.4653C22.6404 14.4448 28.5069 14.7685 34.4445 15.8634C38.2612 16.5677 41.8585 18.0002 45.5674 19.0597C50.3862 20.4378 55.1364 20.3746 59.8626 18.6425C63.6413 17.2593 67.425 15.8698 71.4587 15.3931C73.1343 15.1946 74.8137 15.0012 76.507 15.053C76.6719 15.0581 76.8482 15.0429 76.9979 15.0972C80.462 16.3489 83.5545 15.1478 86.3577 13.3474C89.6391 11.2385 91.5722 8.05864 92.3434 4.22008C92.521 3.33883 92.6047 2.43736 92.8039 1.56116C93.0462 0.49785 93.7971 -0.0774278 94.8626 0.00601904C95.8786 0.0856728 96.4938 0.753247 96.5914 1.78748C97.0151 6.25189 98.9266 9.91722 102.374 12.8202C104.364 14.4954 106.687 15.3109 109.192 15.7547C109.556 15.8192 109.923 15.8862 110.275 15.9924C111.134 16.2529 111.551 16.9192 111.596 17.7423C111.639 18.5464 111.177 19.1621 110.434 19.4719C109.907 19.6919 109.34 19.8272 108.779 19.946C104.304 20.893 101.126 23.5582 98.7782 27.3614C98.3495 28.0555 98.2823 28.6611 98.5791 29.4337C100.366 34.0725 100.942 38.9125 100.506 43.8244C100.194 47.3381 99.023 50.7012 98.0679 54.0897C97.1559 57.3251 95.9877 60.4708 94.6812 63.5735C92.8825 67.8445 89.7558 70.0457 85.1235 70.6159C73.497 72.0472 61.8325 72.692 50.1287 72.7944L50.1274 72.7957Z" fill="#6A98BD"/>
<path d="M125.999 41.4161C126.046 42.5932 125.192 43.372 123.586 43.6464C120.782 44.1243 118.806 45.6782 117.523 48.1828C116.956 49.2917 116.663 50.4764 116.404 51.6775C116.379 51.7976 116.387 51.924 116.362 52.0441C116.039 53.708 115.324 54.5046 114.202 54.4515C113.067 54.3984 112.421 53.5715 112.168 51.9164C112.057 51.1907 111.924 50.4637 111.725 49.7582C110.748 46.3129 108.559 44.2052 104.936 43.6615C103.432 43.4352 102.676 42.7487 102.627 41.698C102.577 40.6625 103.31 39.8521 104.768 39.5777C109.477 38.6939 111.523 35.925 112.173 31.2988C112.212 31.0155 112.291 30.7374 112.353 30.4567C112.572 29.4591 113.15 28.8345 114.212 28.827C115.36 28.8194 115.943 29.5464 116.106 30.5705C116.308 31.8298 116.596 33.0575 117.022 34.2561C118.063 37.183 120.132 38.8987 123.193 39.4424C123.637 39.5208 124.087 39.5916 124.52 39.7155C125.405 39.9684 125.876 40.5892 125.998 41.4148L125.999 41.4161Z" fill="#6A98BD"/>
<path d="M18.6207 93.0786C18.6207 88.6838 18.6181 84.6176 18.6207 80.5502C18.6219 78.9698 19.3031 78.1379 20.5893 78.124C21.8882 78.11 22.5972 78.9395 22.5985 80.5072C22.6036 84.5683 22.5998 88.6294 22.5998 92.7423C23.5042 91.8914 24.3515 91.086 25.2077 90.2907C26.2402 89.3324 27.3462 89.2578 28.1517 90.0809C28.9445 90.8913 28.9356 91.9432 28.002 92.932C26.0245 95.0245 24.0179 97.0904 21.9846 99.1285C21.0231 100.091 19.9119 100.07 18.9505 99.0666C16.9603 96.988 15.0031 94.8753 13.0675 92.7448C12.281 91.88 12.3571 90.8622 13.1512 90.1137C13.9287 89.3817 14.9714 89.3374 15.8162 90.1314C16.732 90.9925 17.5552 91.9521 18.6181 93.0786H18.6207Z" fill="#6997BD"/>
<path d="M82.7109 92.9103C83.6216 91.9494 84.389 91.1124 85.1881 90.3058C86.1344 89.3499 87.1517 89.2614 88.0383 90.0175C88.8806 90.7357 88.9554 91.8559 88.0662 92.8547C86.1813 94.9737 84.2432 97.0473 82.2923 99.1056C81.4995 99.9414 80.2603 99.9717 79.4104 99.1322C77.3315 97.0814 75.2842 94.9978 73.2813 92.8762C72.363 91.9039 72.4366 90.8469 73.3054 90.0567C74.1261 89.3108 75.0711 89.3828 76.0465 90.2894C76.9167 91.0985 77.7703 91.9242 78.6481 92.7586C78.8904 92.507 78.7255 92.1239 78.728 91.7889C78.7432 88.0097 78.7331 84.2319 78.742 80.4527C78.7458 78.8887 79.4523 78.0998 80.793 78.1137C82.0374 78.1276 82.7045 78.9216 82.7084 80.4565C82.7172 84.5454 82.7122 88.6343 82.7122 92.9065L82.7109 92.9103Z" fill="#6997BD"/>
<path d="M12.5106 154.345C10.6625 149.055 8.2461 143.952 7.14129 138.419C5.83988 131.908 5.72952 125.447 8.51247 119.238C11.1343 113.39 15.707 110.061 22.0479 109.011C27.9627 108.031 33.6846 108.899 39.3304 110.581C42.8465 111.628 46.3778 112.581 50.0677 112.606C53.4531 112.629 56.7688 112.11 60.0198 111.09C65.0174 109.524 70.1064 108.469 75.3958 108.526C85.9111 108.64 93.5788 115.787 94.6405 126.209C95.4282 133.947 93.7741 141.191 90.9836 148.293C90.4445 149.663 89.908 151.036 89.3714 152.407C85.8375 156.818 80.9959 158.538 75.5772 159.191C71.9152 159.632 68.3471 159.139 64.7879 158.438C61.7157 157.832 58.6347 157.272 55.5435 156.783C50.9251 156.052 46.3486 156.523 41.7911 157.406C38.5579 158.032 35.3792 158.933 32.0863 159.263C25.5793 159.913 19.5643 158.53 14.072 154.973C13.5837 154.657 13.1346 154.302 12.5106 154.348V154.345Z" fill="#FEFEFE"/>
<path d="M12.5106 154.345C12.7148 153.861 12.9533 153.671 13.4696 154.062C18.6169 157.953 24.529 159.3 30.8535 159.044C33.8 158.926 36.6756 158.173 39.5448 157.512C44.1238 156.456 48.7574 155.755 53.4481 156.159C57.0669 156.471 60.6414 157.243 64.2057 157.979C67.0559 158.568 69.9403 159.147 72.8412 159.027C77.8515 158.819 82.702 157.918 86.7699 154.61C87.654 153.892 88.2184 152.802 89.3702 152.403C86.9576 158.857 86.553 165.677 85.6765 172.414C84.5171 181.315 82.2035 189.864 77.5674 197.654C76.1924 199.965 74.551 202.075 72.0865 203.371C69.8464 204.549 68.512 204.02 67.7979 201.58C66.9087 198.54 66.6157 195.386 66.1477 192.269C65.1672 185.735 64.1702 179.206 61.4227 173.113C60.1746 170.345 58.4635 167.904 55.9774 166.065C52.1987 163.271 47.8835 163.482 44.3521 166.596C40.9363 169.608 39.2391 173.595 37.958 177.788C36.1796 183.609 35.3513 189.625 34.4545 195.626C34.1577 197.61 33.9002 199.606 33.3168 201.534C32.5963 203.919 31.1059 204.558 28.8772 203.417C26.915 202.411 25.4956 200.803 24.3007 199.014C20.5994 193.475 18.3936 187.32 16.8943 180.882C15.5891 175.277 15.1109 169.554 14.412 163.86C14.0175 160.644 13.3605 157.473 12.5106 154.344V154.345Z" fill="#D1ECF6"/>
<path d="M50.4862 68.7867C42.8477 68.7842 35.6836 68.5363 28.5372 67.9902C23.9886 67.6425 19.4565 67.0684 14.9231 66.5349C12.4763 66.2466 10.7348 64.9102 9.76947 62.6407C7.17679 56.539 5.03694 50.2564 4.17948 43.6945C3.01886 34.815 6.44744 26.1403 14.6529 21.7821C19.3728 19.2749 24.3907 18.467 29.7169 19.1131C34.1234 19.6479 38.3702 20.7593 42.4888 22.3106C48.7878 24.6838 55.0019 24.6648 61.2946 22.3245C65.1455 20.892 69.0308 19.4583 73.1798 19.1586C82.5599 18.4809 90.3899 22.4042 92.3687 32.6049C92.4778 33.1688 92.5387 33.7441 92.6833 34.2966C93.0181 35.5749 94.2498 36.3221 95.2937 35.7607C96.2247 35.2613 96.2387 35.7253 96.3351 36.4157C96.897 40.4527 96.656 44.4291 95.5816 48.3675C94.3614 52.8395 93.046 57.271 91.354 61.6014C90.0158 65.0278 87.5601 66.4843 84.0287 66.8396C75.3438 67.7145 66.6575 68.4744 57.9231 68.6514C55.2873 68.7045 52.6502 68.7007 50.4837 68.7892L50.4862 68.7867Z" fill="#D1ECF6"/>
<path d="M102.823 17.8804C99.5696 19.9716 97.0124 22.5269 95.2163 25.8015C94.9398 26.3047 94.5758 26.6562 94.1927 25.885C92.5425 22.5496 90.0424 20.0121 86.8814 18.0852C86.8193 18.0473 86.7914 17.9525 86.7102 17.826C90.1274 15.7879 92.8558 13.0809 94.676 9.24365C96.6154 12.957 99.2842 15.7234 102.823 17.8804Z" fill="#D1ECF6"/>
<path d="M114.311 45.6341C113.271 44.0069 112.141 42.582 110.467 41.6008C111.301 41.0824 112.054 40.6071 112.689 39.9761C113.322 39.3478 113.814 38.6107 114.32 37.7673C115.249 39.4059 116.477 40.6349 118.188 41.5616C116.546 42.625 115.298 43.9424 114.311 45.6328V45.6341Z" fill="#D2ECF6"/>
<path d="M8.48842 42.8828C8.43641 36.3765 10.9517 31.0637 16.0876 27.0051C17.0795 26.2212 17.9408 25.2452 19.4008 25.383C20.465 25.4829 21.1652 26.0594 21.5723 26.9584C21.9998 27.9003 21.7588 28.7879 21.0345 29.5262C19.8257 30.759 18.1793 31.4367 17.0212 32.7617C15.0513 35.0173 13.8323 37.551 13.3846 40.5324C13.1766 41.9143 13.2768 43.2153 13.5279 44.5315C13.9084 46.5279 13.2641 47.8567 11.7242 48.0755C9.88877 48.3359 8.58228 47.1411 8.49223 45.0929C8.46051 44.357 8.48715 43.6199 8.48715 42.8828H8.48842Z" fill="#FEFEFE"/>
</g>
<defs>
<clipPath id="clip0_285_770">
<rect width="126" height="208" fill="white"/>
</clipPath>
</defs>
</svg>
