<svg width="155" height="172" viewBox="0 0 155 172" fill="none" xmlns="http://www.w3.org/2000/svg">
<g clip-path="url(#clip0_285_782)">
<path d="M0.209257 41.2462C1.33108 23.3961 11.2573 5.81043 32.5391 0.943943C34.8495 0.415031 37.1915 0.0632669 39.5674 0C41.443 0.158167 43.3186 0.144249 45.1942 0.0101227C49.5478 0.178413 53.7654 1.10717 57.93 2.32063C62.1172 3.54042 66.1558 5.21193 70.3683 6.36845C76.5332 8.06147 82.518 7.32631 88.4308 5.28152C93.363 3.57585 98.2612 1.76135 103.409 0.797163C105.576 0.39352 107.75 0.00759203 109.967 0.00759203C111.76 0.153106 113.551 0.145514 115.343 0.0101227C120.71 0.242945 125.847 1.50955 130.707 3.75173C143.215 9.51914 150.425 19.5583 153.511 32.7811C155.551 41.5145 155.319 50.3086 153.869 59.1103C152.27 68.8243 149.227 78.079 145.165 87.0161C143.241 91.2474 142.018 95.69 141.192 100.253C141.156 100.449 141.054 100.634 140.982 100.825C140.332 101.643 140.506 102.681 140.391 103.591C139.868 107.76 139.542 111.951 139.337 116.15C139.274 117.447 138.942 118.733 139.198 120.041C137.719 135.625 133.756 150.34 124.18 163.069C121.938 166.05 119.264 168.573 115.912 170.298C109.686 173.503 103.5 172.125 99.2129 166.584C96.2974 162.816 94.7987 158.399 93.4374 153.921C91.6299 147.972 90.3997 141.863 88.4938 135.944C87.5245 132.933 86.3069 130.03 84.3708 127.488C80.4785 122.375 74.3589 122.392 70.4956 127.537C68.0679 130.77 66.7949 134.533 65.6768 138.352C63.8617 144.55 62.6025 150.904 60.49 157.02C59.227 160.678 57.7043 164.188 55.1494 167.17C50.9608 172.061 45.2358 173.301 39.4565 170.513C34.7852 168.261 31.5395 164.483 28.7047 160.299C22.8297 151.629 19.4251 141.956 17.3781 131.752C16.0181 124.97 15.5025 118.092 15.103 111.198C14.5446 101.575 12.3413 92.3976 8.3582 83.5579C4.46586 74.9182 2.01173 65.7786 0.690756 56.3645C0.446225 54.6196 0.361774 52.8519 0.202955 51.0944C0.478998 49.6329 0.180266 48.1765 0.148754 46.7201C0.108419 44.893 0.492863 43.0721 0.204215 41.245L0.209257 41.2462Z" fill="#6998BD"/>
<path d="M139.201 120.043C138.884 119.747 138.961 119.353 138.986 118.999C139.378 113.588 139.475 108.151 140.41 102.788C140.555 101.957 140.629 101.113 140.74 100.245C141.04 100.406 140.912 100.65 140.985 100.826C140.274 104.866 140.017 108.953 139.738 113.039C139.579 115.375 139.382 117.709 139.201 120.044V120.043Z" fill="#6998BD"/>
<path d="M0.209287 41.2461C0.535749 41.5903 0.412223 42.0231 0.414744 42.4191C0.427348 44.9219 0.427348 47.4248 0.416004 49.9264C0.414744 50.3211 0.544572 50.7552 0.208026 51.0955C-0.0781003 47.812 -0.0591933 44.5284 0.209287 41.2449V41.2461Z" fill="#6998BD"/>
<path d="M45.1929 0.0101227C43.3173 0.326457 41.4417 0.370744 39.5662 0C41.4417 0.00379602 43.3173 0.00632669 45.1929 0.0101227Z" fill="#6998BD"/>
<path d="M115.343 0.0113197C113.551 0.340308 111.758 0.349165 109.967 0.00878906C111.76 0.00878906 113.551 0.0113197 115.343 0.0113197Z" fill="#6998BD"/>
<path d="M149.53 47.3425C149.103 48.9508 149.28 50.6109 149.141 52.2432C148.356 61.5093 146.037 70.3818 142.56 78.9697C140.599 83.8146 138.305 88.5306 137.06 93.6463C136.752 94.9079 136.95 96.611 136.03 97.3133C135.169 97.9713 133.586 97.6309 132.335 97.8257C125.665 98.8709 118.961 99.6301 112.236 100.198C108.032 100.554 103.816 100.751 99.6048 101C96.5772 101.179 93.5445 101.284 90.5219 101.51C89.4643 101.589 89.2551 101.255 89.274 100.246C89.3421 96.7502 87.9051 94.9281 84.8245 94.403C79.9125 94.5181 74.9992 94.5333 70.0871 94.3954C67.2397 94.8408 65.6364 96.7097 65.6137 99.6086C65.5986 101.526 65.5973 101.562 63.6726 101.464C56.7211 101.108 49.7721 100.75 42.8395 100.084C35.675 99.396 28.5319 98.552 21.4027 97.5777C20.4952 97.4537 19.3242 97.9358 18.7406 97.1817C18.244 96.5389 18.3146 95.4659 18.1016 94.5915C16.7768 89.1696 14.4399 84.1196 12.4017 78.9595C9.44591 71.4801 7.23882 63.7919 6.15734 55.8064C5.84852 53.5313 5.60651 51.2372 5.5813 48.9318C5.575 48.3206 5.6355 47.6943 5.37711 47.1084C5.13006 46.0747 5.12249 45.0409 5.38089 44.0084C5.6166 41.894 5.81071 39.7733 6.09432 37.6652C8.14258 22.409 17.9528 9.15461 35.6334 5.96722C36.7918 5.75844 37.9653 5.62431 39.1312 5.45476C41.361 5.11691 43.6009 5.23585 45.8294 5.39908C46.4962 5.44843 47.2159 5.36998 47.855 5.6977C51.6162 6.41262 55.3674 7.1617 58.9635 8.53206C65.7473 11.1159 72.7354 13.0417 79.7423 14.8803C84.1199 16.0292 88.5921 16.443 93.1121 15.8002C93.7525 15.7091 94.3865 15.5699 95.1289 15.1219C91.3349 14.388 87.7085 13.6314 84.0607 12.1307C91.5328 10.7515 98.1843 7.20219 105.515 5.99379C106.027 5.90901 106.595 6.06212 107.053 5.69011C109.957 5.0625 112.883 5.20549 115.812 5.43198C118.582 5.90016 121.381 6.21649 124.071 7.10982C137.507 11.5727 145.314 21.0134 148.331 34.7005C148.612 35.976 148.82 37.2666 149.063 38.551C149.528 41.465 149.964 44.3804 149.532 47.3425H149.53Z" fill="#FEFEFE"/>
<path d="M103.045 106.183C106.926 105.927 110.813 105.744 114.685 105.391C118.758 105.019 122.819 104.517 126.878 104.005C129.269 103.703 131.65 103.311 134.019 102.875C134.83 102.725 135.134 102.79 135.032 103.707C134.047 112.48 134.058 121.352 132.328 130.05C130.22 140.644 126.712 150.649 120.201 159.4C118.576 161.584 116.74 163.577 114.414 165.043C110.157 167.727 105.98 166.901 103.064 162.777C100.514 159.171 99.393 154.962 98.159 150.809C96.3087 144.584 95.0482 138.186 92.768 132.085C91.5391 128.798 89.966 125.713 87.6013 123.08C81.7641 116.578 73.0001 116.631 67.2132 123.188C63.9083 126.932 62.1525 131.456 60.708 136.131C58.7996 142.306 57.5101 148.656 55.5249 154.809C54.5543 157.818 53.4224 160.751 51.4246 163.26C48.5734 166.841 44.6584 167.587 40.7522 165.223C38.3296 163.758 36.4389 161.7 34.7498 159.455C28.9416 151.733 25.5194 142.942 23.3451 133.606C22.7892 131.221 22.3632 128.805 21.8779 126.402C21.1947 124.128 21.2111 121.761 20.9817 119.429C20.7069 116.63 20.5683 113.818 20.2721 111.021C20.1738 110.091 20.1523 109.143 20.3112 108.208C20.1687 106.655 20.054 105.1 19.8738 103.553C19.7918 102.844 20.0465 102.711 20.6792 102.819C26.5303 103.811 32.4318 104.393 38.3245 105.052C45.2483 105.827 52.1922 106.283 59.1425 106.698C59.4261 106.715 59.7134 106.682 59.9983 106.673C61.5348 106.601 63.0726 106.434 64.6016 106.755C65.8267 106.696 65.6137 107.573 65.6137 108.316C65.6124 111.674 66.9801 113.541 69.8413 114.093C72.1719 113.896 74.5076 114.018 76.8395 114.018C79.5822 114.018 82.3275 113.906 85.0691 114.087C87.7677 113.501 89.2702 111.662 89.2954 108.917C89.2967 108.712 89.3282 108.502 89.2916 108.303C89.0988 107.258 89.4757 106.71 90.5786 106.768C91.713 106.335 92.8966 106.65 94.0562 106.55C96.7637 106.315 99.4838 106.211 102.201 106.104C102.482 106.092 102.772 106.058 103.043 106.187L103.045 106.183Z" fill="#FEFEFE"/>
<path d="M84.0923 99.41C84.0948 102.661 84.0986 105.913 84.1011 109.163C83.8112 109.387 83.4721 109.296 83.1545 109.296C79.358 109.302 75.5602 109.302 71.7636 109.296C71.4447 109.296 71.1069 109.382 70.8132 109.168C70.8158 105.906 70.8195 102.643 70.8221 99.3809C70.9393 99.1569 71.1473 99.1772 71.3502 99.1772C75.4303 99.1772 79.5092 99.1746 83.5894 99.1772C83.7936 99.1772 84.0015 99.1607 84.0935 99.4074L84.0923 99.41Z" fill="#D7E0E8"/>
<path d="M20.3112 108.205C20.7083 114.281 21.1255 120.356 21.878 126.401C21.7936 126.519 21.6839 127.042 21.5919 126.449C21.307 124.597 21.0259 122.739 20.8747 120.871C20.5684 117.084 20.3402 113.291 20.1033 109.498C20.0768 109.068 19.9507 108.587 20.31 108.205H20.3112Z" fill="#172531"/>
<path d="M103.045 106.184C98.894 106.477 94.742 106.719 90.5799 106.764C90.2282 106.714 89.8753 106.662 89.2463 106.571C91.0816 106.268 92.6521 106.471 94.2202 106.313C97.0058 106.032 99.8217 106.063 102.626 105.98C102.764 105.976 102.906 106.113 103.046 106.185L103.045 106.184Z" fill="#6998BD"/>
<path d="M85.0691 114.083C79.9932 114.201 74.9173 114.187 69.8401 114.088C70.0934 113.786 70.4426 113.882 70.7577 113.881C75.221 113.875 79.6831 113.875 84.1464 113.881C84.4641 113.881 84.8094 113.793 85.0691 114.082V114.083Z" fill="#6A98BD"/>
<path d="M70.0872 94.3956C74.9992 94.3981 79.9113 94.4006 84.8246 94.4031C84.6015 94.6436 84.3065 94.6081 84.0229 94.6081C79.644 94.6081 75.2652 94.6081 70.8863 94.6081C70.6014 94.6081 70.3077 94.6436 70.0884 94.3943L70.0872 94.3956Z" fill="#6998BD"/>
<path d="M84.0923 99.41C79.6693 99.4012 75.245 99.3911 70.822 99.3822C71.0287 98.9368 71.4384 99.057 71.7838 99.057C75.5715 99.0494 79.3604 99.0507 83.1482 99.057C83.4973 99.057 83.9057 98.952 84.0923 99.4113V99.41Z" fill="#6998BD"/>
<path d="M70.8119 109.17C75.2412 109.167 79.6705 109.166 84.101 109.163C83.8729 109.487 83.5275 109.425 83.2086 109.425C79.373 109.428 75.5387 109.429 71.703 109.425C71.3879 109.425 71.0375 109.505 70.8132 109.17H70.8119Z" fill="#6998BD"/>
<path d="M149.53 47.3426C149.647 44.3982 149.237 41.4803 149.061 38.5511C149.096 38.3942 149.13 38.2373 149.218 37.8438C149.778 41.5752 149.958 45.0929 149.668 48.6396C149.622 48.2069 149.576 47.7754 149.53 47.3426Z" fill="#6998BD"/>
<path d="M47.8525 5.69663C44.9496 5.42838 42.043 5.31576 39.1288 5.45368C38.8641 5.39927 38.6006 5.34613 38.3359 5.29172C41.6951 5.1791 45.0454 4.97665 48.5155 5.50683C48.2142 5.59287 48.034 5.64475 47.8537 5.69663H47.8525Z" fill="#6998BD"/>
<path d="M115.809 5.43222C112.885 5.3525 109.963 5.36263 107.05 5.69035C106.858 5.58153 106.464 5.50055 107.067 5.39679C108.884 5.08299 110.715 5.16144 112.542 5.16017C113.885 5.16017 115.228 5.16017 116.61 5.16017C116.387 5.51447 116.038 5.27279 115.808 5.43349L115.809 5.43222Z" fill="#6998BD"/>
<path d="M5.37847 44.0071C5.37847 45.0409 5.37595 46.0734 5.37469 47.1072C5.3394 47.6728 5.3041 48.2384 5.26881 48.804C5.23604 48.804 5.20453 48.804 5.17175 48.8053V42.6077C5.27637 43.3137 5.32805 43.6604 5.37847 44.0071Z" fill="#6998BD"/>
<path d="M64.6017 106.752C63.0677 106.724 61.5324 106.697 59.9984 106.669C61.7757 106.205 63.5781 106.601 65.3794 106.563C65.1197 106.625 64.86 106.688 64.6004 106.75L64.6017 106.752Z" fill="#6998BD"/>
<path d="M80.8465 68.1245C83.9246 67.7879 87.0115 67.5792 90.0618 66.9554C93.2306 66.3075 96.3011 65.4268 99.2368 64.0653C100.717 63.3795 102.193 63.3453 103.463 64.5057C104.869 65.79 104.555 67.502 104.148 69.0065C101.532 78.699 95.3558 84.9257 85.7409 87.7006C85.0413 87.9018 84.3128 88.0005 83.5981 88.1472C82.6565 87.8461 81.7414 88.2472 80.8427 88.3535C77.4521 88.7584 74.1244 88.4218 70.7968 87.8499C70.5522 87.8081 70.3153 87.7778 70.0846 87.898C60.5113 85.6001 54.0602 79.8605 50.9998 70.4097C50.725 69.5607 50.6229 68.6522 50.4755 67.7652C49.9713 64.7562 52.2918 62.8012 55.1442 63.9122C58.5349 65.2332 61.9924 66.286 65.5973 66.7795C68.7107 67.2059 71.8051 67.8082 74.9588 67.9183C75.4025 67.9335 75.8424 68.0511 76.2849 68.122C76.247 68.2131 76.15 68.2055 76.0983 68.2435C75.9849 68.3295 76.0139 68.2953 76.1336 68.2953C77.7268 68.2915 79.3213 68.2802 80.9146 68.2941C81.3167 68.2979 81.7263 68.2245 82.1801 68.3611C81.7238 68.146 81.2259 68.4662 80.8503 68.1233L80.8465 68.1245Z" fill="#6998BD"/>
<path d="M51.184 42.7369C57.2456 42.7242 61.579 45.9875 62.8294 51.3032C62.9693 51.8954 63.0009 52.5217 63.0223 53.1329C63.074 54.5804 62.4236 55.4117 61.0824 55.6762C59.9745 55.8951 58.8035 55.2295 58.3396 54.0958C58.2325 53.8326 58.1821 53.5466 58.1077 53.2708C57.1712 49.7987 55.1418 48.0298 51.9844 47.9323C48.1361 47.8134 45.6404 49.4786 44.4682 52.9405C44.298 53.4416 44.1556 53.9617 43.9123 54.4273C43.3728 55.4649 42.2863 55.9558 41.2514 55.6952C39.9153 55.3586 39.1981 54.5981 39.3002 53.2645C39.6393 48.8472 42.0645 45.8521 45.9089 43.925C47.6534 43.0507 49.563 42.814 51.184 42.7369Z" fill="#6998BD"/>
<path d="M115.409 53.0342C115.43 54.3995 114.7 55.3295 113.416 55.5699C112.139 55.8091 111.063 55.2131 110.572 53.9794C110.422 53.601 110.323 53.2025 110.187 52.8178C108.998 49.4431 106.461 47.7906 102.69 47.9298C99.5746 48.0462 97.4154 49.9176 96.5167 53.2809C96.0188 55.1448 94.8302 55.9318 93.2307 55.4573C91.9954 55.0903 91.4307 54.2691 91.5189 52.9709C91.8605 47.9627 96.2457 43.5555 101.236 42.9001C107.968 42.0169 112.672 45.5699 114.54 49.7342C115.01 50.7819 115.405 51.8574 115.409 53.0329V53.0342Z" fill="#6998BD"/>
<path d="M70.0834 87.8981C70.9569 87.3084 71.8279 87.9094 72.6598 88.0018C75.9345 88.3662 79.189 88.5776 82.4536 87.9664C82.8343 87.8955 83.2666 87.7753 83.5981 88.1461C79.0768 88.9761 74.5719 88.8673 70.0834 87.8968V87.8981Z" fill="#6998BD"/>
<path d="M80.8466 68.1246C81.3281 68.1676 81.8096 68.2106 82.2911 68.2536C82.2936 68.3068 82.2949 68.3599 82.2974 68.4131C81.1378 68.4131 79.9781 68.4131 78.8173 68.4131C77.6564 68.4131 76.4526 68.4131 75.2716 68.4131C75.2678 68.3688 75.2653 68.3257 75.2615 68.2815C75.6018 68.2283 75.9409 68.1764 76.2812 68.1233C77.8026 68.1233 79.3252 68.1233 80.8466 68.1233V68.1246Z" fill="#6998BD"/>
<path d="M77.4609 108.687C75.6609 108.687 73.8597 108.662 72.061 108.699C71.3375 108.714 71.0388 108.501 71.0514 107.726C71.0905 105.385 71.0842 103.044 71.0539 100.703C71.0451 99.9971 71.3123 99.7833 71.9905 99.7883C75.632 99.8111 79.2735 99.8174 82.9137 99.7845C83.7078 99.777 83.8691 100.115 83.8603 100.818C83.8313 103.117 83.825 105.419 83.8628 107.718C83.8754 108.484 83.5943 108.717 82.8608 108.701C81.0608 108.663 79.2608 108.689 77.4609 108.689V108.687Z" fill="#C2CED8"/>
<path d="M74.7975 83.4503C72.3913 83.0404 69.9825 82.6734 67.6935 81.7396C62.087 79.4531 58.3774 75.3433 55.9838 69.6392C60.6021 71.6295 65.3932 71.851 70.0834 72.5823C71.3489 72.4381 72.5804 72.7734 73.8282 72.8708C76.4765 73.0771 79.1247 72.9303 81.773 72.9885C82.2179 72.9986 82.6704 72.9088 83.1066 73.0708C88.3741 72.7696 93.4953 71.7434 98.4805 69.8783C96.4927 76.1379 90.7904 81.2119 84.0696 82.7126C82.7624 83.0049 81.4352 83.2049 80.1167 83.4465C78.3445 83.7034 76.5723 83.6971 74.8001 83.4478L74.7975 83.4503Z" fill="#FEFEFE"/>
<path d="M83.1053 73.072C78.7516 73.2656 74.4043 73.2745 70.0834 72.5823C71.3602 71.9889 72.6535 72.5684 73.8925 72.681C76.5836 72.9252 79.2659 72.7582 81.9494 72.8569C82.3402 72.8708 82.7738 72.7152 83.1066 73.0707L83.1053 73.072Z" fill="#6998BD"/>
<path d="M74.7975 83.4502C76.5697 83.4502 78.342 83.4502 80.1142 83.449C80.2894 83.5046 80.4646 83.5603 80.9297 83.7084H74.0148C74.2227 83.3794 74.5719 83.6185 74.7963 83.4515L74.7975 83.4502Z" fill="#6998BD"/>
</g>
<defs>
<clipPath id="clip0_285_782">
<rect width="155" height="172" fill="white"/>
</clipPath>
</defs>
</svg>
