<svg width="91" height="105" viewBox="0 0 91 105" fill="none" xmlns="http://www.w3.org/2000/svg">
<g clip-path="url(#clip0_153_2758)">
<path d="M89.9884 26.8816C90.0381 30.1806 89.629 33.434 89.0804 36.6812C88.1175 42.3822 86.403 47.8466 84.0501 53.1166C83.8672 53.5264 84.0405 53.7419 84.2128 54.0124C86.7 57.9007 88.8035 61.9739 90.2072 66.3851C90.5169 67.3601 90.7949 68.3404 90.9587 69.3597C91.1469 70.5344 90.6765 71.3298 89.722 71.8896C89.2939 72.14 89.2548 72.3682 89.3077 72.8741C89.6364 76.0431 89.3204 79.0378 86.6355 81.2709C85.235 82.435 83.5712 82.8945 81.8229 83.1321C81.5026 83.1754 81.398 83.2166 81.3959 83.5716C81.3938 84.1927 81.306 84.8138 81.2373 85.4328C81.1348 86.3582 80.6686 87.0342 79.7818 87.3522C78.9605 87.6469 78.1307 87.9353 77.283 88.1381C76.6203 88.2965 76.2799 88.6705 76.1076 89.2926C75.3497 92.0222 74.2536 94.6208 72.9302 97.1179C71.5434 99.7365 69.6968 101.98 67.1377 103.538C65.1241 104.765 62.9519 105.218 60.5673 104.848C57.0474 104.302 54.9619 102.057 53.4165 99.1197C52.1809 96.7714 51.405 94.2436 50.6841 91.7021C50.5657 91.2838 50.4252 91.1296 49.9664 91.1486C47.0258 91.2711 44.083 91.2849 41.1424 91.1571C40.504 91.1296 40.2894 91.3504 40.116 91.9609C39.3825 94.5521 38.6256 97.1401 37.3477 99.539C36.0021 102.064 34.1935 104.104 31.3015 104.74C27.0988 105.665 23.7259 104.057 20.9078 101.001C17.8996 97.738 16.3701 93.7155 15.0509 89.5926C14.8268 88.8912 14.5425 88.4254 13.7603 88.2796C13.0848 88.1539 12.4358 87.8793 11.7794 87.6596C10.1749 87.124 9.65586 86.3677 9.51527 84.3723C9.43177 83.1807 9.43282 83.167 8.26059 83.0033C7.41074 82.885 6.61692 82.6082 5.85481 82.2353C3.31162 80.9899 2.07913 78.8498 1.68909 76.1287C1.52631 74.991 1.4576 73.8608 1.6912 72.7241C1.74405 72.4664 1.72291 72.215 1.43435 72.0597C-0.146958 71.2104 -0.182897 69.9069 0.206087 68.3478C1.37198 63.6693 3.36869 59.3532 5.92774 55.3074C6.73319 54.0335 6.88646 53.0585 6.21208 51.6705C4.63606 48.4307 3.61498 44.9723 2.75245 41.4769C2.01042 38.4706 1.47557 35.4316 1.20074 32.3407C0.986169 29.9302 0.805418 27.5165 0.940717 25.106C1.22611 20.0219 2.06433 15.0571 4.85592 10.648C8.10626 5.51637 12.772 2.33154 18.63 0.850568C24.8812 -0.730754 30.958 -0.00928201 36.9355 2.21534C39.9374 3.33294 42.9742 4.328 46.2616 4.13892C48.5479 4.00687 50.7158 3.4016 52.8542 2.65372C55.5274 1.71781 58.1869 0.76395 61.0112 0.33825C63.4931 -0.0356903 65.9655 -0.0494225 68.4537 0.19142C71.1681 0.453389 73.7663 1.13261 76.2619 2.23541C80.6031 4.1537 84.0141 7.10825 86.4157 11.2131C88.3109 14.4518 89.2622 17.98 89.6967 21.6782C89.8996 23.4095 90.0032 25.1408 89.9884 26.8827V26.8816Z" fill="#757474"/>
<path d="M3.55582 27.2859C3.50614 23.5824 3.86341 20.049 4.96377 16.6191C6.933 10.4818 10.9856 6.35686 17.0075 4.08153C20.7821 2.65548 24.6476 2.45267 28.6104 2.83717C31.6092 3.12766 34.3986 4.10899 37.1892 5.14314C40.0632 6.20791 43.0356 6.86601 46.1157 6.74347C48.9105 6.6315 51.5985 5.94278 54.2062 4.93187C57.9829 3.4678 61.8717 2.53401 65.9518 2.62696C70.812 2.73682 75.3043 3.99808 79.2354 6.96424C82.8303 9.67689 85.0331 13.3001 86.2519 17.5856C86.9357 19.9888 87.2285 22.4521 87.3268 24.9281C87.5731 31.1267 86.6514 37.1858 84.9538 43.1371C84.2097 45.7473 83.3165 48.3057 82.3367 50.8356C82.1443 51.3332 81.8726 51.6944 81.3452 51.9099C77.597 53.4405 73.7705 54.7208 69.8131 55.5923C67.1927 56.169 64.5523 56.6306 61.8844 56.9327C60.2153 57.1218 58.5526 57.3627 56.8815 57.5359C56.3688 57.5887 56.0285 57.8422 55.6923 58.1739C52.5593 61.2574 49.4221 64.3365 46.2869 67.4179C45.5407 68.152 45.528 68.1594 44.7691 67.4179C41.7174 64.4337 38.6457 61.4707 35.6396 58.4422C34.9589 57.7556 34.22 57.4588 33.3247 57.4028C30.2477 57.2106 27.1971 56.7912 24.1646 56.2747C21.3349 55.793 18.5465 55.1021 15.8014 54.2444C13.5753 53.5493 11.3926 52.7455 9.27324 51.7705C8.95297 51.6236 8.72888 51.4219 8.59146 51.087C6.56198 46.1424 5.04516 41.0466 4.20905 35.7661C3.75876 32.9235 3.47865 30.0556 3.5537 27.2859H3.55582Z" fill="#FEFEFE"/>
<path d="M11.0776 63.6256C10.9761 63.7355 10.8746 63.8453 10.7742 63.9552C10.3609 64.2943 10.4296 64.8034 10.3895 65.2354C10.1929 67.3249 9.93601 69.409 9.83242 71.5058C9.80388 72.0815 9.55759 72.2104 9.03542 72.0995C7.04294 71.678 5.12762 71.0431 3.32222 70.0882C2.85608 69.8421 2.68061 69.5548 2.82542 68.9833C3.79471 65.1816 5.3517 61.626 7.23954 58.2035C7.8653 57.069 8.51643 55.9482 9.17812 54.8348C9.36416 54.5211 9.50686 54.4694 9.84827 54.6194C16.0699 57.3447 22.6298 58.7285 29.344 59.4869C29.4729 59.5017 29.6019 59.5271 29.7298 59.5323C30.2868 59.5535 30.4581 59.7658 30.2551 60.3277C29.9465 61.1823 29.7625 62.077 29.5702 62.9654C29.3461 64.0027 29.6294 65.1171 30.5997 65.2217C32.5552 66.2379 34.5086 67.2594 36.4672 68.2692C37.4365 68.7689 38.3012 68.453 38.4713 67.5446C38.5866 66.933 38.335 66.5041 37.7885 66.2199C36.0804 65.3326 34.3849 64.421 32.663 63.5622C32.1958 63.3298 32.0785 63.09 32.2307 62.601C32.5245 61.6545 32.7645 60.6911 33.0615 59.6116C33.775 60.2644 34.4515 60.8517 35.092 61.4749C37.7198 64.0312 40.3338 66.6023 42.9605 69.1586C43.3875 69.5738 43.8431 69.9625 44.3061 70.3386C44.9889 70.8942 45.9519 70.8868 46.6474 70.2974C48.5733 68.6674 50.3142 66.8411 52.146 65.1108C53.8478 63.5041 55.52 61.8668 57.1891 60.2263C57.5928 59.8292 57.8021 59.77 57.9734 60.407C58.1858 61.1971 58.4522 61.9746 58.7418 62.7404C58.9004 63.1608 58.7778 63.351 58.4015 63.5443C56.7536 64.3862 55.1215 65.2597 53.4789 66.1122C53.0276 66.3467 52.6471 66.597 52.6323 67.1886C52.609 68.1298 53.3627 68.8449 54.1787 68.4287C56.5041 67.2435 58.911 66.1999 61.0715 64.7052C61.4605 64.4231 61.4848 64.0238 61.4341 63.595C61.3062 62.5038 60.9415 61.4718 60.6371 60.4249C60.4246 59.6961 60.5187 59.5651 61.2639 59.4848C66.5723 58.9133 71.7918 57.9161 76.8602 56.207C78.1657 55.7665 79.4425 55.2479 80.7046 54.6965C81.1687 54.4936 81.4614 54.5053 81.7648 55.0313C82.2267 55.831 82.6464 56.6697 83.2658 57.3743C83.5681 57.8982 83.8704 58.4221 84.1738 58.9471C84.4539 59.902 85.0035 60.7313 85.4242 61.6207C86.5383 63.9763 87.4579 66.3985 88.1143 68.9231C88.2665 69.5072 88.1566 69.8262 87.5985 70.0946C85.7603 70.9798 83.8503 71.6199 81.8494 72.0171C81.2448 72.1375 81.0904 71.9706 81.064 71.3738C80.9646 69.1703 80.6697 66.9837 80.4203 64.7939C80.3611 64.2721 80.2205 63.7693 79.693 63.4872C78.6963 62.9548 77.6371 63.6383 77.7291 64.8203C77.8242 66.0604 77.9912 67.2953 78.1139 68.5344C78.6085 73.5266 78.82 78.5304 78.7365 83.5469C78.7312 83.8606 78.6096 84.1659 78.6582 84.4764C78.7375 84.9793 78.4574 85.162 78.0399 85.2993C76.3825 85.8433 74.6954 86.2733 72.9926 86.643C68.5415 87.6095 64.0343 88.1176 59.4902 88.3796C55.2833 88.6225 51.0742 88.6732 46.863 88.6986C46.2278 88.7028 46.0354 88.4947 46.0692 87.8958C46.1178 87.0412 46.0428 86.1866 45.9455 85.3352C47.1622 84.2652 47.4423 83.0398 46.7468 81.8293C45.8853 80.3304 43.9235 80.2099 42.6349 81.5747C41.7312 82.5983 41.8602 84.13 42.9869 85.0997C43.3009 85.3701 43.4393 85.6257 43.4214 86.0197C43.3907 86.6937 43.3854 87.3697 43.3654 88.0437C43.3474 88.6489 43.0948 88.688 42.6085 88.6954C40.9945 88.7187 39.3836 88.6246 37.7716 88.6056C31.2963 88.5264 24.8432 88.1715 18.4767 86.8817C16.6417 86.5099 14.8237 86.0652 13.0669 85.3933C12.5743 85.2053 12.346 84.9645 12.3027 84.3888C12.086 81.5061 12.2012 78.6286 12.3154 75.747C12.4359 72.7121 12.6832 69.6879 12.9549 66.6636C13.0109 66.0435 13.1356 65.4288 13.1747 64.8087C13.2096 64.2615 13.0489 63.7566 12.4919 63.521C12.0162 63.3203 11.511 63.1059 11.0744 63.6245L11.0776 63.6256Z" fill="white"/>
<path d="M36.4609 91.089H37.7748C37.2473 93.2228 36.5772 95.2393 35.6893 97.1788C35.2104 98.2256 34.6661 99.2323 33.979 100.176C31.9971 102.898 28.5184 103.32 25.7554 101.816C22.7143 100.16 20.9523 97.4006 19.5433 94.3763C18.7811 92.7411 18.129 91.0584 17.611 89.231C23.1942 90.3602 28.7541 90.9021 34.3606 90.9855C35.055 91.125 35.7654 90.9369 36.4598 91.0901L36.4609 91.089Z" fill="#FEFEFB"/>
<path d="M73.13 89.8648C71.9705 93.8155 70.35 97.5242 67.2921 100.41C65.9634 101.664 64.3842 102.525 62.5048 102.654C59.7703 102.842 57.8233 101.564 56.3857 99.3358C54.8383 96.938 54.0381 94.2465 53.2718 91.538C53.1787 91.2085 53.1861 91.0511 53.6174 91.0394C55.8519 90.9792 58.0886 90.9275 60.3189 90.7923C63.7933 90.5821 67.2688 90.356 70.683 89.5933C71.572 89.3947 72.4789 89.2743 73.4344 89.1074C73.3234 89.3926 73.3562 89.6821 73.1194 89.8764C72.7717 89.6535 72.4091 89.7898 72.0624 89.8542C69.6852 90.299 67.3069 90.7395 64.8926 90.9391C62.9773 91.0975 61.0652 91.3173 59.1414 91.331C57.633 91.3416 56.1363 91.5792 54.6237 91.5032C54.351 91.4894 53.9017 91.3627 53.8891 91.8285C53.8764 92.2912 54.0793 92.7063 54.6491 92.7349C55.2981 92.7665 55.9502 92.7856 56.5982 92.7222C58.6414 92.5225 60.6931 92.4655 62.7384 92.3028C65.8048 92.0599 68.83 91.6004 71.8214 90.8937C72.1745 90.8102 72.4377 90.6623 72.6015 90.3222C72.7051 90.1078 72.7696 89.8014 73.13 89.8637V89.8648Z" fill="#FDFEFB"/>
<path d="M81.2353 80.7711C81.2353 78.9088 81.2511 77.0676 81.2226 75.2275C81.2162 74.8272 81.3748 74.6539 81.7099 74.6117C83.3979 74.3972 84.9993 73.8501 86.6187 73.3684C86.8491 73.2997 87.0013 73.2353 87.014 73.5807C87.0943 75.705 86.8449 77.731 85.1737 79.2722C84.1347 80.2303 82.8197 80.5778 81.2353 80.7711Z" fill="#FEFEFE"/>
<path d="M4.04523 73.2573C5.85168 73.9101 7.59365 74.4203 9.39164 74.7024C9.79014 74.7647 9.66858 75.0161 9.66435 75.2094C9.62313 76.9502 9.55971 78.69 9.51954 80.4308C9.51214 80.7551 9.40961 80.8069 9.0999 80.7572C6.01234 80.2576 4.04945 77.9495 4.04628 74.7879C4.04628 74.321 4.04628 73.8542 4.04628 73.2584L4.04523 73.2573Z" fill="#FEFEFE"/>
<path d="M45.9477 85.3364C46.2024 86.1572 46.2753 87.0033 46.2235 87.8526C46.1887 88.4125 46.343 88.6142 46.9508 88.6248C50.3047 88.6797 53.6523 88.4748 57.003 88.4156C60.1773 88.3596 63.3547 88.0755 66.5057 87.654C70.349 87.1396 74.1595 86.434 77.8633 85.2382C78.3961 85.066 78.6011 84.8347 78.5948 84.2558C78.5631 81.577 78.691 78.8928 78.5494 76.2214C78.3908 73.2066 78.265 70.1834 77.8306 67.1866C77.709 66.3447 77.6699 65.4859 77.6509 64.6335C77.634 63.8824 78.2248 63.2201 78.8802 63.162C79.5884 63.0986 80.3008 63.5645 80.4287 64.3124C80.6412 65.5567 80.7797 66.8158 80.916 68.0718C81.0439 69.2528 81.1517 70.4369 81.2236 71.6221C81.2585 72.1862 81.6337 71.9158 81.8282 71.8852C83.2404 71.6676 84.6145 71.2746 85.9231 70.7137C88.8458 69.4609 88.2644 70.0588 87.5203 67.3134C86.7983 64.6504 85.6272 62.1553 84.3661 59.7057C84.252 59.4828 83.9423 59.2716 84.1759 58.9473C85.884 62.0719 87.2729 65.3254 88.2137 68.7679C88.4114 69.4936 88.3014 69.8813 87.5509 70.2447C85.6187 71.1806 83.5871 71.7521 81.5111 72.2285C81.0566 72.3331 80.9752 72.182 80.9636 71.8228C80.9065 69.9014 80.6549 67.9958 80.4552 66.087C80.3939 65.4976 80.3241 64.9028 80.1782 64.3303C79.9943 63.6131 79.4742 63.3268 78.7671 63.461C78.172 63.574 77.7534 64.1254 77.819 64.7803C77.9849 66.4303 78.2079 68.076 78.3453 69.7281C78.7565 74.676 79.0863 79.628 78.7808 84.5981C78.7565 84.9868 78.6434 85.2097 78.2037 85.3586C75.1986 86.379 72.1079 87.0107 68.9833 87.5135C61.618 88.6998 54.1882 88.7801 46.7552 88.8382C46.047 88.8434 45.862 88.6575 45.9138 87.9804C45.9794 87.1026 45.9413 86.2164 45.9487 85.3343L45.9477 85.3364Z" fill="#F7FAFB"/>
<path d="M11.0776 63.6256C11.1336 63.128 11.5374 63.1301 11.8471 63.1956C12.4929 63.3309 13.1303 63.559 13.2466 64.3449C13.2952 64.6756 13.3068 65.0273 13.254 65.3558C12.81 68.0896 12.7308 70.8561 12.513 73.6079C12.2488 76.9469 12.2699 80.3008 12.3397 83.6504C12.3682 85.0215 12.4654 85.0753 13.7973 85.5232C16.5022 86.4327 19.2896 86.9567 22.1087 87.375C25.7723 87.919 29.4497 88.2063 33.1514 88.3394C34.5234 88.389 35.8985 88.4461 37.2706 88.4419C39.0368 88.4355 40.7904 88.6954 42.5599 88.6236C43.0895 88.6024 43.3315 88.4767 43.2734 87.919C43.2385 87.5841 43.2702 87.244 43.267 86.906C43.2607 86.1465 43.3093 85.4651 42.6096 84.8165C41.8443 84.1067 41.7185 83.0483 42.1593 82.0162C42.2534 81.7955 42.2555 81.4828 42.6371 81.5757C41.8993 82.7219 41.9014 84.2187 43.3632 85.2032C43.5619 85.3363 43.5704 85.5317 43.5609 85.7493C43.525 86.607 43.4837 87.4658 43.4848 88.3236C43.4848 88.7503 43.303 88.8443 42.9182 88.838C38.9375 88.7714 34.9567 88.725 30.9802 88.5074C28.437 88.3679 25.9002 88.1725 23.3792 87.8176C19.7325 87.3053 16.1048 86.7031 12.6462 85.3553C12.2794 85.2127 12.1896 85.0595 12.1684 84.7046C11.9042 80.2564 12.1473 75.8209 12.4623 71.3843C12.6166 69.2093 12.7752 67.0375 13.0648 64.8752C13.2138 63.7692 12.2234 63.1629 11.0765 63.6245L11.0776 63.6256Z" fill="#F7FAFB"/>
<path d="M30.6008 65.2219C29.8471 65.1892 29.3545 64.6272 29.3683 63.7135C29.3852 62.616 29.7351 61.5639 30.0839 60.5498C30.3777 59.6952 29.9338 59.6255 29.3767 59.5769C27.138 59.3794 24.9172 59.053 22.7133 58.6209C18.334 57.7621 14.0415 56.6044 9.95714 54.7738C9.55548 54.5942 9.41172 54.666 9.18763 55.0305C7.05351 58.51 5.19315 62.1226 3.82642 65.973C3.45541 67.0166 3.26409 68.1226 2.92373 69.18C2.78948 69.5962 2.97869 69.761 3.25035 69.9152C5.11493 70.98 7.15392 71.5609 9.22991 72.0321C9.51848 72.0975 9.64955 71.9634 9.67492 71.6592C9.8229 69.9099 9.97194 68.1617 10.1485 66.4156C10.2288 65.6212 10.3683 64.8332 10.4973 64.0452C10.5163 63.9269 10.622 63.8043 10.7732 63.9543C10.3673 65.0381 10.4444 66.1906 10.3091 67.3113C10.1347 68.7522 10.0681 70.2067 9.96349 71.6571C9.92649 72.1757 9.80811 72.3838 9.17072 72.2465C7.10953 71.8049 5.13079 71.1659 3.26514 70.1782C2.74932 69.9046 2.53369 69.5729 2.6933 68.9624C4.04205 63.7821 6.47532 59.0963 9.21089 54.5435C9.40115 54.2277 9.58824 54.3629 9.76899 54.4453C13.1916 56.0202 16.7792 57.0766 20.447 57.8889C23.172 58.4921 25.915 58.9843 28.6939 59.2642C28.9518 59.2906 29.2044 59.3582 29.4602 59.4037C29.8313 59.4692 30.3703 59.2262 30.5363 59.5368C30.6684 59.7839 30.3798 60.2487 30.2942 60.6206C30.0733 61.5712 29.7351 62.4924 29.6463 63.4769C29.5723 64.2955 29.8365 64.8828 30.6008 65.2209V65.2219Z" fill="#F7F9FA"/>
<path d="M83.2679 57.3755C83.1072 57.5265 83.0438 57.3765 82.9814 57.2741C82.5354 56.5452 82.0544 55.8354 81.6676 55.0769C81.4403 54.6311 81.1898 54.6163 80.8093 54.7843C77.337 56.3139 73.7251 57.4146 70.0224 58.2089C67.6028 58.7286 65.1717 59.204 62.6993 59.4174C62.4689 59.4374 62.2459 59.5272 62.0165 59.5547C60.5906 59.7237 60.58 59.7237 60.9436 61.0821C61.1962 62.0286 61.5979 62.9465 61.5387 63.9511C61.5207 64.2564 61.5979 64.6842 61.0736 64.7064C61.5334 64.0832 61.3199 63.4134 61.1645 62.7723C60.9362 61.8247 60.6646 60.8867 60.3697 59.9582C60.2322 59.5262 60.3464 59.448 60.7724 59.4036C67.7033 58.6874 74.483 57.3322 80.8928 54.4917C81.324 54.3005 81.4879 54.347 81.7046 54.7347C82.2024 55.6272 82.7447 56.4956 83.269 57.3734L83.2679 57.3755Z" fill="#F6F9FA"/>
<path d="M36.4609 91.0894C35.759 91.0936 35.0508 91.2362 34.3616 90.9848C35.0646 90.9626 35.7654 90.9574 36.4609 91.0894Z" fill="#EDF0F1"/>
<path d="M40.0326 30.0112C41.8824 28.9348 43.7649 28.3792 45.8007 28.5091C47.4877 28.6169 49.1007 29.0214 50.4854 30.0514C50.8839 30.3471 50.8765 30.1982 50.9674 29.8242C51.6048 27.2109 52.869 24.9398 54.8657 23.1208C57.7662 20.4789 61.1571 19.3222 65.0988 19.7395C71.221 20.3881 75.7398 24.9725 76.5548 30.8193C77.0801 34.5925 76.2916 38.0308 73.9767 41.0076C71.9557 43.6072 69.2603 45.2794 65.9402 45.8075C62.0218 46.4308 58.4448 45.629 55.3319 43.134C52.8003 41.1058 51.3448 38.4132 50.7782 35.2326C50.6651 34.5946 50.5626 33.9524 50.625 33.3006C50.6525 33.0122 50.5425 32.8063 50.3269 32.6288C47.456 30.2711 43.8843 30.0535 40.9353 32.2253C40.5558 32.5041 40.4395 32.801 40.4247 33.2605C40.2471 38.934 36.7664 43.6991 31.5806 45.3586C25.2068 47.3973 18.5338 44.7787 15.7348 38.7481C13.4548 33.8351 13.8766 28.9929 17.1544 24.607C19.3572 21.6599 22.4353 20.1335 26.1116 19.7279C31.9168 19.0867 37.0528 22.4447 39.1795 27.2838C39.5484 28.1236 39.873 28.9876 40.0326 30.0123V30.0112Z" fill="#757474"/>
<path d="M45.546 46.1276C43.1307 46.0696 41.1794 45.3608 39.9892 43.2249C39.7007 42.7073 39.54 42.1949 39.9184 41.6361C40.244 41.1566 40.6921 41.089 41.2122 41.1492C41.6287 41.1978 41.8179 41.4957 42.0007 41.8104C43.5873 44.5368 47.3197 44.5389 48.9052 41.8136C49.2646 41.1967 49.8555 40.9527 50.3861 41.202C50.9759 41.4788 51.2539 42.215 50.9537 42.8657C50.1641 44.5748 48.8217 45.6122 46.973 45.9534C46.4688 46.0463 45.9603 46.21 45.546 46.1276Z" fill="#757474"/>
<path d="M72.7865 77.1911C71.3828 79.2457 69.2751 79.8742 66.956 79.982C65.084 80.0696 63.2405 79.9249 61.618 78.7989C60.2967 77.8809 59.505 76.6799 59.3391 75.0489C59.1594 73.2827 59.2799 71.5176 59.2556 69.7525C59.2471 69.1134 59.5431 68.618 59.9944 68.1976C60.3295 67.9736 60.7058 67.9198 61.099 67.9198C64.5618 67.9219 68.0257 67.9155 71.4885 67.924C72.7537 67.9272 73.3678 68.4786 73.4936 69.725C73.6723 71.4891 73.5803 73.2605 73.5539 75.0267C73.5422 75.8042 73.3108 76.5658 72.7854 77.1911H72.7865Z" fill="#757474"/>
<path d="M44.6295 77.6896C43.155 77.6833 42.1741 76.7611 42.1804 75.389C42.1857 74.1129 43.2702 73.0587 44.5862 73.0513C45.9529 73.0429 47.1051 74.1267 47.1199 75.4333C47.1357 76.7812 46.1252 77.696 44.6295 77.6896Z" fill="#757474"/>
<path d="M72.7865 77.1912C73.4947 75.8676 73.5179 74.4373 73.4661 72.9891C73.4291 71.9528 73.4513 70.9134 73.4154 69.8771C73.3731 68.6486 72.8066 68.0603 71.5846 68.0529C68.0796 68.0317 64.5755 68.0402 61.0704 68.0508C60.7121 68.0518 60.3527 68.1469 59.9944 68.1986C60.1921 67.8405 60.5345 67.8437 60.877 67.8437C64.547 67.8437 68.217 67.8405 71.8869 67.8458C72.685 67.8469 73.3921 68.3032 73.4968 69.1546C73.8086 71.6961 74.0845 74.2556 73.2399 76.7644C73.1469 77.0401 73.1332 77.0359 72.7875 77.1922L72.7865 77.1912Z" fill="#F8F9FA"/>
<path d="M35.0751 92.9831C32.5478 92.8342 30.0236 92.7064 27.5005 92.4106C25.1856 92.1381 22.8866 91.8571 20.633 91.2634C19.8857 91.0659 19.1057 90.9212 18.4683 90.4406C18.2241 90.2568 17.9133 89.9779 18.0497 89.6768C18.1882 89.3726 18.5169 89.6705 18.7452 89.7117C22.1795 90.3328 25.6285 90.7765 29.1188 90.9846C31.6303 91.1346 34.1365 91.2877 36.6522 91.2656C37.5602 91.2582 37.5327 91.2645 37.2959 92.1159C37.1162 92.7613 36.87 93.1828 36.0867 92.9958C35.7664 92.9198 35.4134 92.9831 35.0751 92.9831Z" fill="#EDF0F1"/>
<path d="M73.13 89.8649C73.1078 89.8787 73.0687 89.8882 73.0655 89.9051C72.8446 91.0343 71.9292 91.1262 71.0371 91.3058C68.7835 91.76 66.5384 92.2163 64.2309 92.3811C61.9605 92.5438 59.6942 92.754 57.4184 92.8639C56.4365 92.9114 55.4524 92.9568 54.4683 92.9769C54.0413 92.9853 53.3077 91.7494 53.5096 91.3903C53.6037 91.2223 53.7802 91.2646 53.9282 91.2667C55.538 91.2952 57.1436 91.1885 58.7513 91.1178C62.9139 90.935 67.0606 90.635 71.147 89.7593C71.6523 89.6516 72.1787 89.6357 72.6734 89.4963C73.0909 89.379 73.1152 89.5808 73.1194 89.8755L73.13 89.8639V89.8649Z" fill="#EBEFF0"/>
<path d="M74.3593 32.8911C74.4132 38.8921 69.5922 43.7628 63.6485 43.7797C57.652 43.7976 52.905 39.0431 52.9779 32.9904C53.0561 26.5108 57.652 22.0193 63.7109 21.9581C69.6883 21.8979 74.3604 26.7591 74.3593 32.8911Z" fill="#FEFEFB"/>
<path d="M27.3451 21.9409C33.6175 21.9948 38.0485 26.8349 38.0898 33.0577C38.1289 38.9689 33.2909 43.8196 27.398 43.7731C21.133 43.7245 16.7178 38.9235 16.7443 32.6996C16.7707 26.5254 21.3698 22.0149 27.3451 21.9409Z" fill="#FEFEFC"/>
<path d="M66.3143 70.3483C67.7191 70.3483 69.125 70.3641 70.5297 70.3388C70.9568 70.3314 71.1238 70.4264 71.1164 70.8881C71.1037 71.7711 71.1787 72.6542 71.1809 73.5373C71.1872 76.0577 70.3669 77.1584 67.9041 77.6063C66.5109 77.8598 65.0702 77.8588 63.6876 77.3644C62.3135 76.8732 61.562 75.8517 61.5493 74.4025C61.5387 73.2067 61.5609 72.0099 61.5377 70.8141C61.5303 70.4359 61.6486 70.3345 62.0207 70.3398C63.4519 70.361 64.8831 70.3483 66.3143 70.3483Z" fill="white"/>
<path d="M58.7281 33.6429C58.6774 32.5718 58.9554 31.6243 59.5409 30.7782C60.5715 29.2898 62.8283 29.1578 64.0513 30.4982C65.603 32.2 65.4994 35.3056 63.8388 36.9038C62.5619 38.1334 60.469 37.8661 59.4944 36.3704C58.9416 35.5232 58.6636 34.6169 58.7291 33.6429H58.7281Z" fill="#757474"/>
<path d="M32.1873 33.6207C32.0816 34.752 31.9115 35.8527 31.0754 36.7389C29.7858 38.1058 27.7352 38.0055 26.6771 36.4559C25.5767 34.8439 25.4457 33.12 26.2797 31.3506C26.8304 30.1823 27.751 29.5559 29.0765 29.5675C30.3978 29.5792 31.1303 30.4401 31.6747 31.4563C32.0203 32.1038 32.2413 32.8422 32.1873 33.6196V33.6207Z" fill="#757474"/>
</g>
<defs>
<clipPath id="clip0_153_2758">
<rect width="91" height="105" fill="white"/>
</clipPath>
</defs>
</svg>
