<svg width="164" height="198" viewBox="0 0 164 198" fill="none" xmlns="http://www.w3.org/2000/svg">
<g clip-path="url(#clip0_285_739)">
<path d="M119.986 58.0594C119.919 68.2404 117.439 77.8857 113.504 87.2068C111.764 91.3291 109.76 95.3425 108.421 99.6307C107.168 103.643 107.145 107.726 107.665 111.843C108.611 119.324 109.165 126.809 108.642 134.364C107.979 143.938 106.083 153.226 102.673 162.191C100.117 168.91 96.9641 175.333 92.4285 180.956C90.1253 183.812 87.536 186.435 84.0862 187.96C80.1188 189.714 76.5614 188.272 74.9416 184.259C73.6697 181.107 73.2812 177.743 72.7661 174.425C71.8853 168.749 71.2323 163.037 70.2579 157.373C68.9759 149.928 67.5471 142.517 65.3109 135.286C64.8009 133.638 64.2909 131.984 63.443 130.468C62.6964 129.133 61.765 127.958 60.0489 127.997C58.3949 128.035 57.4812 129.164 56.8256 130.509C55.2501 133.744 54.4338 137.238 53.5467 140.69C51.4522 148.848 50.0488 157.145 48.8579 165.475C48.1543 170.389 47.6177 175.327 46.5876 180.191C46.2636 181.72 45.8814 183.233 45.26 184.668C43.8781 187.863 40.6599 189.345 37.3189 188.327C33.8197 187.259 31.3026 184.816 29.0196 182.144C21.9859 173.91 17.8932 164.178 14.9483 153.901C13.2487 147.969 12.1781 141.918 11.6491 135.758C11.2112 130.655 11.1062 125.56 11.4884 120.464C11.7579 116.861 12.2565 113.274 12.621 109.678C13.1171 104.785 12.2768 100.102 10.3848 95.5793C8.32331 90.6554 5.88212 85.8935 4.11925 80.8416C1.14781 72.3336 -0.473319 63.5938 0.122741 54.5766C0.711208 45.6621 3.74213 37.7226 10.5241 31.5765C14.9154 27.5973 20.1078 25.3127 25.9887 24.5528C33.4553 23.5878 40.4156 25.3684 47.1722 28.3471C50.3247 29.7364 53.4669 31.1244 56.9547 31.55C62.0358 32.1705 66.865 31.4296 71.4399 29.145C75.8793 26.9287 80.4845 25.2126 85.4302 24.6262C98.8624 23.0343 112.009 28.9715 117.523 43.309C119.131 47.4908 119.973 52.4629 119.988 58.0594H119.986Z" fill="#7FA9BA"/>
<path d="M156.736 189.022C156.315 193.837 152.667 197.672 148.227 197.97C142.853 198.329 138.867 195.448 137.695 190.358C137.632 190.081 137.585 189.8 137.529 189.52C137.78 188.042 137.503 186.568 137.501 185.092C137.494 155.168 137.496 125.246 137.494 95.3221C137.494 94.1747 137.795 93.0311 137.543 91.8799C137.786 90.3234 138.49 88.9823 139.627 87.9273C140.136 87.4549 140.34 86.9483 140.383 86.3252C140.658 82.4284 140.956 78.5328 141.175 74.6321C141.297 72.4766 141.848 70.8112 144.317 70.2691C145.092 70.0994 144.916 69.4991 144.917 68.9913C144.922 62.8933 145.051 56.7915 144.879 50.6986C144.741 45.8025 147.074 42.354 150.569 39.3601C152.38 37.8087 154.111 36.1585 155.822 34.4943C161.466 29.0081 160.75 20.4253 154.123 16.1282C148.849 12.7088 143.381 9.59206 137.999 6.34107C136.767 5.59766 135.523 4.87325 134.307 4.10578C132.897 3.21673 132.539 2.07945 133.252 0.910514C133.845 -0.0621226 135.13 -0.319213 136.427 0.446992C141.346 3.35224 146.255 6.27521 151.128 9.25518C153.821 10.9016 156.701 12.2693 159.013 14.5046C165.839 21.1041 165.622 31.3143 158.556 37.6352C156.102 39.8299 153.748 42.1374 151.385 44.4322C149.995 45.7835 149.35 47.4654 149.357 49.4258C149.378 55.9354 149.374 62.445 149.353 68.9558C149.35 69.741 149.44 70.1666 150.379 70.3907C152.236 70.8353 152.908 72.3233 153.048 74.104C153.38 78.2845 153.725 82.4626 154.023 86.6457C154.063 87.2206 154.216 87.6246 154.634 88.0274C155.994 89.3407 156.689 90.9681 156.738 92.8652C156.559 93.3034 156.647 93.7619 156.647 94.2102C156.642 125.366 156.642 156.521 156.647 187.677C156.647 188.125 156.564 188.584 156.733 189.023L156.736 189.022Z" fill="#7EA8BA"/>
<path d="M137.544 91.8812C137.896 92.2712 137.738 92.7474 137.738 93.1831C137.746 124.863 137.747 156.545 137.738 188.225C137.738 188.659 137.905 189.139 137.53 189.52C137.122 182.026 137.354 174.526 137.343 167.029C137.306 143.665 137.33 120.302 137.327 96.9381C137.327 95.2487 137.351 93.5605 137.544 91.8799V91.8812Z" fill="#5992A8"/>
<path d="M156.736 189.022C156.36 188.593 156.535 188.073 156.535 187.6C156.525 156.453 156.525 125.305 156.532 94.1595C156.532 93.7264 156.368 93.2464 156.741 92.8652C156.751 101.887 156.77 110.91 156.771 119.932C156.776 142.262 156.774 164.592 156.771 186.922C156.771 187.623 156.747 188.322 156.735 189.022H156.736Z" fill="#518CA4"/>
<path d="M82.8168 184.041C90.0531 174.593 92.7436 163.456 94.7823 152.08C95.9909 145.335 96.411 138.524 96.1782 131.686C95.9441 124.769 94.7709 117.974 93.1941 111.242C92.3032 107.435 91.7008 103.581 91.735 99.6523C91.7767 94.9018 93.2966 90.5224 95.224 86.2798C97.1349 82.0751 98.1499 77.7375 97.7247 73.1137C97.1792 67.1842 93.2397 60.5771 86.2692 59.3233C82.7004 58.6812 79.3417 59.4943 76.1248 61.0799C73.5456 62.3514 71.0779 63.8319 68.4393 64.9919C62.6394 67.5413 56.8977 67.5514 51.2016 64.7184C48.7756 63.5127 46.4002 62.2045 43.9654 61.0165C40.3118 59.2359 36.4583 58.4026 32.4972 59.6336C26.8543 61.3876 23.9158 65.6391 22.8337 71.2128C21.9061 75.9898 22.7641 80.6099 24.708 85.0475C26.2418 88.548 27.6592 92.0814 28.3274 95.8833C28.8854 99.0596 28.5678 102.194 28.1046 105.323C27.239 111.169 25.6014 116.876 24.8624 122.742C24.1423 128.463 23.9221 134.197 24.2119 139.98C24.6093 147.9 25.8862 155.65 28.011 163.265C29.8042 169.692 31.9746 175.978 35.8243 181.532C36.3862 182.343 36.9747 183.137 37.7416 184.205C35.7066 183.212 34.2361 181.963 32.9123 180.547C27.3567 174.605 23.9145 167.442 21.1101 159.923C18.517 152.967 16.8225 145.782 15.986 138.417C15.1989 131.492 15.0875 124.543 15.8721 117.595C16.2543 114.208 16.677 110.816 16.8478 107.414C17.1009 102.392 15.7734 97.6639 13.7992 93.0794C11.3643 87.4259 8.70673 81.8649 6.95652 75.929C4.92663 69.0433 3.85979 62.0373 4.35081 54.8742C4.88739 47.0438 7.3501 39.9858 13.4448 34.6236C17.7691 30.8192 22.8578 28.8727 28.588 28.5662C34.703 28.2382 40.3473 30.0416 45.8561 32.4238C49.3299 33.9258 52.8291 35.3139 56.6231 35.7913C61.8826 36.4524 66.97 35.7913 71.7752 33.575C76.1526 31.5575 80.5655 29.7605 85.3631 28.9752C97.6323 26.9667 110.585 32.9342 114.481 47.5199C115.803 52.4642 115.949 57.4869 115.555 62.5692C114.797 72.345 111.587 81.3951 107.646 90.2552C105.794 94.4193 104.042 98.6366 103.507 103.227C103.127 106.477 103.282 109.731 103.681 112.959C104.651 120.774 105.16 128.582 104.407 136.463C103.323 147.784 100.518 158.603 95.4556 168.796C93.1992 173.34 90.5985 177.677 86.8513 181.203C85.6478 182.335 84.3317 183.304 82.8156 184.042L82.8168 184.041Z" fill="#FEFEFE"/>
<path d="M32.9592 165.803C31.3887 161.469 30.3915 156.985 29.5676 152.465C28.6147 147.239 28.1844 141.949 28.073 136.647C27.9123 129.044 29.0475 121.572 30.6167 114.16C31.5102 109.94 32.4631 105.73 32.6821 101.406C32.9896 95.3388 31.3267 89.6929 28.8906 84.2269C27.4377 80.9658 26.3241 77.6262 26.5519 73.9876C26.7594 70.6657 27.8452 67.6971 30.3586 65.4188C32.9744 63.048 36.0445 62.6757 39.3501 63.6204C41.99 64.3752 44.2932 65.8405 46.6749 67.1323C51.027 69.4917 55.5133 71.3433 60.6032 71.0786C64.6871 70.8671 68.5216 69.7779 72.1422 67.8732C74.5796 66.5915 76.9246 65.1338 79.4898 64.0941C86.9298 61.0799 92.1286 65.6974 93.4941 72.036C94.4496 76.4724 93.2435 80.5897 91.4465 84.5954C89.1002 89.8246 87.4993 95.2362 87.6208 101.03C87.7043 104.992 88.5662 108.852 89.3811 112.708C90.7504 119.185 91.8704 125.682 92.0995 132.328C92.4956 143.784 90.82 154.932 87.5069 165.868C87.4854 165.94 87.4082 165.994 87.3563 166.056C86.6818 165.974 86.7906 165.442 86.8438 165.039C87.3234 161.407 87.6588 157.76 87.8929 154.105C88.0106 152.258 88.1017 150.408 88.2067 148.56C88.3194 146.59 88.3447 144.611 88.3991 142.641C88.4852 139.481 88.2396 136.311 88.0928 133.148C87.9334 129.689 87.5854 126.248 86.9855 122.84C85.6858 115.47 83.2649 108.506 79.4025 102.065C77.9662 99.6688 76.2729 97.3942 75.511 94.6473C74.4531 90.8289 74.8087 87.3639 77.8181 84.3954C80.0631 82.1816 81.8867 79.6322 82.6524 76.4749C82.7587 76.0342 82.9017 75.6024 82.9485 75.149C83.0156 74.498 82.7966 73.994 82.1335 73.8091C81.459 73.6204 81.0401 74.0054 80.7389 74.5537C80.5782 74.845 80.5314 75.1768 80.444 75.4947C79.7531 78.0074 78.5926 80.2933 76.6791 82.0613C73.9317 84.6005 72.6383 87.7008 72.5877 91.39C72.5814 91.8358 72.6446 92.374 72.1916 92.6222C71.6575 92.9148 71.2614 92.4525 70.883 92.1688C67.7167 89.7955 64.1619 88.5253 60.2096 88.4999C56.4232 88.4746 53.0367 89.774 49.9184 91.8573C49.4236 92.1878 48.9301 92.8743 48.3163 92.5336C47.7316 92.2081 47.9645 91.4128 47.948 90.8099C47.8569 87.5906 46.8483 84.7728 44.4982 82.4767C42.4848 80.5086 41.1307 78.1277 40.36 75.4162C40.3372 75.3364 40.3195 75.2566 40.2929 75.1781C40.0259 74.4157 39.7221 73.5773 38.7072 73.8306C37.6644 74.0915 37.8175 74.9628 38.0112 75.7581C38.7186 78.6608 40.0714 81.2115 42.1456 83.3771C43.668 84.9678 44.9943 86.6661 45.4157 88.9331C46.0751 92.4804 45.0386 95.6491 43.1998 98.5695C40.7358 102.482 38.3769 106.433 36.7406 110.778C34.6525 116.324 33.4439 122.064 32.7681 127.946C32.0949 133.812 31.905 139.695 32.105 145.579C32.2682 150.343 32.4606 155.114 32.9643 159.865C33.1338 161.459 33.1794 163.066 33.4312 164.656C33.5034 165.113 33.4895 165.576 32.9579 165.804L32.9592 165.803Z" fill="#CFE4EE"/>
<path d="M83.1142 162.357C82.7928 161.912 82.9371 161.4 82.9257 160.918C82.6131 148.584 81.1451 136.414 77.384 124.62C75.5502 118.868 73.0989 113.383 68.6139 109.091C66.3119 106.888 63.648 105.373 60.4121 105.312C57.1571 105.251 54.4793 106.762 52.1406 108.91C48.4048 112.342 46.1547 116.733 44.3627 121.366C41.5166 128.72 39.9385 136.391 38.8641 144.188C37.7732 152.109 37.2455 160.055 37.429 168.047C37.4593 169.36 37.5353 170.674 37.5909 171.986C36.7519 171.349 36.7266 170.355 36.5671 169.463C35.78 165.082 35.3181 160.666 35.0384 156.221C34.7106 151.004 34.2715 145.787 34.3727 140.564C34.5296 132.489 34.9574 124.425 37.2265 116.592C39.5436 108.591 43.1251 101.316 49.2325 95.4705C55.4689 89.5017 64.4377 88.8798 71.2829 95.4578C77.3751 101.311 80.916 108.639 83.2319 116.623C84.7404 121.825 85.3783 127.176 85.7503 132.579C86.0882 137.481 86.068 142.388 85.8971 147.276C85.6643 153.933 85.3605 160.605 84.0798 167.176C84.009 167.538 83.9723 167.912 83.8001 168.247C83.7419 168.36 83.6495 168.44 83.2737 168.673C83.2383 166.236 83.2686 163.953 83.2813 161.671C83.3306 161.506 83.0219 161.682 83.1864 161.672C83.2231 161.669 83.2345 161.706 83.2408 161.778C83.2585 161.985 83.2636 162.187 83.1168 162.357H83.1142Z" fill="#CFE4EE"/>
<path d="M78.0079 180.964C77.3169 178.85 77.0992 176.653 76.7639 174.488C76.0159 169.663 75.3857 164.82 74.7036 159.986C73.7507 153.237 72.6016 146.525 70.7931 139.946C69.7162 136.029 68.7582 132.062 66.8232 128.445C65.6336 126.22 63.9353 124.52 61.3789 123.987C58.4606 123.379 56.2523 124.696 54.5312 126.897C52.4836 129.516 51.6876 132.709 50.7675 135.816C48.6567 142.947 47.1342 150.215 46.1092 157.576C45.1524 164.446 44.1767 171.313 43.0782 178.162C42.9289 179.092 42.7264 180.012 42.4999 181.19C41.9152 179.037 41.7988 177.062 41.6723 175.114C41.1977 167.794 41.1825 160.476 41.838 153.155C42.6049 144.591 43.8755 136.123 46.3344 127.87C47.7936 122.971 49.5843 118.202 52.7557 114.1C54.1009 112.36 55.6879 110.894 57.7456 109.979C60.8006 108.62 63.281 109.767 65.5336 111.735C68.9518 114.72 70.8754 118.684 72.4674 122.817C75.0035 129.4 76.3981 136.268 77.4574 143.222C78.7558 151.745 79.2835 160.315 79.1392 168.928C79.0722 172.958 78.7166 176.972 78.0066 180.965L78.0079 180.964Z" fill="#FEFEFE"/>
<path d="M83.1143 162.357C83.1384 161.873 83.1611 161.388 83.1852 160.904C83.2447 160.904 83.3054 160.906 83.3649 160.907V168.262C84.228 164.825 84.5456 161.34 84.8936 157.848C85.6504 150.265 85.7997 142.661 85.5555 135.065C85.2847 126.635 84.0875 118.31 80.7668 110.47C78.3825 104.843 75.3402 99.5902 70.7439 95.4109C64.9921 90.1817 57.4825 89.5384 51.1802 94.3015C47.3583 97.1903 44.5868 101.01 42.2443 105.163C38.7059 111.435 36.857 118.256 35.7396 125.295C35.2523 128.364 34.9309 131.474 34.9524 134.592C34.9739 137.679 34.531 140.749 34.6955 143.836C34.9537 148.67 35.0942 153.512 35.4776 158.336C35.7813 162.163 36.2508 165.984 36.938 169.768C37.0747 170.522 37.3696 171.247 37.591 171.986C37.6644 173.954 37.8429 175.913 38.034 177.895C35.9547 174.027 34.0931 170.071 32.9605 165.803C33.5198 165.047 32.9909 164.277 32.9339 163.535C32.6707 160.104 32.4112 156.674 32.167 153.242C31.7962 148.027 31.6089 142.813 31.757 137.597C32.0075 128.762 33.0086 120.033 36.0446 111.647C37.7771 106.861 40.322 102.517 43.0062 98.2199C45.0968 94.8727 46.0827 91.2544 44.5995 87.3208C44.0907 85.972 43.1543 84.9234 42.1899 83.9369C39.855 81.5496 38.3276 78.7621 37.6151 75.5086C37.3556 74.3245 37.6606 73.6102 38.587 73.3594C39.4184 73.134 40.3524 73.7026 40.5574 74.7665C40.8105 76.0836 41.3534 77.2588 41.9419 78.4354C42.6088 79.7715 43.4428 80.9936 44.5261 82.0106C47.1799 84.5017 48.3201 87.5918 48.2847 91.1759C48.2809 91.5761 48.2847 91.9763 48.2847 92.5196C49.5477 91.894 50.4652 91.0024 51.5889 90.4198C58.5366 86.818 65.0958 87.526 71.3488 92.0713C71.5702 92.2321 71.7322 92.6057 72.0486 92.4664C72.4321 92.2967 72.2549 91.8813 72.2536 91.5786C72.2308 87.7666 73.5166 84.5561 76.3438 81.9156C78.3623 80.0311 79.662 77.6666 80.1922 74.9134C80.4048 73.8103 81.3097 73.1315 82.1791 73.348C83.2092 73.6051 83.5079 74.308 83.251 75.5719C82.5562 78.9888 80.9857 82.0486 78.3813 84.2319C74.791 87.241 74.6315 92.7514 76.6399 96.6495C78.4268 100.118 80.7301 103.297 82.3626 106.858C84.7329 112.031 86.4224 117.403 87.3487 123.022C88.1916 128.131 88.3751 133.28 88.6586 138.44C88.8547 141.99 88.6092 145.506 88.4928 149.02C88.3143 154.369 88.0245 159.735 87.1399 165.038C87.0792 165.4 86.9919 165.78 87.3576 166.056C86.2882 170.168 84.4849 173.973 82.498 177.711C83.0612 172.599 83.1713 167.481 83.1181 162.357H83.1143Z" fill="#FEFEFE"/>
<path d="M141.49 92.6272C141.946 90.744 142.946 89.9195 144.853 89.8917C146.204 89.8727 147.558 89.9347 148.909 89.8765C150.806 89.7929 152.151 90.4958 152.794 92.3473C153.06 92.7209 152.933 93.1465 152.933 93.5467C152.939 125.056 152.939 156.567 152.933 188.076C152.933 188.478 153.052 188.902 152.804 189.28C152.276 190.658 151.722 191.992 150.426 192.891C146.692 195.484 141.96 193.312 141.495 188.762C141.655 188.322 141.576 187.863 141.576 187.415C141.58 156.268 141.58 125.121 141.576 93.9735C141.576 93.5251 141.659 93.0667 141.493 92.6272H141.49Z" fill="#C7DFEA"/>
<path d="M147.028 85.8756C144.621 85.8807 144.581 85.8794 144.688 83.4592C144.812 80.6667 145.03 77.8792 145.183 75.088C145.234 74.1559 145.561 73.7354 146.602 73.7709C148.644 73.8431 148.718 73.7709 148.905 75.706C149.21 78.8531 149.392 82.0129 149.676 85.1626C149.73 85.7743 149.492 85.8794 149.005 85.8744C148.346 85.868 147.687 85.8731 147.028 85.8744V85.8756Z" fill="#C7DFEA"/>
<path d="M152.803 189.28C152.81 172.877 152.82 156.476 152.824 140.072C152.828 124.741 152.824 109.41 152.822 94.0786C152.822 93.5024 152.804 92.9249 152.794 92.3486C153.237 92.6944 153.06 93.1858 153.06 93.6138C153.067 125.178 153.066 156.741 153.063 188.305C153.063 188.628 153.033 188.951 153.01 189.274C153.009 189.294 152.951 189.325 152.919 189.325C152.881 189.325 152.843 189.297 152.805 189.282L152.803 189.28Z" fill="#6093A8"/>
<path d="M141.49 92.6272C141.853 93.0122 141.69 93.4909 141.69 93.9253C141.698 125.104 141.696 156.284 141.688 187.463C141.688 187.897 141.85 188.375 141.493 188.762C141.48 177.106 141.46 165.45 141.456 153.793C141.45 133.857 141.453 113.921 141.456 93.9848C141.456 93.5327 141.477 93.0793 141.49 92.6272Z" fill="#E5F5FB"/>
<path d="M36.6127 42.088C41.8874 41.9601 46.2104 43.7559 50.522 45.6088C53.7959 47.0145 57.1723 47.9682 60.7841 47.8061C64.0694 47.6579 67.1598 46.7321 70.1427 45.4112C73.2622 44.0295 76.4019 42.6984 79.815 42.2463C82.0639 41.9487 84.3291 41.917 86.5653 42.3869C87.5043 42.5845 88.1738 43.186 88.0422 44.2055C87.9156 45.1782 87.2664 45.6923 86.2186 45.6366C80.9072 45.3555 76.0096 46.8499 71.2513 49.0573C63.4886 52.6578 55.7347 52.3248 48.0366 48.799C43.5376 46.7384 38.8755 45.4087 33.8703 45.6493C32.8073 45.6999 32.1707 45.1706 32.0619 44.2043C31.9518 43.2316 32.5327 42.6187 33.5033 42.3527C34.6777 42.031 35.8736 42.1437 36.6127 42.088Z" fill="#7EA9BA"/>
</g>
<defs>
<clipPath id="clip0_285_739">
<rect width="164" height="198" fill="white"/>
</clipPath>
</defs>
</svg>
