<svg width="170" height="179" viewBox="0 0 170 179" fill="none" xmlns="http://www.w3.org/2000/svg">
<g clip-path="url(#clip0_285_723)">
<path d="M148.328 0.0314941H151.564C151.666 0.415075 151.327 0.531159 151.158 0.716641C140.347 12.5887 129.378 24.3107 118.274 35.909C115.36 38.9511 112.455 42.0021 109.528 45.0304C109.099 45.4745 108.942 45.7874 109.375 46.3628C109.845 46.9861 110.196 47.7142 110.498 48.4397C110.73 48.9987 110.912 49.0201 111.428 48.7261C118.159 44.8941 124.919 41.1151 131.645 37.2767C144.108 30.1628 156.602 23.1057 169.151 16.1432C169.417 15.9955 169.636 15.7154 169.999 15.7949V18.6453C169.818 18.9948 169.537 19.2232 169.192 19.415C161.19 23.8602 153.226 28.3724 145.257 32.8769C135.385 38.4578 125.56 44.1194 115.66 49.651C114.665 50.2075 113.685 50.7929 112.648 51.2737C112.223 51.4705 111.884 51.7203 111.975 52.2793C112.493 55.4249 111.98 58.5176 111.485 61.6102C111.46 61.7641 111.422 61.9193 111.491 62.236C112.643 61.6114 113.84 61.1673 114.969 60.5679C118.775 58.5478 122.63 56.6249 126.531 54.794C126.76 54.6868 126.993 54.5846 127.219 54.471C136.744 49.7128 146.287 44.995 155.782 40.1788C160.104 37.9859 164.433 35.8042 168.764 33.6289C169.144 33.4384 169.504 33.1066 169.996 33.2756V36.3153C159.454 41.5744 148.909 46.8259 138.37 52.0938C129.274 56.64 120.192 61.2102 111.091 65.7463C110.525 66.0289 110.251 66.3772 110.085 66.9765C108.821 71.5076 107.218 75.9175 105.415 80.2656C103.194 85.6219 99.6319 89.8804 95.0709 93.3604C91.6224 95.9912 87.987 98.3444 84.1963 100.455C83.4513 100.87 82.6874 101.244 81.8716 101.508C79.8816 102.149 78.3309 101.65 77.173 99.9216C76.9116 99.5317 76.7904 99.3639 76.3775 99.7626C75.3951 100.71 74.2864 101.519 73.1121 102.199C71.1334 103.345 69.7052 104.96 68.5296 106.893C66.4638 110.288 64.0305 113.399 60.9381 115.94C59.0251 117.512 57.035 118.971 54.5929 119.632C52.301 120.251 50.4524 118.882 50.335 116.52C50.287 115.553 50.5168 114.644 50.8716 113.755C51.5649 112.021 52.4993 110.404 53.315 108.731C54.4527 106.4 55.5109 104.034 55.7458 101.408C55.9528 99.0889 55.2785 98.6169 53.1559 99.538C51.479 100.266 50.0698 101.376 48.7427 102.613C46.5632 104.641 44.7777 107.058 42.4644 108.953C41.828 109.476 41.1776 109.969 40.3985 110.278C38.7292 110.939 37.3781 110.407 36.6823 108.753C36.1558 107.5 36.1053 106.179 36.2075 104.84C36.5422 100.469 38.2923 96.6183 40.5564 92.9541C41.4542 91.4992 42.3836 90.0545 43.5074 88.7713C45.2815 86.7461 46.3069 84.4093 47.0014 81.829C47.8815 78.5559 49.1505 75.4216 51.306 72.6432C49.9119 71.582 49.2036 70.184 49.4106 68.3796C49.4649 67.9014 49.5723 67.4459 49.7566 67.0093C52.2278 61.1534 55.3733 55.705 59.5238 50.8598C63.4168 46.3136 68.4715 43.7333 74.1412 42.2015C80.8034 40.4009 87.5628 39.1265 94.4674 38.7631C95.3942 38.7139 95.744 38.1865 96.22 37.5897C99.3781 33.634 102.537 29.6783 105.75 25.7668C111.894 18.2832 118.074 10.8286 124.241 3.3626C124.503 3.04589 124.782 2.7418 125.043 2.42383C126.421 0.746503 128.212 -0.0450539 130.415 0.0491591C130.494 0.64472 130.007 0.948809 129.705 1.30968C123.519 8.67595 117.407 16.1028 111.301 23.5359C107.343 28.3547 103.472 33.2416 99.5221 38.0666C99.3832 38.237 99.2468 38.4111 99.1256 38.6268C102.011 39.2893 104.573 40.5031 106.61 42.6708C106.99 43.0759 107.278 43.115 107.701 42.686C110.539 39.7978 113.354 36.8856 116.103 33.9128C117.478 32.4264 118.915 30.9981 120.319 29.5408C123.283 26.4645 126.214 23.3568 129.142 20.2477C133.001 16.1507 136.841 12.0336 140.655 7.89239C142.863 5.49753 145.035 3.06608 147.345 0.765851C147.641 0.471856 147.955 0.218238 148.327 0.0314941H148.328Z" fill="#528FA4"/>
<path d="M170 33.2732C150.43 43.1681 130.811 52.9658 111.06 62.7156C111.421 60.5087 111.754 58.3953 111.904 56.254C111.998 54.9127 111.916 53.598 111.706 52.2895C111.621 51.7621 111.702 51.5085 112.186 51.2448C124.892 44.3277 137.366 37.003 149.972 29.9093C156.427 26.2766 162.89 22.6604 169.35 19.034C169.571 18.9104 169.784 18.7728 170 18.6416V33.2719V33.2732Z" fill="#B2DBEA"/>
<path d="M12.7637 178.967C7.45264 178.598 1.14531 175.052 0.164169 167.941C0.0871424 167.38 -0.0732243 166.828 0.0404214 166.254C0.0909306 166.135 0.106083 166.011 0.106083 165.884C0.106083 160.187 0.106083 154.49 0.106083 148.793C0.106083 148.664 0.0896678 148.542 0.0366332 148.425C0.0606251 146.215 1.0746 144.422 2.47244 142.82C4.97264 139.953 8.23175 138.714 11.9543 138.526C12.4505 138.501 12.9506 138.522 13.5554 138.522C12.8369 136.45 12.2308 134.468 11.8772 132.418C11.3179 129.184 11.131 125.953 11.9454 122.727C13.289 117.399 17.2388 114.98 22.5953 116.191C24.2331 116.561 25.8291 117.069 27.3911 117.661C28.8862 118.229 30.3156 118.214 31.8157 117.694C33.8121 117.002 35.8173 116.346 37.9274 116.032C42.0906 115.411 45.6388 117.467 47.0354 121.446C48.2072 124.784 48.1504 128.215 47.6554 131.657C47.3536 133.755 46.7703 135.787 46.0707 137.786C45.9305 138.188 45.8459 138.498 46.4773 138.489C48.5305 138.459 50.566 138.727 52.7051 138.984C52.402 138.001 52.1166 137.111 51.8553 136.216C51.5825 135.277 51.8212 134.645 52.5131 134.405C53.2329 134.155 53.8933 134.486 54.2001 135.364C55.3518 138.667 56.5034 141.911 56.3493 145.56C56.1435 150.427 56.963 155.194 59.1778 159.625C59.6463 160.562 60.207 161.445 60.9507 162.193C61.3068 162.551 61.7046 162.94 62.269 162.77C62.8259 162.603 62.9925 162.073 63.091 161.579C63.4837 159.62 63.4812 157.619 63.6971 155.641C64.0065 152.812 64.3841 149.997 65.5874 147.375C65.8236 146.861 66.09 146.349 66.4246 145.896C67.9235 143.867 70.4755 143.765 72.1082 145.686C73.3696 147.172 73.9 149.001 74.3659 150.843C74.9796 153.275 75.1854 155.762 75.3193 158.256C75.3812 159.393 75.4456 160.531 75.6969 161.644C75.9873 162.938 76.7702 163.172 77.7172 162.239C78.9105 161.061 79.6378 159.588 80.2616 158.056C81.6127 154.737 82.1178 151.248 82.3224 147.704C82.3792 146.726 82.3792 145.739 82.3388 144.76C82.2391 142.357 82.6545 140.083 83.5624 137.831C84.9678 134.347 85.6838 130.693 85.5512 126.911C85.4982 125.389 85.2734 123.896 84.6294 122.489C83.3414 119.67 81.0849 118.548 78.062 119.248C76.0214 119.722 74.1298 120.612 72.1827 121.347C71.5943 121.569 70.9894 121.767 70.377 121.901C69.7772 122.032 69.2948 121.743 69.0852 121.184C68.8844 120.648 68.9766 120.103 69.483 119.74C69.762 119.541 70.084 119.393 70.3997 119.252C72.9075 118.13 75.4292 117.055 78.1718 116.607C82.2668 115.94 85.6674 117.882 87.1119 121.782C88.0653 124.355 88.2004 127.023 87.9744 129.727C87.8431 131.302 87.6385 132.868 87.2875 134.411C86.9389 135.948 86.473 137.451 85.9048 139.024C87.1296 138.911 88.2774 138.839 89.4151 138.69C90.7713 138.512 92.1325 138.503 93.4925 138.504C94.0443 138.504 94.2097 138.41 94.0115 137.808C93.0518 134.887 92.3952 131.895 92.3308 128.81C92.2601 125.427 92.4987 122.091 94.6378 119.241C96.0584 117.348 98.0547 116.472 100.355 116.297C103.067 116.09 105.658 116.697 108.078 117.862C109.741 118.662 111.31 118.672 113.017 118.103C115.016 117.436 116.981 116.638 119.121 116.446C123.482 116.057 126.725 118.154 127.971 122.349C129.291 126.789 128.886 131.223 127.705 135.625C127.454 136.564 127.163 137.492 126.868 138.507C129.343 138.416 131.698 138.793 133.894 139.856C136.871 141.297 139.221 143.358 140.26 146.632C140.306 146.777 140.296 146.939 140.311 147.095C140.206 147.304 140.24 147.529 140.24 147.748C140.239 154.08 140.239 160.41 140.24 166.742C140.24 166.961 140.205 167.186 140.309 167.395C139.936 171.929 137.663 175.217 133.661 177.292C131.475 178.425 129.104 178.955 126.63 178.97C126.292 178.841 125.94 178.904 125.595 178.904C88.3292 178.9 51.0648 178.9 13.7991 178.904C13.4531 178.904 13.1021 178.845 12.7624 178.966L12.7637 178.967Z" fill="#5390A4"/>
<path d="M148.328 0.0315352C141.227 7.61105 134.151 15.2133 127.02 22.765C120.607 29.5572 114.136 36.2951 107.687 43.0545C107.476 43.2765 107.329 43.7018 106.898 43.2362C104.697 40.8653 101.978 39.4067 98.6595 38.7846C99.8149 37.355 100.905 36.0213 101.978 34.6763C108.889 26.0192 115.968 17.4996 123.006 8.94602C125.458 5.96569 127.944 3.01438 130.413 0.0492001C136.385 0.0428912 142.355 0.0365823 148.326 0.0302734L148.328 0.0315352Z" fill="#B2DBEA"/>
<path d="M12.7637 178.967C13.0655 178.702 13.4304 178.817 13.7663 178.817C51.0547 178.811 88.3431 178.811 125.631 178.817C125.966 178.817 126.334 178.697 126.632 178.972C119.82 178.982 113.008 179 106.197 179C75.5276 179.002 44.8572 179 14.188 178.997C13.7132 178.997 13.2385 178.977 12.7637 178.967Z" fill="#29758E"/>
<path d="M140.311 167.397C140.049 167.133 140.154 166.799 140.154 166.495C140.148 160.328 140.147 154.162 140.154 147.997C140.154 147.694 140.047 147.358 140.312 147.096C140.331 150.004 140.368 152.914 140.366 155.822C140.364 159.681 140.331 163.538 140.312 167.397H140.311Z" fill="#1E6F89"/>
<path d="M0.0354004 148.425C0.281633 148.654 0.194504 148.956 0.195767 149.23C0.199555 154.635 0.199555 160.041 0.194504 165.446C0.194504 165.721 0.277844 166.021 0.0404513 166.255C0.0391886 160.312 0.0379258 154.368 0.0366631 148.425H0.0354004Z" fill="#28778F"/>
<path d="M81.9511 86.8093C81.9195 88.3272 81.0179 90.182 79.8158 91.922C77.5606 95.1875 74.8217 97.9684 71.4629 100.102C69.3036 101.474 67.6898 103.316 66.3614 105.487C64.0671 109.239 61.3118 112.604 57.6827 115.174C56.6195 115.927 55.483 116.547 54.262 116.999C53.2126 117.386 52.7757 117.025 52.8755 115.898C52.9361 115.225 53.2404 114.628 53.5359 114.037C54.9741 111.159 56.5728 108.357 57.5173 105.254C58.0615 103.466 58.5704 101.676 58.2585 99.7753C57.8102 97.0347 56.1409 95.9458 53.4298 96.6524C50.9359 97.3022 48.913 98.7709 47.1136 100.527C45.1905 102.405 43.381 104.4 41.5021 106.324C41.0627 106.774 40.5588 107.169 40.0525 107.544C39.2999 108.102 38.9716 107.957 38.8049 107.029C38.493 105.302 38.8604 103.634 39.2936 101.981C40.4376 97.6164 42.737 93.8412 45.5479 90.399C47.4786 88.0344 48.6769 85.4137 49.4712 82.5104C50.5091 78.7187 52.1785 75.2223 54.9817 72.3833C56.5551 70.7909 58.232 69.326 60.7322 69.6049C63.4407 69.9077 65.3929 71.3638 66.9196 73.5429C68.0409 75.1428 69.0372 76.8412 70.5613 78.137C72.002 79.3622 73.6638 80.036 75.4897 80.4133C76.664 80.6555 77.8068 81.0152 78.918 81.4808C80.9977 82.3539 81.9801 83.921 81.9498 86.8093H81.9511Z" fill="#FEFEFE"/>
<path d="M109.162 55.2774C109.039 58.8319 108.325 62.2917 107.461 65.73C106.351 70.15 104.986 74.483 103.267 78.7099C101.184 83.8403 97.8313 87.9474 93.4433 91.2621C89.9026 93.9371 86.2533 96.4455 82.2921 98.4694C81.8439 98.6991 81.3653 98.8719 80.8993 99.0663C80.2137 99.3514 79.7237 99.0196 79.3437 98.506C78.9674 97.9988 78.9446 97.4613 79.3651 96.9364C80.6506 95.3276 82.0118 93.7844 83.44 92.3031C85.5714 90.0925 87.6752 87.8579 89.717 85.5602C92.2639 82.6934 93.7135 79.3749 94.2754 75.6224C94.7389 72.526 95.047 69.4144 95.2553 66.2928C95.3424 64.9856 95.1833 64.8341 93.9332 64.5704C89.8976 63.7175 86.8758 60.3788 86.1523 55.979C86.0803 55.5437 86.002 55.1058 85.8808 54.6819C85.7129 54.0939 85.2924 53.7633 84.6787 53.8163C80.7112 54.1595 76.7147 54.1986 72.7888 54.9822C68.8163 55.7746 65.6228 57.9373 62.807 60.7119C60.3712 63.1131 58.0149 65.5925 55.6195 68.034C55.0866 68.5766 54.5588 69.1267 53.9868 69.6251C53.6383 69.9292 53.3441 70.5992 52.8099 70.3279C52.1053 69.9709 51.8932 69.2201 52.0359 68.4454C52.1091 68.0479 52.2846 67.6631 52.4538 67.2896C54.5512 62.6614 57.0982 58.2969 60.1615 54.239C63.8828 49.3117 68.9249 46.3856 74.7701 44.7113C80.6228 43.0344 86.6044 42.0489 92.6516 41.4281C94.5356 41.2351 96.4145 40.9335 98.3124 41.3373C102.329 42.1915 105.153 44.6431 107.22 48.0474C108.558 50.2517 109.278 52.6605 109.162 55.2787V55.2774Z" fill="#B3DCEA"/>
<path d="M60.3913 66.8857C62.8751 64.3508 65.1492 61.8865 67.8679 59.8929C70.4615 57.9901 73.4732 57.3441 76.5833 57.0488C78.6933 56.8482 80.8159 56.7851 82.9234 56.5719C83.5346 56.5101 83.6924 56.7044 83.7884 57.2078C84.4463 60.6563 86.4313 63.2316 89.1689 65.2984C90.0578 65.9696 91.0377 66.4706 92.1148 66.7835C92.3699 66.8579 92.7197 66.8314 92.6717 67.3538C92.2967 71.442 91.9873 75.539 90.6248 79.4568C89.78 81.887 87.9049 83.6131 86.358 85.5588C85.8113 86.2465 85.1875 86.871 84.4602 87.6786C84.4816 86.4698 84.5688 85.4389 84.3882 84.432C83.9753 82.1267 82.6683 80.4852 80.6 79.4038C79.014 78.5748 77.3106 78.1054 75.5819 77.7408C73.6499 77.3332 72.1662 76.2834 70.9969 74.7554C70.3441 73.9025 69.7557 73.0003 69.1622 72.1044C67.1178 69.0194 64.3259 67.1671 60.39 66.8844L60.3913 66.8857Z" fill="#FEFEFE"/>
<path d="M69.4488 176.527C51.0685 176.527 32.6882 176.52 14.3079 176.532C11.0135 176.534 8.06375 175.671 5.62415 173.361C3.58232 171.428 2.55067 169.029 2.52415 166.255C2.46985 160.524 2.43955 154.791 2.5191 149.062C2.56077 146.045 4.38415 144.055 6.86163 142.599C8.94639 141.374 11.2547 141.076 13.6248 141.03C14.2991 141.018 14.438 141.381 14.4431 141.91C14.4569 143.271 14.4443 144.633 14.4696 145.994C14.5504 150.347 15.0643 154.635 16.567 158.751C17.2867 160.722 18.2123 162.59 19.7718 164.069C21.806 165.999 24.2027 165.445 25.1371 162.792C25.8682 160.717 25.9326 158.516 26.2382 156.362C26.5627 154.078 26.886 151.795 27.5451 149.578C27.7244 148.973 27.9341 148.369 28.2131 147.806C28.5061 147.213 28.8571 146.56 29.6261 146.543C30.4292 146.525 30.8484 147.142 31.1654 147.781C32.3208 150.111 32.6567 152.659 33.0923 155.179C33.48 157.42 33.5279 159.707 34.0217 161.932C34.1038 162.3 34.2098 162.669 34.3525 163.018C35.3539 165.474 37.6318 165.995 39.6004 164.224C41.1283 162.85 42.0122 161.059 42.7623 159.206C44.0919 155.922 44.5592 152.455 44.9077 148.951C45.1501 146.517 44.8092 144.088 45.0365 141.66C45.0819 141.172 45.2284 140.998 45.7171 141.022C48.0569 141.134 50.3892 141.308 52.7101 141.635C53.5447 141.752 53.8604 142.174 53.8339 143.05C53.7089 147.204 53.9488 151.334 54.9628 155.384C55.5727 157.82 56.4402 160.155 57.8064 162.281C58.3052 163.059 58.9126 163.744 59.5907 164.37C61.6641 166.282 64.1921 165.683 65.1555 163.012C65.8298 161.143 65.7642 159.151 65.9738 157.209C66.2453 154.695 66.4713 152.178 67.2807 149.761C67.5434 148.977 67.8666 148.225 68.3806 147.566C69.0814 146.669 69.7784 146.655 70.4388 147.577C71.3644 148.867 71.7192 150.385 72.0639 151.897C72.6562 154.494 72.8809 157.136 73.0438 159.788C73.1095 160.857 73.2357 161.923 73.5868 162.954C74.2535 164.917 76.5681 166.54 78.9483 164.5C80.4358 163.224 81.3993 161.611 82.1797 159.871C83.6583 156.574 84.3187 153.082 84.6432 149.502C84.8377 147.352 84.8251 145.201 84.796 143.052C84.7847 142.237 85.0801 141.949 85.8226 141.813C87.4743 141.51 89.1411 141.347 90.8104 141.205C91.9443 141.107 93.0871 141.106 94.2248 141.035C94.7931 141 95.0608 141.144 95.1315 141.79C95.3815 144.065 95.1125 146.346 95.2729 148.619C95.6012 153.257 96.3866 157.779 98.6936 161.909C99.2391 162.887 99.9387 163.742 100.785 164.472C102.52 165.971 104.52 165.571 105.6 163.548C106.464 161.928 106.48 160.14 106.677 158.389C107.012 155.403 107.382 152.424 108.378 149.569C108.605 148.917 108.884 148.262 109.255 147.683C109.996 146.527 110.98 146.551 111.716 147.703C112.231 148.509 112.519 149.415 112.777 150.332C113.609 153.297 113.921 156.347 114.287 159.388C114.454 160.768 114.61 162.155 115.233 163.427C116.243 165.491 118.255 165.92 120.014 164.455C121.751 163.009 122.754 161.065 123.558 159.025C124.843 155.767 125.417 152.352 125.74 148.87C125.964 146.469 125.683 144.057 126.044 141.669C126.102 141.285 126.143 141.009 126.635 141.015C130.983 141.071 134.731 142.353 137.255 146.16C137.704 146.837 137.909 147.573 137.906 148.397C137.893 154.444 137.915 160.492 137.894 166.541C137.879 170.678 135.551 173.973 131.682 175.428C129.518 176.242 127.255 176.491 124.97 176.493C106.463 176.507 87.9554 176.5 69.4488 176.5V176.524V176.527Z" fill="#B3DBEA"/>
<path d="M17.0027 143.801C17.2363 142.071 16.6112 139.533 15.6957 136.995C14.5012 133.682 13.7764 130.25 13.9153 126.695C13.9961 124.625 14.3383 122.601 15.5417 120.839C16.9761 118.737 19.0243 118.042 21.8073 118.669C23.536 119.059 25.2104 119.628 26.862 120.258C28.6501 120.939 30.4116 120.929 32.235 120.354C33.9788 119.804 35.6885 119.139 37.4879 118.766C41.5021 117.935 44.1501 119.617 45.0491 123.628C45.8952 127.398 45.3976 131.096 44.4001 134.768C43.8963 136.624 43.0578 138.373 42.7156 140.282C42.506 141.449 42.5363 142.613 42.5603 143.781C42.6638 148.742 42.2307 153.631 40.4768 158.322C39.9881 159.627 39.3631 160.876 38.3781 161.897C37.45 162.858 36.6899 162.676 36.3653 161.383C35.8868 159.476 35.8438 157.506 35.5787 155.566C35.1885 152.72 34.797 149.871 33.6505 147.203C33.0671 145.848 32.3233 144.582 30.8245 144.045C29.3042 143.5 27.7826 144.118 26.6562 145.703C25.4162 147.448 24.9616 149.481 24.5209 151.525C23.8757 154.525 23.7343 157.596 23.1938 160.61C23.0701 161.298 23.0625 162.238 22.2442 162.413C21.3767 162.597 20.9638 161.727 20.5509 161.116C18.8172 158.545 18.0633 155.608 17.5381 152.614C17.0835 150.027 16.8334 147.413 17.0052 143.799L17.0027 143.801Z" fill="#FEFEFE"/>
<path d="M113.767 120.611C115.223 120.139 116.662 119.61 118.136 119.204C121.832 118.185 124.585 119.771 125.683 123.55C126.674 126.958 126.35 130.371 125.564 133.763C125.265 135.051 124.939 136.343 124.492 137.586C123.712 139.759 123.391 141.978 123.425 144.279C123.49 148.73 123.021 153.111 121.517 157.338C120.986 158.832 120.329 160.264 119.38 161.543C119.003 162.049 118.613 162.694 117.904 162.565C117.169 162.431 117.097 161.669 116.967 161.059C116.552 159.108 116.484 157.111 116.203 155.142C115.84 152.61 115.402 150.094 114.499 147.685C114.253 147.03 113.949 146.406 113.519 145.853C111.68 143.481 108.835 143.612 107.237 146.161C105.938 148.235 105.445 150.588 104.961 152.942C104.435 155.487 104.409 158.092 104.002 160.65C103.883 161.397 103.942 162.418 103.002 162.601C102.103 162.776 101.651 161.885 101.229 161.239C99.4815 158.57 98.6734 155.556 98.1506 152.458C97.6657 149.582 97.4928 146.673 97.6203 143.76C97.7175 141.536 97.2503 139.444 96.5205 137.366C95.211 133.635 94.4925 129.809 94.8966 125.827C95.0456 124.365 95.4017 122.965 96.1151 121.68C97.4359 119.299 99.9664 118.389 103.209 119.039C105.084 119.415 106.857 120.067 108.538 120.95C110.655 122.065 112.889 122.415 115.242 122.177C115.492 122.152 115.742 122.1 115.987 122.039C116.319 121.957 116.432 121.723 116.403 121.395C116.373 121.06 116.142 121.003 115.872 120.979C115.168 120.916 114.466 120.848 113.764 120.783C113.766 120.726 113.767 120.668 113.768 120.611H113.767Z" fill="#FEFEFE"/>
<path d="M96.2301 62.9515C91.6729 62.9099 88.3772 59.3819 88.4252 54.596C88.4669 50.417 92.0821 47.0846 96.518 47.1363C100.777 47.1855 104.279 50.8725 104.224 55.2534C104.171 59.5371 100.584 62.9919 96.2289 62.9515H96.2301Z" fill="#528FA3"/>
<path d="M96.1581 60.2701C93.3106 60.2373 91.0453 57.7579 91.0983 54.7321C91.145 52.0471 93.524 49.9109 96.4245 49.9487C99.229 49.9853 101.579 52.3613 101.54 55.1233C101.499 57.9535 99.0434 60.3042 96.1581 60.2701Z" fill="#B3DCEA"/>
</g>
<defs>
<clipPath id="clip0_285_723">
<rect width="170" height="179" fill="white"/>
</clipPath>
</defs>
</svg>
