<svg width="223" height="219" viewBox="0 0 223 219" fill="none" xmlns="http://www.w3.org/2000/svg">
<g clip-path="url(#clip0_285_811)">
<path d="M222.174 166.959C222.267 167.27 222.431 167.579 222.44 167.892C222.639 174.311 222.304 180.682 220.888 186.975C219.658 192.441 217.735 197.624 214.47 202.196C210.255 208.101 204.674 212.315 197.902 214.953C192.939 216.885 187.805 218.095 182.491 218.413C172.286 219.024 162.068 218.539 151.857 218.672C148.19 218.72 144.52 218.611 140.854 218.699C120.175 219.186 99.4913 218.97 78.813 218.828C67.2811 218.749 55.744 218.966 44.2196 218.61C35.6951 218.347 27.2794 217.089 19.5539 213.138C9.47178 207.982 3.3392 199.78 1.12449 188.67C0.900357 187.548 0.756002 186.409 0.488818 185.296C0.376119 184.827 0.550865 184.608 0.864901 184.38C1.32456 184.024 1.81841 184.233 2.28566 184.328C8.94501 185.697 15.7057 186.288 22.4638 186.836C24.4214 186.996 26.393 187.169 28.3684 187.155C33.4107 187.236 38.4518 187.169 43.4928 187.17C51.1335 186.839 58.7362 186.126 66.2731 184.79C73.4959 183.509 80.5732 181.694 87.4528 179.123C91.1238 177.751 94.5566 175.883 98.0655 174.175C101.316 172.493 104.377 170.488 107.53 168.638C110.579 166.85 113.619 165.061 117.123 164.245C120.523 163.453 123.795 163.872 127.035 165.031C128.194 165.445 128.561 166.446 129.053 167.385C129.706 169.006 129.943 170.702 130.082 172.434C130.4 176.401 130.388 180.393 131.056 184.328C131.866 190.275 133.16 196.082 136.059 201.419C137.881 204.774 140.219 207.667 143.687 209.434C147.357 211.303 150.85 210.409 153.255 207.082C154.454 205.423 155.197 203.555 155.714 201.59C156.971 196.809 157.694 191.909 158.953 187.127C159.47 185.165 160.136 183.264 161.205 181.534C162.137 180.025 163.257 178.62 165.216 178.627C167.25 178.633 168.362 180.096 169.201 181.715C170.464 184.151 171.042 186.816 171.629 189.471C172.615 193.931 173.154 198.489 174.524 202.866C175.17 204.927 176.009 206.89 177.662 208.381C179.522 210.058 181.67 210.723 184.166 210.282C188.103 209.584 190.97 207.247 193.335 204.231C196.234 200.536 197.786 196.185 199.091 191.743C200.607 186.59 201.313 181.279 202.091 175.984C202.505 173.17 203.063 170.391 204.136 167.732C204.833 166.006 206.01 164.899 207.788 164.331C211.282 163.214 214.634 163.729 217.896 165.148C219.316 165.765 220.619 166.656 222.174 166.957V166.959Z" fill="#FECCC7"/>
<path d="M98.3137 174.416C90.9705 178.501 83.1601 181.364 75.0041 183.328C65.8248 185.538 56.5177 186.836 47.0916 187.316C45.9418 187.374 44.8021 187.604 43.6435 187.483C40.0295 187.279 36.4131 187.453 32.7966 187.41C31.3201 187.392 29.8386 187.299 28.3646 187.483C24.4556 187.47 20.5643 187.097 16.6807 186.736C11.6548 186.269 6.63658 185.678 1.69811 184.575C1.41953 184.513 1.14221 184.446 0.863631 184.381C0.555926 184.174 0.325464 183.905 0.214032 183.546C0.229227 179.69 0.396375 175.832 0.192505 171.976C0.283677 168.605 0.33686 165.232 0.473618 161.863C0.652163 157.466 0.853501 153.068 1.12322 148.675C1.74749 138.548 2.64022 128.463 6.06676 118.796C10.2885 106.889 17.9824 98.1677 29.6347 93.06C30.0361 92.8841 30.4248 92.6778 30.8908 92.4513C27.4972 88.2813 24.7671 83.7823 22.8145 78.824C22.3625 77.6761 21.9585 76.5156 21.7698 75.2994C21.6685 74.6451 21.3507 74.4541 20.7366 74.3667C14.6787 73.4998 10.2328 69.378 9.14634 63.2604C8.09533 57.3402 10.1049 51.1315 16.2805 48.1942C17.1834 47.7651 16.9238 47.1779 16.8757 46.5819C16.359 40.2896 16.9314 34.1037 18.8156 28.0759C22.6385 15.8458 31.0289 8.05257 42.8407 3.67381C48.0565 1.74007 53.4521 0.569447 59.0173 0.23661C60.4812 0.526418 61.9437 0.234079 63.4025 0.184723C65.8071 0.102463 68.2054 0.474531 70.6088 0.241673C81.2455 1.08452 91.415 3.38147 100.141 9.97619C104.445 13.2286 106.652 17.7846 107.704 22.9441C108.335 26.0384 108.72 29.1757 108.668 32.3484C108.515 35.2199 108.522 38.0914 108.664 40.9641C108.697 44.5836 108.322 48.1802 107.931 51.7668C107.198 58.4893 105.963 65.1283 104.249 71.6724C104.137 72.0976 103.951 72.5039 103.8 72.919C102.996 74.7021 102.656 76.6333 102.014 78.4696C101.039 81.2589 100.002 84.0165 98.6518 86.65C98.4859 86.974 98.2516 87.2777 98.263 87.6713C94.8517 93.7333 90.0044 98.2563 83.7084 101.228C82.3193 101.435 81.148 102.244 79.821 102.631C77.7025 103.25 75.5574 103.739 73.3832 104.107C73.1933 104.139 72.9666 104.076 72.8628 104.319C74.8546 106.829 76.749 109.413 78.3002 112.219C78.7902 113.105 79.2119 113.139 80.0856 112.752C83.1082 111.41 86.2701 110.61 89.6131 110.635C90.5704 110.642 91.5505 110.683 92.409 111.012C93.5955 111.466 94.3477 111.093 95.1974 110.304C99.428 106.384 103.46 102.266 107.485 98.1398C107.717 97.9019 107.958 97.6944 107.706 97.3362C108.129 97.0123 108.154 96.9629 108.81 97.2843C109.382 97.5653 109.59 97.4058 109.54 96.8389C109.47 96.0213 109.876 95.7239 110.623 95.7303C111.155 95.9302 111.501 96.3276 111.773 96.8047C112.01 97.7197 112.691 98.4069 113.032 99.2788C113.477 100.418 113.266 100.842 112.014 100.834C111.686 100.832 111.677 101.152 111.431 101.148C110.46 100.501 109.811 100.903 109.066 101.666C105.529 105.279 101.958 108.858 98.3352 112.383C97.5995 113.1 97.6451 113.528 98.3593 114.14C99.3014 114.947 100.051 115.933 100.717 116.975C100.969 117.37 101.37 117.763 101.032 118.311C100.217 118.416 100.198 117.539 99.7104 117.239C99.0443 118.492 98.7417 118.567 97.6185 117.694C97.2943 117.442 96.9233 117.27 96.5966 117.027C96.5042 116.955 96.4244 116.87 96.3535 116.776C96.0686 116.323 95.7887 115.857 95.5861 115.369C95.2746 114.615 94.8529 114.192 93.9602 114.132C93.0206 114.069 92.8484 113.644 93.2042 112.802C93.3068 112.558 93.6626 112.314 93.3385 112.057C93.0016 111.79 92.5027 111.696 92.1849 111.996C90.8059 113.292 89.5789 112.624 88.3658 111.761C87.9137 111.439 87.4351 111.46 86.9476 111.531C86.0523 111.661 85.1621 111.82 84.2694 111.967C84.9481 112.881 84.8126 113.559 83.8224 113.944C83.0513 114.244 82.2206 114.365 81.4013 114.367C80.6517 114.368 80.2287 114.017 80.658 113.22C80.0945 113.388 79.7121 113.626 79.94 114.429C80.1578 115.194 79.6424 115.703 78.9143 115.843C78.1774 115.985 77.6189 116.312 77.1884 116.917C76.9453 117.258 76.6148 117.548 76.1766 117.557C75.5638 117.57 75.1864 117.797 74.9952 118.409C74.861 118.84 74.4988 119.06 74.0214 118.972C73.6732 118.907 73.4238 118.691 73.2845 118.373C73.0806 117.911 73.3288 117.577 73.6555 117.298C74.3722 116.683 75.1206 116.11 76.0133 115.766C74.9724 116.089 74.2342 116.893 73.3478 117.458C72.9666 117.701 72.6247 118.215 72.0752 117.738C72.3284 116.579 73.4048 116.231 74.205 115.642C75.6828 114.554 75.7537 114.458 74.7458 112.91C73.1262 110.424 71.4218 108.002 69.549 105.695C68.7233 104.678 67.7002 104.752 66.6327 104.905C65.9591 105.002 65.9337 105.644 65.797 106.146C64.5573 110.719 62.5895 114.956 59.9455 118.887C59.4124 119.679 58.8021 120.396 58.1107 121.047C56.7786 122.301 55.4123 122.434 53.8497 121.464C53.0709 120.979 52.4302 120.331 51.8287 119.657C46.9472 114.183 42.1569 108.636 38.1251 102.484C37.2437 101.139 36.4941 99.718 35.6546 98.3487C35.5039 98.1031 35.362 97.8513 35.2038 97.6109C33.7273 95.3645 33.3221 95.2734 30.8794 96.425C26.526 98.4778 22.4714 100.977 19.0385 104.38C15.731 107.659 13.106 111.425 11.1698 115.669C7.6686 123.34 6.13007 131.47 5.39436 139.81C4.9651 144.686 4.65866 149.565 4.4092 154.452C4.1952 158.641 4.07111 162.833 3.89256 167.023C3.71402 171.213 3.60638 175.405 3.46329 179.596C3.40884 181.184 3.49748 181.21 5.055 181.493C10.0441 182.401 15.0814 182.894 20.1351 183.262C23.0488 183.475 25.9574 183.733 28.8838 183.742C29.8284 183.745 29.8626 183.808 29.9158 184.424C29.6385 184.401 29.3523 184.505 29.1522 184.414C33.6386 184.038 38.1922 184.155 42.5418 184.477C42.9078 184.472 42.766 184.331 42.7571 184.333C41.9821 184.489 41.2046 184.496 40.4284 184.325C40.6323 183.524 41.3211 183.709 41.8378 183.704C47.5943 183.65 53.3153 183.123 59.0211 182.428C60.6015 182.236 62.2198 182.198 63.7266 181.597C63.9482 181.393 64.0926 181.157 64.0875 180.843C64.0483 178.458 64.2078 176.073 63.9963 173.692C63.7722 171.336 64.1926 169.019 64.5054 166.704C65.3664 160.304 67.3203 154.273 70.7696 148.769C70.9153 148.536 71.1926 148.246 70.957 147.994C70.6582 147.676 70.3454 148.007 70.0884 148.167C66.4415 150.415 62.7921 152.664 59.0161 154.684C54.151 157.286 49.2961 159.946 43.7891 161.023C40.9729 161.574 38.1263 161.609 35.3051 161.227C30.9934 160.642 27.5757 158.267 24.5202 155.356C19.3994 150.479 15.4815 144.695 12.1208 138.514C11.7093 137.758 11.1964 137.049 10.9356 136.212C10.5696 135.042 10.8685 134.195 11.8359 133.685C12.6755 133.242 13.5694 133.52 14.2786 134.501C15.2004 135.774 15.7614 137.251 16.5629 138.597C19.6324 143.746 23.0589 148.611 27.4769 152.719C30.2248 155.274 33.2854 157.216 37.1298 157.523C40.7235 157.809 44.1817 157.121 47.531 155.831C52.7024 153.839 57.4776 151.073 62.2527 148.304C64.3902 147.066 66.5327 145.834 68.6132 144.499C68.9576 144.278 69.3122 144.043 69.7604 144.193C70.0238 144.421 69.8744 144.631 69.7174 144.824C69.5616 145.017 69.2058 145.118 69.725 145.382C70.4417 145.748 70.4619 146.377 70.0542 147.045C71.4408 146.337 71.9511 146.553 72.2486 148.091C72.4183 148.966 72.9021 148.925 73.4934 148.664C73.9049 148.483 74.281 148.223 74.7305 148.124C75.0509 148.053 75.3675 147.954 75.8829 147.969C74.9078 147.651 74.3215 147.098 73.8277 146.414C73.2845 145.661 73.3554 145.047 74.1569 144.555C74.6115 144.275 75.0484 143.951 75.5638 143.794C77.077 143.335 78.4179 142.541 79.7425 141.707C80.8543 141.007 81.0949 141.024 81.8255 142.145C82.2332 142.77 83.0702 143.15 83.0031 144.066C82.0977 144.347 81.7343 143.609 81.3696 143.082C80.872 142.362 80.4275 142.334 79.7602 142.821C78.5218 143.725 77.0858 144.246 75.6803 144.828C75.2826 144.993 74.709 145.103 74.6989 145.642C74.6875 146.296 75.2231 146.685 75.7588 146.874C77.7076 147.562 79.4639 147.109 81.0657 145.861C81.5963 145.448 81.9103 144.707 82.7347 144.723C83.0829 145.247 82.6714 145.563 82.3903 145.894C81.9888 146.364 81.5064 146.748 81.0138 147.122C80.6048 147.434 80.4465 147.736 81.11 147.977C82.5042 148.483 82.6752 149.278 81.5849 150.37C81.1569 150.798 80.9733 151.194 81.2468 151.921C82.0889 151.286 82.9132 150.033 83.8401 151.661C83.9528 156.293 84.3011 160.912 84.3973 165.545C84.4657 168.853 84.6531 172.17 84.824 175.481C84.8329 175.645 84.824 175.439 84.8456 175.602C84.8544 175.668 84.9203 175.662 85.0102 175.588C85.0469 176.696 85.58 176.699 86.4411 176.32C88.5431 175.393 90.6742 174.533 92.7927 173.646C93.4512 174.014 92.8889 174.201 92.6509 174.326C91.7316 174.81 90.811 175.301 89.9778 175.476C90.483 175.229 91.2795 175.186 91.9278 174.714C92.6205 174.21 93.0852 174.637 93.3967 175.244C93.7538 175.94 93.4499 176.329 92.9751 176.415C93.4828 176.208 94.2616 176.15 93.7994 174.872C93.4752 173.976 94.3806 173.361 95.1809 172.952C95.9483 172.56 96.5105 172.958 96.8119 173.57C97.1006 174.154 97.364 174.338 97.9667 174.068C98.144 173.989 98.3631 174.13 98.3111 174.414L98.3137 174.416Z" fill="#324D6E"/>
<path d="M98.3136 174.416C97.5893 173.937 97.2031 174.952 96.4699 174.795C97.3778 174.029 96.5054 173.514 96.1179 173.217C95.4746 172.723 94.9137 173.377 94.4603 173.799C93.6968 174.51 93.874 175.215 94.7452 175.829C93.9918 176.21 93.3409 176.556 92.6723 176.868C92.4507 176.972 92.119 177.297 91.962 176.858C91.8265 176.479 92.124 176.207 92.4913 176.192C93.755 176.14 93.3447 175.583 92.8965 174.975C92.6812 174.682 92.3849 174.595 92.1658 174.832C91.3567 175.707 90.1309 175.321 89.1521 175.734C90.3905 175.131 91.6277 174.528 92.8648 173.923C92.8939 173.909 92.9332 173.852 92.9256 173.838C92.8901 173.771 92.8408 173.71 92.7964 173.648C98.6378 170.748 103.987 166.988 109.735 163.93C113.313 162.028 117.123 160.779 121.252 160.823C122.933 160.841 124.551 161.256 126.33 161.719C124.524 157 123.024 152.349 122.342 147.476C122.489 145.876 122.132 144.307 122.026 142.724C121.751 138.647 122.051 134.633 122.988 130.66C123.062 130.35 123.255 130.048 123.083 129.711C124.986 122.562 129.312 117.242 135.521 113.381C137.335 112.253 138.243 112.644 138.959 114.65C139.692 116.707 139.635 118.701 138.329 120.517C136.8 122.645 134.263 123.265 132.013 121.951C131.171 121.46 130.84 121.673 130.344 122.298C127.695 125.625 126.259 129.47 125.551 133.603C123.862 143.472 125.993 152.823 129.935 161.767C132.16 166.818 132.988 171.974 133.255 177.397C133.617 184.75 134.649 192.018 137.877 198.776C139.167 201.477 140.9 203.857 143.212 205.784C145.406 207.614 147.557 207.991 149.418 206.859C150.618 206.128 151.39 205.022 151.945 203.755C153.259 200.764 153.752 197.554 154.426 194.393C155.314 190.233 155.957 186.009 157.645 182.058C158.326 180.462 159.161 178.961 160.407 177.723C163.429 174.718 167.618 174.915 170.327 178.217C172.226 180.532 173.018 183.337 173.762 186.157C174.997 190.837 175.536 195.662 176.723 200.352C177.166 202.106 177.691 203.829 178.747 205.331C180.053 207.189 182.052 207.909 184.257 207.385C187.558 206.602 189.812 204.421 191.589 201.729C194.658 197.08 196.223 191.83 197.472 186.459C198.589 181.654 198.912 176.722 199.909 171.901C200.502 169.035 201.534 166.323 202.775 163.686C205.209 158.515 207.199 153.2 208.171 147.542C208.191 147.426 208.282 147.324 208.34 147.216C209.29 143.169 209.376 139.065 209.118 134.944C209.077 134.289 209.132 133.595 208.809 132.974C208.259 130.548 207.852 128.084 206.841 125.782C204.666 120.827 201.191 117.184 196.122 115.142C195.975 115.083 195.846 114.983 195.708 114.902C194.048 114.038 192.224 113.74 190.407 113.611C187.581 113.41 184.732 113.263 181.97 114.179C178.399 115.063 174.94 116.316 171.417 117.357C166.682 118.756 162.085 117.972 157.528 116.483C154.57 115.516 151.587 114.674 148.485 114.259C146.859 114.041 145.29 114.338 143.697 114.427C142.922 114.47 142.271 114.286 141.947 113.572C141.651 112.92 141.587 112.218 142.194 111.643C144.186 110.631 146.286 111.081 148.354 111.213C152.404 111.472 156.186 112.904 160.058 113.936C162.808 114.669 165.587 115.059 168.435 114.751C168.458 114.749 168.492 114.72 168.494 114.7C168.498 114.66 168.484 114.619 168.478 114.578C171.964 113.896 175.245 112.482 178.703 111.7C179.3 111.969 179.838 111.598 180.367 111.476C185.708 110.252 191.001 110.203 196.245 111.966C196.489 112.048 196.726 112.047 196.967 111.96C204.426 114.81 208.944 120.281 211.086 127.845C211.396 128.941 211.559 130.077 211.791 131.195C211.614 132.635 212.016 134.036 212.104 135.459C212.404 140.372 211.801 145.195 210.853 149.992C210.772 150.4 210.644 150.779 210.793 151.186C210.083 154.677 208.863 158.001 207.426 161.347C208.595 161.17 209.679 160.954 210.774 160.85C214.782 160.473 218.358 161.915 221.824 163.645C223.299 164.382 223.363 165.736 222.179 166.959C221.178 167.259 220.357 166.854 219.509 166.368C216.355 164.56 213.018 163.72 209.337 164.286C206.699 164.691 205.006 165.988 204.155 168.532C203.159 171.508 202.628 174.573 202.196 177.664C201.107 185.446 199.778 193.164 196.221 200.293C194.658 203.426 192.59 206.165 189.746 208.261C188.309 209.32 186.72 210.089 184.984 210.497C180.887 211.457 177.46 209.843 175.435 205.999C173.724 202.751 173.215 199.154 172.486 195.621C171.682 191.725 171.1 187.778 169.805 183.995C169.404 182.823 168.895 181.701 168.183 180.69C166.643 178.498 164.39 178.331 162.548 180.266C161.211 181.669 160.493 183.419 159.907 185.225C158.445 189.727 157.758 194.409 156.704 199.007C156.163 201.369 155.601 203.726 154.459 205.888C151.752 211.009 146.787 212.191 142.036 208.882C139.161 206.879 137.088 204.195 135.491 201.136C132.777 195.936 131.487 190.315 130.754 184.543C130.861 182.782 130.491 181.055 130.325 179.317C130.026 176.184 130.238 173.016 129.611 169.912C129.427 169.001 129.313 168.062 128.726 167.285C127.548 164.59 124.926 164.72 122.668 164.343C118.583 163.661 114.84 164.948 111.336 166.905C107.212 169.209 103.163 171.649 99.0797 174.027C98.834 174.17 98.5732 174.29 98.3199 174.42L98.3136 174.416Z" fill="#365373"/>
<path d="M72.027 117.724C72.8513 117.848 73.2097 117.103 73.7782 116.761C74.6811 116.217 75.527 115.579 76.4564 114.94C76.6375 115.765 76.5894 116.294 75.6903 116.359C74.7431 116.427 74.2822 117.28 73.5946 117.763C73.1565 118.071 73.525 118.425 73.8301 118.648C74.205 118.923 74.6659 118.833 74.7178 118.415C74.8343 117.494 75.2256 117.458 76.1018 117.187C77.2947 116.819 78.2102 115.511 79.5828 115.118C79.6841 115.089 79.8095 114.673 79.7361 114.574C78.4685 112.848 80.3996 113.3 80.9327 112.812C81.0074 112.744 81.1518 112.753 81.2708 112.725C81.3772 113.068 81.0707 113.147 80.9428 113.323C80.8251 113.484 80.6022 113.621 80.6896 113.838C80.7947 114.097 81.0694 114.153 81.3202 114.119C82.0078 114.025 82.7017 113.948 83.3728 113.779C83.8616 113.657 84.4213 113.59 84.4808 112.839C84.5568 111.877 83.5944 112.714 83.4538 111.956C84.9974 111.503 86.6588 110.817 88.2556 111.308C88.952 111.522 89.7232 112.01 90.4956 112.343C91.1224 112.613 91.3871 112.391 91.5897 112.041C92.2507 110.9 93.2067 111.543 93.8588 111.804C94.4742 112.051 93.8031 112.538 93.5397 112.833C93.0991 113.326 93.0598 113.93 93.774 113.814C95.3125 113.563 95.6012 114.636 96.0697 115.59C96.266 115.992 96.4091 116.419 96.5775 116.836C96.1407 116.991 95.876 116.69 95.619 116.442C93.0459 113.946 89.9156 113.553 86.5815 114.132C82.9714 114.76 79.6892 116.226 76.6818 118.307C76.5894 118.383 76.4906 118.45 76.388 118.511C75.2382 119.162 74.2075 119.972 73.2641 120.897C73.1742 120.978 73.078 121.047 72.9792 121.114C71.7952 122.075 70.7366 123.166 69.7426 124.314C66.7415 127.78 67.0353 131.682 68.3218 135.685C68.5333 136.34 68.7625 137.013 69.1968 137.577C69.269 137.674 69.3323 137.779 69.3919 137.885C69.8566 138.938 70.6873 139.703 71.566 140.365C72.6247 141.162 73.815 141.462 75.161 140.93C76.9692 140.216 78.6585 139.308 80.2717 138.228C81.8127 137.197 82.4396 137.397 83.2171 139.065C83.3386 139.325 83.4614 139.586 83.5906 139.843C84.3377 141.326 85.0291 141.717 86.3878 141.429C87.6351 141.164 88.5975 140.004 88.5189 138.622C88.4759 137.873 88.4822 137.05 87.9719 136.388C87.4996 136.055 87.4097 135.492 87.1666 135.025C86.4372 133.627 85.6128 132.312 84.3377 131.331C83.9135 131.005 83.5374 130.614 83.2728 130.14C82.8258 129.344 82.8068 128.542 83.4462 127.853C84.0515 127.202 84.8303 127.145 85.604 127.526C87.0096 128.215 88.0492 129.343 88.9545 130.573C90.1069 132.14 91.0084 133.846 91.515 135.747C91.7872 136.768 92.1874 136.887 92.9484 136.168C94.0614 135.116 94.6414 133.782 94.3957 132.271C93.8221 128.741 92.376 125.692 89.2876 123.609C88.21 122.881 87.9706 121.959 88.481 121.076C89.0748 120.051 90.0815 119.731 91.2554 120.289C93.3131 121.269 94.6781 122.957 95.7544 124.898C96.2926 125.87 96.7637 126.879 97.2423 127.884C97.7184 128.882 98.3326 128.98 99.1164 128.16C100.031 127.203 100.071 126.021 99.8952 124.8C99.7533 123.818 99.2912 122.918 99.1569 121.933C99.2304 120.583 98.2136 119.739 97.6539 118.68C97.3246 118.057 96.5117 117.714 96.5965 116.855C96.984 116.869 97.3044 117.055 97.6019 117.271C99.1126 118.368 99.181 118.343 99.3899 116.523C100.292 116.786 100.184 118.063 101.131 118.237C101.21 118.314 101.274 118.401 101.326 118.497C101.686 118.966 101.619 119.688 102.233 120.008C102.82 120.569 103.082 120.044 103.382 119.665C105.577 116.898 107.684 114.063 109.842 111.267C111.246 109.446 112.671 107.64 114.034 105.787C114.961 104.528 114.977 104.475 113.774 103.547C113.088 103.02 112.511 102.373 111.812 101.862C111.55 101.669 111.298 101.434 111.387 101.043C111.473 100.729 111.255 100.022 112.008 100.573C112.326 100.806 112.606 100.719 112.873 100.441C113.172 100.129 113.08 99.8774 112.844 99.5864C112.338 98.9624 112.397 98.0032 111.588 97.5362C111.332 97.3881 111.571 97.0932 111.666 96.8768C112.234 96.6389 112.481 97.1299 112.788 97.4071C114.685 99.1105 116.591 100.805 118.578 102.403C120.651 104.071 121.917 104.093 123.966 102.416C125.368 101.268 126.577 99.9103 127.838 98.6119C128.597 97.8323 128.36 97.0452 127.805 96.2744C126.674 94.7026 125.333 93.3042 124.109 91.8096C123.065 90.5378 122.001 89.2836 120.972 87.9991C119.029 85.5705 116.651 85.3934 114.388 87.5169C113.397 88.4458 112.472 89.4418 111.498 90.3884C110.077 91.7679 109.529 93.3004 110.571 95.1544C110.688 95.362 110.817 95.5936 110.642 95.8429C110.16 96.0669 109.549 96.1681 109.904 96.9869C110.048 97.3198 109.837 97.7336 109.528 97.9437C109.131 98.2132 109.01 97.7615 108.777 97.5754C108.472 97.3324 108.136 97.0907 107.707 97.3362C107.384 96.9654 107.142 96.5491 107.013 96.072C106.863 95.0241 106.435 94.018 106.501 92.9398C106.606 91.1908 107.335 89.7228 108.541 88.4648C109.905 87.0436 111.418 85.7667 112.654 84.2227C115.715 81.655 120.088 81.6929 122.772 84.6011C125.528 87.5891 128.155 90.7213 130.592 93.975C132.594 96.649 132.698 99.4206 129.926 101.724C129.146 102.372 129.282 102.789 129.891 103.44C131.551 105.21 133.164 107.026 134.767 108.85C135.423 109.595 135.459 110.451 134.763 111.179C134.048 111.927 133.212 111.82 132.437 111.217C132.147 110.991 131.9 110.708 131.652 110.435C130.187 108.82 128.712 107.212 127.272 105.574C126.806 105.043 126.554 104.829 125.887 105.456C123.809 107.407 121.356 107.833 118.715 106.732C118.114 106.481 117.89 106.635 117.545 107.092C113.058 113.025 108.551 118.943 104.038 124.855C103.726 125.265 103.566 125.672 103.543 126.197C103.409 129.411 101.67 131.625 98.6048 132.417C98.1072 132.546 98.0717 132.75 98.0211 133.143C97.8248 134.694 97.5614 136.222 96.6332 137.554C95.6304 138.993 94.3274 139.958 92.6115 140.397C92.1025 140.528 91.4124 140.401 91.1604 141.102C90.2297 142.756 88.9811 144.024 87.0665 144.494C86.8171 144.556 86.6588 144.737 86.5271 144.965C85.8395 146.159 84.7822 147.029 83.8325 147.993C83.7451 148.058 83.6552 148.12 83.5653 148.179C82.7789 148.585 83.7919 148.937 83.602 149.328C83.4627 150.029 84.0173 150.768 83.4817 151.444C83.22 151.664 83.0292 151.491 82.9093 150.923C82.6029 151.191 82.3433 151.486 82.023 151.682C81.6621 151.904 81.5494 152.726 80.8909 152.252C80.5085 151.976 80.7744 150.294 81.2645 150.156C82.1344 149.91 81.4392 148.922 82.1015 148.644C81.7634 148.25 81.3797 148.255 80.8896 148.368C80.4515 148.469 80.3236 147.955 80.1603 147.664C79.9488 147.286 80.3971 147.214 80.5895 147.05C81.4113 146.358 82.494 145.901 82.7017 144.665C82.6599 144.415 82.7928 144.247 82.9613 144.094C82.3813 143.311 81.7824 142.54 81.2303 141.738C80.9605 141.347 80.6604 141.424 80.3971 141.633C78.642 143.02 76.5336 143.722 74.5481 144.655C73.587 145.106 73.5516 145.608 74.1556 146.434C74.7837 147.295 75.7068 147.573 76.6375 148.06C75.3889 148.194 74.2759 148.596 73.1768 149.147C72.7285 149.373 71.5812 149.381 72.0016 148.065C72.1422 147.626 71.7509 147.228 71.3913 146.936C71.0253 146.64 70.8075 147.01 70.5328 147.148C70.1542 147.338 69.7983 147.629 69.25 147.596C70.3846 145.985 70.3378 145.78 68.8423 145.361C68.9043 144.765 69.8173 144.862 69.792 144.197C69.8629 144.102 69.9465 144.021 70.0389 143.949C70.4365 143.647 70.2643 143.445 69.9541 143.19C64.499 138.729 63.5531 132.913 64.9257 126.407C64.9751 126.173 65.1346 125.951 64.9675 125.708C64.8852 125.634 64.8143 125.551 64.7446 125.465C64.5876 125.245 64.6129 125.006 64.6522 124.758C64.7775 123.956 64.3901 123.025 64.8978 122.358C65.493 121.576 66.4275 122.188 67.2101 122.131C67.3759 122.119 67.5013 121.991 67.6039 121.859C67.671 121.769 67.7457 121.684 67.8204 121.6C68.998 120.234 70.4935 119.203 71.7395 117.908C71.8244 117.83 71.9193 117.77 72.0244 117.725L72.027 117.724Z" fill="#355273"/>
<path d="M162.525 158.653C159.318 158.431 156.134 157.21 154.051 153.925C153.749 153.448 153.542 152.896 153.369 152.354C153.032 151.3 153.43 150.241 154.291 149.985C155.319 149.68 156.191 149.964 156.661 150.986C157.541 152.904 159.005 154.082 161.017 154.669C163.992 155.537 167.445 154.388 169.238 151.881C169.452 151.581 169.637 151.257 169.873 150.977C170.479 150.261 171.264 150.041 172.08 150.485C172.839 150.898 173.087 151.606 172.869 152.49C172.49 154.025 171.414 155.047 170.28 155.995C168.192 157.74 165.763 158.628 162.523 158.652L162.525 158.653Z" fill="#365374"/>
<path d="M179.422 148.013C176.526 147.993 174.497 144.685 175.578 141.678C176.168 140.039 177.234 138.807 179.065 138.59C180.894 138.375 182.274 139.227 183.127 140.802C184.13 142.654 184.057 144.522 182.769 146.235C181.947 147.33 180.856 148.022 179.422 148.013Z" fill="#375474"/>
<path d="M151.008 141.03C151.775 143.15 151.153 145.405 149.471 146.606C147.829 147.778 146.146 147.749 144.528 146.523C144.216 145.9 143.674 145.443 143.387 144.784C142.141 141.938 143.992 138.04 147.353 138.225C148.744 138.301 149.766 138.927 150.454 140.134C150.627 140.439 150.663 140.833 151.01 141.032L151.008 141.03Z" fill="#375474"/>
<path d="M141.782 122.205C143.178 122.19 144.079 123.028 144.077 124.339C144.074 125.602 143.081 126.726 141.944 126.752C140.668 126.783 139.58 125.653 139.587 124.301C139.593 123.039 140.451 122.219 141.782 122.205Z" fill="#355172"/>
<path d="M114.178 135.281C114.17 136.269 113.499 136.887 112.42 136.9C111.246 136.913 110.294 136.028 110.336 134.958C110.371 134.019 111.099 133.405 112.183 133.402C113.327 133.398 114.186 134.208 114.178 135.281Z" fill="#344F71"/>
<path d="M113.926 128.012C113.888 127.032 114.581 126.263 115.545 126.211C116.639 126.153 117.443 126.871 117.499 127.956C117.548 128.91 116.738 129.857 115.828 129.906C114.907 129.957 113.964 129.017 113.924 128.01L113.926 128.012Z" fill="#355172"/>
<path d="M144.011 128.965C143.998 127.902 144.881 126.98 145.922 126.968C146.784 126.958 147.434 127.713 147.425 128.715C147.415 129.732 146.65 130.521 145.656 130.538C144.682 130.555 144.024 129.925 144.012 128.963L144.011 128.965Z" fill="#324E6F"/>
<path d="M168.473 114.578C168.662 114.624 168.85 114.669 169.231 114.762C165.168 115.475 161.491 114.616 157.86 113.49C153.733 112.21 149.557 111.269 145.215 111.16C144.159 111.133 143.207 111.542 142.19 111.643C142.754 110.978 143.526 110.942 144.319 110.905C148.861 110.693 153.209 111.664 157.494 113.027C161.068 114.164 164.689 114.948 168.474 114.578H168.473Z" fill="#142D55"/>
<path d="M83.483 151.443C83.4703 150.622 83.4589 149.8 83.4462 148.979C83.2044 148.637 83.2183 148.308 83.4944 147.992C83.5741 147.988 83.6539 147.982 83.7337 147.973C83.8046 148.035 83.8299 148.097 83.8071 148.16C83.7843 148.223 83.7628 148.256 83.7388 148.256C84.0085 153.135 84.5251 158.005 84.4947 162.894C84.477 165.63 84.8543 168.342 84.7796 171.085C84.7391 172.567 85.0177 174.082 85.0126 175.592C84.9658 175.864 84.9177 176.135 84.8708 176.407C84.6239 174.901 84.6289 173.399 84.5226 171.905C84.2883 168.591 84.3301 165.259 84.2035 161.936C84.0768 158.62 83.8844 155.305 83.7058 151.992C83.6957 151.806 83.5602 151.628 83.483 151.446V151.443Z" fill="#142C54"/>
<path d="M210.788 151.185C210.256 149.898 210.986 148.709 211.16 147.501C211.883 142.502 212.446 137.517 211.596 132.476C211.525 132.059 211.396 131.572 211.786 131.193C212.917 137.93 212.228 144.576 210.788 151.185Z" fill="#142E57"/>
<path d="M196.962 111.958C196.635 112.296 196.288 112.127 195.938 112.003C193.321 111.079 190.566 110.779 187.847 110.747C185.127 110.716 182.387 111.103 179.719 111.774C179.355 111.865 179.017 112.038 178.698 111.699C184.81 110.018 190.902 109.854 196.962 111.958Z" fill="#132E56"/>
<path d="M123.081 129.711C123.43 130.029 123.24 130.368 123.154 130.729C121.982 135.676 121.745 140.661 122.511 145.696C122.598 146.272 122.77 146.92 122.34 147.476C121.511 141.878 121.476 136.301 122.789 130.76C122.873 130.407 122.983 130.06 123.081 129.711Z" fill="#142B55"/>
<path d="M151.008 141.03C150.683 141.788 150.721 141.029 150.678 140.935C149.56 138.504 147.134 137.606 145.146 138.95C143.045 140.37 142.488 143.587 144.11 145.703C144.283 145.928 144.9 146 144.526 146.521C142.831 145.018 142.361 142.977 143.226 140.867C144.016 138.941 145.499 137.974 147.526 138.065C149.138 138.137 150.406 139.217 151.007 141.03H151.008Z" fill="#183059"/>
<path d="M98.263 87.6701C98.111 87.5549 98.0756 87.398 98.1604 87.2398C100.56 82.7332 102.116 77.9115 103.49 73.0215C103.509 72.9519 103.547 72.8506 103.597 72.8367C103.652 72.8215 103.732 72.8873 103.8 72.919C102.502 78.0419 100.853 83.0332 98.263 87.6713V87.6701Z" fill="#132850"/>
<path d="M112.654 84.2229C112.934 84.6633 112.467 84.7709 112.287 84.9569C111.055 86.2237 109.773 87.4437 108.554 88.7219C106.832 90.5291 106.287 92.6488 106.99 95.0698C107.084 95.3925 107.428 95.7304 107.013 96.0721C105.811 93.4272 106.175 90.9442 108.05 88.7978C109.469 87.1729 111.111 85.7403 112.654 84.2229Z" fill="#122951"/>
<path d="M208.805 132.972C208.909 132.943 209.015 132.442 209.058 132.84C209.496 136.878 209.558 140.919 208.913 144.949C208.766 145.871 208.675 146.801 208.556 147.749C208.616 147.873 208.34 147.788 208.407 147.675C208.468 147.572 208.366 147.372 208.335 147.215C208.695 144.157 209.104 141.107 209.105 138.016C209.105 136.324 208.834 134.657 208.804 132.972H208.805Z" fill="#09214C"/>
<path d="M181.965 114.179C181.942 114.071 181.397 114.001 181.831 113.919C186.382 113.057 190.911 113.039 195.375 114.467C195.522 114.513 195.655 114.61 195.784 114.701C195.798 114.711 195.732 114.832 195.704 114.902C191.19 113.416 186.604 113.321 181.966 114.181L181.965 114.179Z" fill="#0A224D"/>
<path d="M70.6075 0.240533C66.7428 0.573369 62.8794 0.592352 59.016 0.235471C62.8807 -0.0733204 66.7441 -0.0859758 70.6075 0.240533Z" fill="#041B45"/>
<path d="M72.864 104.317C73.482 103.519 74.4481 103.76 75.2459 103.589C77.8506 103.031 80.4148 102.386 82.8309 101.235C83.1171 101.099 83.4134 100.87 83.7097 101.225C80.2743 102.887 76.6451 103.868 72.8653 104.317H72.864Z" fill="#13274E"/>
<path d="M83.7401 148.255C83.7376 148.162 83.7363 148.067 83.7338 147.973C84.61 146.787 85.9029 145.952 86.5728 144.589C86.7361 144.257 87.1299 144.261 87.4326 144.162C88.9939 143.651 90.2044 142.773 90.7527 141.145C90.8148 140.959 90.9541 140.432 91.1617 141.101C90.635 142.849 89.3674 143.879 87.7301 144.456C87.1489 144.661 86.7589 144.933 86.4259 145.437C85.7016 146.53 84.7797 147.453 83.7401 148.255Z" fill="#324D6E"/>
<path d="M0.191198 171.976C0.259577 172.162 0.384939 172.348 0.386205 172.536C0.397601 176.059 0.395069 179.583 0.384939 183.107C0.384939 183.254 0.273506 183.399 0.213991 183.546C-0.119039 182.626 0.032914 181.674 0.046843 180.734C0.0898964 177.814 0.14308 174.895 0.192465 171.976H0.191198Z" fill="#021642"/>
<path d="M108.664 40.9617C108.187 39.3165 108.508 37.6359 108.481 35.9742C108.46 34.7695 108.22 33.5343 108.668 32.3459C108.668 35.2175 108.665 38.089 108.664 40.9617Z" fill="#021441"/>
<path d="M128.719 167.281C129.521 167.712 129.515 168.585 129.654 169.277C129.99 170.95 130.247 172.645 130.226 174.37C130.193 177.228 130.571 180.058 130.906 182.89C130.971 183.436 131.156 184.026 130.747 184.541C130.105 180.736 129.99 176.888 129.795 173.047C129.694 171.072 129.364 169.149 128.717 167.281H128.719Z" fill="#0D2F5C"/>
<path d="M28.3646 187.483C28.6255 187.196 28.9724 187.284 29.2903 187.283C33.7666 187.278 38.2428 187.277 42.7191 187.281C43.037 187.281 43.3852 187.191 43.6435 187.483C38.5505 187.658 33.4576 187.693 28.3646 187.483Z" fill="#011C4B"/>
<path d="M64.9321 125.481C65.0144 125.487 65.098 125.492 65.1803 125.498C65.2221 126.685 64.6282 127.741 64.5244 128.92C64.1483 133.213 65.0474 137.149 67.5356 140.682C68.1953 141.62 68.9956 142.448 69.9972 143.05C70.9279 143.611 70.9241 143.616 69.8326 144.219L69.7946 144.193C64.5712 147.317 59.3858 150.51 53.9586 153.277C50.0293 155.28 46.0304 157.111 41.6023 157.723C36.9474 158.366 32.6889 157.505 28.9813 154.436C23.7972 150.146 19.8907 144.829 16.5072 139.085C15.7145 137.74 14.9953 136.352 14.2304 134.989C13.7265 134.09 13.0718 133.436 11.9397 133.917C11.0268 134.304 10.7735 135.278 11.394 136.462C15.1827 143.678 19.5931 150.436 25.6826 155.986C31.8405 161.599 38.919 162.294 46.5496 159.991C52.225 158.277 57.3332 155.332 62.4224 152.38C65.0917 150.832 67.7103 149.198 70.372 147.639C70.6418 147.481 70.9254 146.882 71.3876 147.435C71.7624 147.884 71.5408 148.224 71.2724 148.632C67.4647 154.427 65.5323 160.875 64.6966 167.694C64.4623 169.61 64.2027 171.528 64.2458 173.467C64.3243 176.341 64.418 179.215 64.1951 182.087C56.7963 183.265 49.3468 183.897 41.8618 184.128C41.3769 184.143 40.8729 184.04 40.4069 184.275C39.87 184.595 39.2824 184.417 38.7215 184.422C36.2497 184.446 33.7792 184.439 31.3074 184.424C30.9111 184.422 30.4818 184.571 30.1184 184.272C27.7391 184.123 25.3585 183.979 22.9804 183.823C16.8592 183.422 10.7596 182.84 4.70298 181.821C3.47976 181.616 3.05683 181.207 3.09861 179.881C3.45824 168.608 3.7824 157.335 4.54723 146.08C5.01322 139.221 5.6109 132.383 7.31404 125.698C9.26917 118.025 12.364 110.926 17.8849 105.07C22.0586 100.643 27.1743 97.6438 32.6915 95.238C33.1663 95.0305 33.4563 95.138 33.7779 95.4544C34.4529 96.1188 35.1341 96.7643 35.6039 97.6109C40.0916 105.696 45.9912 112.716 52.1997 119.498C55.1818 122.757 56.8773 122.651 59.4188 119.066C62.3515 114.927 64.3686 110.355 65.6273 105.455C65.8021 104.775 65.9743 104.592 66.7087 104.517C68.522 104.331 69.6528 105.076 70.6797 106.511C72.3563 108.854 74.0278 111.194 75.5878 113.616C76.107 114.422 76.164 114.882 75.2041 115.397C74.0506 116.016 72.9983 116.828 72.0258 117.723L72.0499 117.77C70.7279 119.178 69.0994 120.262 67.842 121.74L67.8357 121.737C67.6369 122.296 67.3317 122.561 66.7214 122.221C66.087 121.866 65.3854 121.948 64.8422 122.321C63.738 123.077 62.4793 123.473 61.2878 124.02C55.972 126.458 50.5612 128.682 45.2415 131.113C42.9243 132.173 42.9432 132.178 41.6048 129.959C39.3913 126.291 37.3374 122.536 35.3621 118.735C35.1721 118.37 34.9999 117.991 34.7188 117.685C34.2819 117.209 33.7931 116.783 33.1169 117.217C32.5003 117.611 32.4205 118.218 32.7067 118.85C33.4842 120.578 34.3364 122.269 35.2519 123.929C36.7626 126.669 38.239 129.429 39.908 132.078C40.4272 132.902 40.2435 133.442 39.4243 133.871C38.6582 134.272 37.9009 134.695 37.188 135.185C36.6017 135.588 36.1965 136.124 36.5574 136.859C36.917 137.592 37.592 137.583 38.2732 137.406C38.7139 137.292 39.1204 137.078 39.5116 136.853C44.635 133.909 50.1433 131.796 55.5262 129.411C58.1993 128.228 60.8813 127.063 63.5392 125.843C63.9799 125.64 64.3927 125.312 64.9321 125.478V125.481Z" fill="#A4CEE5"/>
<path d="M59.0287 34.61C52.848 34.9833 46.7788 36.0476 40.7994 37.6156C33.6285 39.4975 26.664 41.9311 19.954 45.7834C19.954 44.5748 19.9438 43.5257 19.9552 42.4778C20.0312 35.9008 21.0962 29.5402 24.1757 23.6403C28.2873 15.7611 34.8948 10.7913 43.0078 7.59707C47.6677 5.7633 52.4985 4.63824 57.4788 4.13709C57.7599 4.10925 58.0334 4.01433 58.3107 3.94979C61.4815 3.53343 64.6573 3.33474 67.8483 3.70554C70.7392 4.03458 73.6491 4.16873 76.5286 4.64077C82.8144 5.67092 88.8292 7.47684 94.4325 10.5673C100.327 13.8185 103.702 18.7427 104.517 25.4285C104.699 26.9294 104.967 28.419 105.196 29.9148C105.667 33.328 105.794 36.75 105.447 40.1834C105.14 41.0882 105.367 42.0437 105.177 43.0676C102.546 41.5059 99.9028 40.072 97.0638 39.0406C95.2214 38.6799 93.5297 37.8396 91.7126 37.3866C88.8546 36.6728 86.013 35.9033 83.0626 35.6426C82.6346 35.6047 82.1927 35.4705 81.7925 35.268C80.7187 34.9757 79.6184 34.8972 78.5129 34.8466C76.2982 35.063 74.1227 34.5328 71.9143 34.51C68.7208 34.4771 65.5323 34.2683 62.3413 34.6327C61.2485 34.758 60.1316 34.7391 59.0274 34.61H59.0287Z" fill="#A3CEE5"/>
<path d="M57.8321 66.8774C55.0767 66.4762 52.32 66.0864 49.5659 65.6688C48.0666 65.441 46.5762 65.1575 45.0794 64.9208C44.7249 64.8651 44.4906 64.6563 44.2424 64.4437C41.3427 61.9557 38.4518 59.4562 35.533 56.9897C35.0961 56.6202 35.0771 56.4607 35.4178 55.957C38.277 51.7314 40.198 47.1109 41.0033 42.0576C41.1097 41.3907 41.3642 41.0895 42.0442 40.9528C43.2016 40.72 44.3311 40.3555 45.472 40.0454C48.3604 39.1393 51.3627 38.8356 54.3372 38.4053C55.2616 38.2711 56.1923 38.0813 57.1395 38.1231C61.6664 37.6649 66.1921 37.4232 70.7519 37.6118C74.6039 37.7713 78.4344 38.0282 82.2434 38.623C82.408 38.6483 82.5663 38.6635 82.6916 38.7837C86.0891 39.5202 89.5219 40.1011 92.8345 41.211C96.7359 42.517 100.488 44.1065 103.884 46.4744C104.665 47.0185 104.916 47.5399 104.83 48.5638C104.158 56.5582 102.53 64.3729 100.587 72.1331C100.48 72.7267 100.002 72.4736 99.7002 72.4698C97.2665 72.4369 94.8973 72.085 92.6458 71.0802C89.4877 69.6704 86.4525 67.9594 83.0563 67.1267C82.3979 66.8331 81.6913 66.7837 80.9872 66.723C79.7172 66.9394 78.4521 66.704 77.1846 66.6799C73.9391 66.6192 70.7203 67.028 67.4887 67.2102C64.2635 67.3912 61.0358 67.4114 57.8321 66.8761V66.8774Z" fill="#FDE3D5"/>
<path d="M99.7851 75.5945C95.752 88.4447 88.5937 97.9704 74.6862 100.648C65.2512 102.466 56.562 100.29 48.4971 95.2837C44.9807 93.1006 41.8454 90.4519 39.0317 87.4121C38.5758 86.9198 38.4961 86.5603 38.7696 85.9288C41.1173 80.4984 43.2699 74.9883 45.1947 69.3921C45.4416 68.6745 45.6758 68.4201 46.5597 68.5872C53.3241 69.8704 60.1329 70.7702 67.0455 70.3716C70.7 70.1602 74.338 69.7198 78.014 69.7894C81.5963 69.8578 84.9152 70.7816 88.0467 72.4597C91.6493 74.3909 95.4152 75.7147 99.7863 75.5957L99.7851 75.5945Z" fill="#A3CEE5"/>
<path d="M36.1636 83.7115C33.0118 79.9465 29.8512 76.2081 26.7412 72.4292C25.9967 71.5244 25.2344 71.2194 24.0061 71.2434C19.5918 71.3282 15.5689 70.0589 13.382 65.5143C11.399 61.3925 11.6409 57.258 14.5318 53.5702C17.3594 49.9634 21.8218 49.6432 25.2825 52.6096C30.7845 57.325 36.2991 62.024 41.8061 66.7318C42.167 67.0406 42.5494 67.2506 42.3012 67.9302C40.4081 73.1303 38.4669 78.3114 36.3637 83.4305C36.3206 83.5356 36.2294 83.6204 36.1636 83.709V83.7115Z" fill="#FDE3D5"/>
<path d="M67.6432 176.777C67.7166 168.681 68.912 160.821 72.6044 153.494C72.6969 153.311 72.7792 153.122 72.8779 152.943C73.3161 152.153 73.6086 151.199 74.2417 150.622C74.9382 149.986 75.7739 150.901 76.5945 150.933C77.5961 150.971 78.5876 150.908 79.5246 150.629C80.2578 150.41 80.349 150.671 80.3819 151.267C80.5592 154.427 80.777 157.585 80.9378 160.745C81.2113 166.123 81.4367 171.504 81.7229 176.883C81.7647 177.672 81.5722 177.979 80.7656 178.226C76.8325 179.428 72.8387 180.367 68.8309 181.265C68.023 181.446 67.5165 181.467 67.6191 180.354C67.7267 179.171 67.6432 177.971 67.6432 176.778V176.777Z" fill="#A3CEE5"/>
<path d="M110.643 95.843C109.19 93.3322 109.352 92.1755 111.439 90.0911C112.371 89.1609 113.287 88.2169 114.223 87.2905C116.448 85.0884 119.065 85.2188 121.056 87.6145C123.133 90.1126 125.22 92.6032 127.299 95.1001C127.536 95.3836 127.766 95.6747 127.974 95.9797C129.021 97.5211 128.978 97.9729 127.658 99.2549C126.509 100.374 125.373 101.509 124.191 102.595C122.248 104.38 120.525 104.447 118.483 102.748C116.178 100.83 113.936 98.8372 111.667 96.8782L110.641 95.843H110.643Z" fill="#A3CDE4"/>
<path d="M62.7718 104.432C61.4105 109.265 59.4478 113.569 56.7051 117.531C55.9846 118.571 55.5945 118.477 54.7829 117.59C49.9457 112.299 45.3124 106.848 41.24 100.938C41.1248 100.771 41.0273 100.591 40.964 100.274C47.793 103.693 54.9183 105.504 62.7718 104.432Z" fill="#A4CEE5"/>
<path d="M111.389 101.044C112.533 102.045 113.677 103.046 114.822 104.047C115.121 104.309 115.449 104.456 115.035 104.99C110.909 110.323 106.823 115.687 102.67 121.115C102.434 120.694 102.244 120.354 102.054 120.014C101.61 119.507 101.396 118.875 101.102 118.286C101.102 118.286 101.134 118.238 101.135 118.238C100.261 116.537 99.0735 115.075 97.6274 113.838C97.1297 113.411 96.9702 113.196 97.5565 112.661C101.592 108.975 105.434 105.09 109.226 101.16C110.037 100.319 110.61 100.066 111.391 101.044H111.389Z" fill="#A3CDE5"/>
<path d="M37.9199 42.1765C37.1994 46.4059 35.5026 49.9824 33.5424 53.4588C33.0447 54.3409 32.6471 54.4864 31.7784 53.7359C29.4599 51.7339 27.2844 49.5306 24.5265 48.0815C24.2504 47.936 24.0162 47.7107 23.5907 47.3956C28.2709 45.2138 32.9738 43.6192 37.9199 42.1765Z" fill="#426589"/>
<path d="M25.0938 75.5349C29.0876 79.9972 32.5484 84.6506 36.256 89.0989C40.5816 94.2876 45.8557 98.269 52.125 100.876C52.1934 100.904 52.2364 100.995 52.2909 101.056C39.4724 98.2108 29.76 89.528 25.0925 75.5349H25.0938Z" fill="#FCE3D5"/>
<path d="M82.9613 144.092C82.8752 144.281 82.7878 144.473 82.7017 144.662C81.1632 146.337 79.5044 147.777 76.9997 147.507C76.5957 147.464 76.1918 147.381 75.803 147.262C74.9508 147.002 74.2392 146.324 74.1619 145.581C74.0961 144.956 75.0888 144.655 75.7068 144.452C77.3656 143.907 78.8927 143.132 80.2806 142.09C80.7314 141.75 80.9251 141.791 81.1822 142.287C81.5823 143.06 82.1268 143.728 82.9625 144.09L82.9613 144.092Z" fill="#A4CFE5"/>
<path d="M82.6916 38.7861C76.6565 38.0217 70.6037 37.5471 64.5155 37.7775C62.0158 37.8711 59.52 38.0685 57.0217 38.2179C56.9406 38.1723 56.914 38.1267 56.9406 38.0812C56.9672 38.0356 56.9938 38.0128 57.0217 38.0128C58.2664 37.4851 59.6137 37.6901 60.8977 37.575C65.5538 37.1586 70.2352 37.2485 74.8926 37.5636C77.6797 37.7521 80.4769 38.0306 83.4032 38.6292C83.0601 38.7038 82.8752 38.7443 82.6903 38.7848L82.6916 38.7861Z" fill="#102954"/>
<path d="M57.8321 66.8774C61.6486 67.1027 65.4639 67.3014 69.2855 66.9382C71.3534 66.742 73.425 66.5218 75.4979 66.4788C77.3251 66.4408 79.1574 66.6332 80.9872 66.7243C80.8061 66.9382 80.5554 66.9293 80.3097 66.9306C77.0339 66.9483 73.7542 66.78 70.4847 67.1723C67.5482 67.5254 64.594 67.4507 61.6474 67.4102C60.1101 67.3887 58.5754 67.2229 56.9963 67.1204C57.2534 66.8091 57.589 67.0192 57.8333 66.8774H57.8321Z" fill="#09214D"/>
<path d="M83.0576 67.1279C85.7269 67.543 88.1278 68.6845 90.4754 69.9349C93.2764 71.427 96.2395 72.2483 99.4115 72.2964C99.8016 72.3027 100.235 72.4596 100.587 72.1344C100.747 72.9254 100.121 72.59 99.8395 72.6052C96.779 72.7646 93.9121 72.0078 91.1947 70.6562C88.5532 69.3414 85.9447 67.9657 82.9955 67.4165C82.3713 67.3 82.9424 67.2115 83.0563 67.1292L83.0576 67.1279Z" fill="#142B54"/>
<path d="M59.0287 34.6099C65.5298 34.1505 72.0258 34.1227 78.5129 34.8465C77.8697 35.2654 77.1441 35.0908 76.4843 35.0199C72.4513 34.5846 68.408 34.4884 64.361 34.5808C62.9782 34.6124 61.6005 34.887 60.2064 34.8048C59.8088 34.782 59.3795 34.9225 59.0275 34.6099H59.0287Z" fill="#0F224A"/>
<path d="M81.7925 35.2668C87.0374 35.9021 92.1481 37.0753 97.0638 39.0407C96.8308 39.3507 96.5725 39.209 96.299 39.1014C91.4554 37.193 86.3891 36.2059 81.2493 35.4795C81.3721 35.2175 81.6228 35.3491 81.7938 35.2668H81.7925Z" fill="#142A4F"/>
<path d="M57.023 38.013C57.023 38.0813 57.023 38.1497 57.023 38.2167C53.1532 38.6989 49.3 39.2886 45.4733 40.0467C45.8025 39.5202 46.3736 39.5506 46.8776 39.4557C50.237 38.8217 53.5888 38.1256 57.023 38.0117V38.013Z" fill="#102952"/>
<path d="M30.1196 184.275C33.5487 184.275 36.9777 184.276 40.4081 184.277C41.3046 184.277 42.2011 184.277 43.0977 184.277C43.0977 184.345 43.0977 184.412 43.0977 184.479H28.129C28.1265 184.451 28.1239 184.423 28.1227 184.394C28.7887 184.353 29.4548 184.314 30.1209 184.274L30.1196 184.275Z" fill="#0B1D42"/>
<path d="M105.445 40.1834C105.55 36.7564 105.395 33.3343 105.195 29.9149C105.229 29.7554 105.263 29.5959 105.353 29.1758C105.926 33.5077 105.704 37.603 105.574 41.7008C105.531 41.1946 105.488 40.6896 105.445 40.1834Z" fill="#0C1E44"/>
<path d="M67.8484 3.70546C64.665 3.59789 61.4879 3.77 58.3108 3.94971C58.1512 3.91554 57.9917 3.88264 57.6156 3.80164C61.5828 3.23215 65.3576 3.45109 69.1362 3.57258C68.7069 3.61687 68.2776 3.66117 67.8496 3.70546H67.8484Z" fill="#0C1F44"/>
<path d="M64.1964 182.089C64.1382 179.215 64.0787 176.341 64.2471 173.47C64.6801 175.411 64.3775 177.378 64.4155 179.332C64.4332 180.244 64.7156 181.208 64.1964 182.091V182.089Z" fill="#071B40"/>
<path d="M106.479 99.4193C106.834 99.151 107.2 98.8941 107.542 98.6094C107.787 98.4056 108.013 98.2778 108.286 98.536C108.489 98.7283 108.759 98.9194 108.567 99.2497C108.424 99.494 108.229 99.7585 107.889 99.6205C107.475 99.4522 107.105 99.6737 106.715 99.7091C106.637 99.613 106.557 99.5155 106.479 99.4193Z" fill="#355273"/>
<path d="M99.3457 121.783C99.8319 123.179 100.321 124.569 100.289 126.084C100.271 126.949 99.9915 127.699 99.433 128.337C98.3478 129.576 97.545 129.451 96.9245 127.972C96.0457 125.878 94.9871 123.892 93.4056 122.229C92.7205 121.511 91.9417 120.92 91.0224 120.512C90.0449 120.078 89.218 120.215 88.695 121.163C88.1733 122.107 88.6418 122.828 89.451 123.347C92.7154 125.437 94.1185 128.66 94.725 132.279C95.0125 133.99 94.3413 135.533 92.9573 136.65C92.0304 137.398 91.6328 137.24 91.3213 136.12C90.4843 133.119 88.9799 130.526 86.5879 128.496C85.2849 127.39 84.2251 127.284 83.5514 128.12C82.8676 128.97 83.1627 130.014 84.4631 131.02C86.2942 132.436 87.2375 134.428 88.1227 136.468C88.7013 137.526 88.7824 138.629 88.4354 139.776C88.0606 141.018 87.0843 141.514 85.9295 141.654C84.8303 141.788 84.0313 141.279 83.6134 140.215C83.4184 139.719 83.1538 139.252 82.9562 138.752C82.5067 137.614 81.7634 137.361 80.7187 138.081C79.3942 138.995 77.9937 139.756 76.5768 140.508C73.7492 142.006 71.3648 141.576 69.2273 137.783L69.2146 137.851L69.2374 137.785C68.0167 135.929 67.4938 133.85 67.2937 131.672C66.9721 128.181 68.2295 125.313 70.7975 122.991C71.5826 122.281 72.1549 121.332 73.1705 120.883L73.1236 120.808L73.1629 120.887C74.0847 119.867 75.1661 119.053 76.3855 118.421L76.3273 118.405L76.3868 118.425C80.3718 115.533 84.7531 113.705 89.7447 113.782C93.5816 113.841 96.0774 116.178 98.087 119.145C98.6315 119.949 99.2519 120.749 99.3482 121.781L99.3457 121.783Z" fill="#FDE3D5"/>
<path d="M64.9321 125.481C60.4102 127.75 55.7136 129.63 51.0904 131.672C47.1422 133.416 43.1572 135.084 39.4166 137.26C39.0279 137.487 38.6176 137.716 38.1884 137.823C37.3653 138.03 36.622 137.901 36.2155 137.022C35.8166 136.162 36.1079 135.471 36.8385 134.992C37.6629 134.453 38.5189 133.947 39.4103 133.532C40.0966 133.213 40.0396 132.921 39.694 132.356C37.2019 128.286 34.9302 124.094 32.7687 119.84C31.9621 118.253 32.0127 117.31 32.9586 116.809C33.8995 116.311 34.7048 116.799 35.5406 118.406C37.7211 122.604 40.046 126.72 42.4354 130.801C42.9192 131.627 43.2826 131.658 44.1285 131.277C50.9499 128.204 57.8017 125.198 64.6459 122.178C65.4031 121.843 66.1654 121.485 66.9619 122.114C67.4583 122.505 67.5026 121.768 67.8369 121.738C67.8572 122.646 67.3013 122.552 66.6872 122.423C65.0131 122.071 64.6611 122.338 65.0271 124.014C65.1512 124.585 64.5839 124.986 64.9334 125.481H64.9321Z" fill="#324D6E"/>
<path d="M99.3457 121.783C98.7024 120.61 98.1136 119.415 97.307 118.325C94.4731 114.495 90.7502 113.266 86.1498 114.258C82.6157 115.02 79.4209 116.526 76.3831 118.425C76.554 117.667 77.2783 117.509 77.8101 117.2C81.3912 115.117 85.1254 113.563 89.3966 113.607C91.9747 113.634 94.0932 114.549 95.9179 116.294C96.123 116.49 96.3586 116.657 96.5789 116.838L96.5966 116.856C97.4931 117.919 98.3491 119.02 99.0025 120.248C99.2406 120.696 99.8433 121.142 99.3444 121.784L99.3457 121.783Z" fill="#324D6E"/>
<path d="M69.2248 137.783C72.0017 141.625 73.6162 141.993 77.819 139.688C78.7522 139.175 79.6412 138.579 80.5339 137.995C81.7698 137.188 82.5612 137.407 83.1601 138.761C83.326 139.136 83.4463 139.531 83.6236 139.899C84.3213 141.347 84.9101 141.662 86.3309 141.381C87.6478 141.119 88.2987 140.314 88.4279 138.895C88.5038 138.055 88.167 137.284 88.1214 136.469C89.0002 136.934 88.871 137.92 88.8432 138.554C88.7419 140.838 87.4465 142.091 85.0317 141.773C84.1656 141.659 83.7794 140.951 83.4172 140.22C82.0319 137.426 82.0268 137.445 79.3664 139.176C77.9494 140.099 76.4451 140.853 74.8205 141.353C72.6792 142.011 69.5933 140.046 69.2235 137.784L69.2248 137.783Z" fill="#324D6E"/>
<path d="M69.8325 144.221C70.063 144.018 70.2922 143.817 70.5328 143.607C65.6918 141.038 62.5413 132.045 65.1803 125.5C65.5994 125.329 65.6652 125.397 65.5107 125.851C63.7835 130.929 64.6256 135.685 67.3962 140.167C68.0902 141.29 69.0006 142.24 70.1504 142.927C70.4632 143.115 70.914 143.24 70.8101 143.697C70.7038 144.168 70.2757 144.26 69.8325 144.222V144.221Z" fill="#324D6E"/>
<path d="M73.1679 120.883C72.3815 121.66 71.6129 122.455 70.8063 123.21C67.1012 126.682 66.734 130.851 68.251 135.406C68.5219 136.219 68.9031 136.993 69.2336 137.785C68.3472 137.584 68.4232 136.727 68.1724 136.138C67.0518 133.505 66.8391 130.765 67.4076 127.97C67.809 125.999 69.0095 124.477 70.415 123.151C71.2736 122.341 71.8067 121.093 73.1679 120.883Z" fill="#324D6E"/>
<path d="M67.8433 121.741C69.0323 120.192 70.4594 118.895 72.0511 117.772C70.9558 119.421 69.2893 120.464 67.8433 121.741Z" fill="#324D6E"/>
<path d="M76.3831 118.421C75.3093 119.243 74.2342 120.065 73.1604 120.887C73.9024 119.631 74.9826 118.817 76.3831 118.421Z" fill="#324D6E"/>
<path d="M79.2056 141.071C79.0815 141.534 78.7231 141.559 78.347 141.553C78.0178 141.548 77.7696 141.424 77.8507 141.052C77.9279 140.696 78.2432 140.524 78.5661 140.487C78.9511 140.444 79.1081 140.747 79.2056 141.071Z" fill="#324D6E"/>
<path d="M83.4944 147.992C83.4779 148.321 83.4627 148.65 83.4463 148.979C83.1765 148.95 82.8144 149.018 82.7891 148.627C82.7587 148.169 83.0866 148.015 83.4944 147.992Z" fill="#324D6E"/>
<path d="M101.099 118.286C101.586 118.769 101.839 119.379 102.052 120.013C101.32 119.665 101.211 118.974 101.099 118.286Z" fill="#324D6E"/>
<path d="M66.4276 63.9121C62.6591 63.9133 59.496 61.6455 58.6159 58.3234C58.4412 57.6654 58.4386 57.0339 58.7197 56.4024C59.0819 55.5861 59.7264 55.2444 60.5837 55.271C61.4904 55.2988 62.0678 55.824 62.2147 56.6681C62.5502 58.5892 63.7304 59.6598 65.5602 59.9459C67.4191 60.2357 68.8158 59.3637 69.7946 57.8058C70.3074 56.9908 70.9355 56.5061 71.9371 56.9263C72.878 57.3199 73.2895 58.3095 72.9767 59.384C72.2385 61.9226 69.3603 63.9121 66.4263 63.9133L66.4276 63.9121Z" fill="#304B6B"/>
<path d="M92.8067 67.4025C88.8989 67.3683 85.7902 64.5221 85.6041 61.1115C85.5674 60.4522 85.6104 59.7953 85.9675 59.2094C86.45 58.4146 87.1819 58.0894 88.0683 58.283C88.8572 58.4551 89.1142 59.074 89.2041 59.8409C89.4434 61.8898 90.2804 62.9516 91.8228 63.2718C93.4398 63.6071 94.7086 62.9681 95.7963 61.2684C95.8179 61.2343 95.828 61.1925 95.8495 61.1571C96.2661 60.4787 96.798 59.9852 97.6628 60.2421C98.4859 60.4876 98.9456 61.0976 99.0773 61.9303C99.2064 62.7415 98.9481 63.4781 98.5024 64.1412C97.0614 66.28 94.953 67.2013 92.8067 67.405V67.4025Z" fill="#304A6B"/>
</g>
<defs>
<clipPath id="clip0_285_811">
<rect width="223" height="219" fill="white"/>
</clipPath>
</defs>
</svg>
