<svg width="183" height="213" viewBox="0 0 183 213" fill="none" xmlns="http://www.w3.org/2000/svg">
<g id="full exa," clip-path="url(#clip0_285_876)">
<path id="Vector" d="M110.698 112.785C110.761 124.198 108.021 134.997 103.486 145.38C101.468 150 99.907 154.737 99.454 159.778C99.1663 162.974 99.0767 166.189 98.8533 169.392C98.0747 180.525 96.183 191.409 91.4723 201.632C89.968 204.895 88.1736 207.988 85.4781 210.442C82.4633 213.188 78.7243 213.76 75.5089 211.982C73.6374 210.946 72.4436 209.29 71.4795 207.439C69.7974 204.21 68.9077 200.711 68.0307 197.207C66.616 191.553 65.9687 185.73 64.3269 180.127C63.5521 177.482 62.6296 174.887 60.8995 172.68C57.809 168.736 52.6465 168.784 49.7024 172.818C47.4233 175.941 46.4756 179.616 45.6428 183.303C44.2963 189.265 43.4079 195.329 41.6891 201.209C40.9862 203.615 40.1382 205.969 38.8624 208.141C37.0213 211.278 34.4457 213.277 30.6485 212.929C27.659 212.654 25.4027 210.924 23.5666 208.65C20.3777 204.699 18.3497 200.134 16.6928 195.376C14.3179 188.551 13.0774 181.497 12.3051 174.332C11.741 169.092 11.6956 163.814 11.0848 158.58C10.6495 154.853 9.70679 151.247 8.25305 147.781C5.56892 141.385 2.97692 134.956 1.63296 128.107C-0.172858 118.899 -0.844204 109.667 1.51813 100.458C3.06273 94.4384 5.78471 89.0398 10.8186 85.1596C16.4253 80.8387 22.8965 79.552 29.8308 80.0054C35.9612 80.4068 41.6336 82.5508 47.3729 84.4745C50.8886 85.6522 54.4472 86.5577 58.2179 85.8447C60.7216 85.3711 63.1091 84.5264 65.498 83.6842C69.7103 82.1975 73.9542 80.8361 78.4037 80.265C86.4675 79.2278 94.0453 80.3511 100.573 85.6218C105.2 89.3576 107.688 94.4536 109.191 100.086C110.3 104.24 110.771 108.484 110.697 112.786L110.698 112.785Z" fill="#3F81A4"/>
<path id="Vector_2" d="M63.0738 34.385C62.9817 17.8789 74.2987 4.02082 90.2331 0.723144C106.164 -2.57326 122.318 5.62026 128.447 20.5092C133.544 32.8906 131.716 44.5693 123.723 55.2677C123.226 55.9338 123.147 56.3517 123.572 57.0761C129.21 66.6715 134.818 76.2859 140.42 85.9042C140.748 86.4677 141.1 86.7602 141.799 86.9033C144.859 87.5315 147.127 89.3006 148.676 92.0271C157.094 106.843 165.521 121.652 173.944 136.463C176.482 140.925 179.073 145.357 181.546 149.854C184.955 156.049 182.122 163.275 175.546 165.35C170.704 166.877 165.786 164.777 163.055 159.98C157.652 150.487 152.263 140.987 146.868 131.49C141.556 122.137 136.251 112.779 130.923 103.435C129.405 100.773 128.418 97.9247 129.448 94.9613C130.118 93.0364 129.636 91.7359 128.709 90.1415C123.843 81.7605 118.932 73.4074 113.912 65.1164C113.435 64.3287 113.106 64.1983 112.269 64.6187C91.9051 74.841 67.9865 63.0839 63.6657 40.7334C63.2366 38.5109 62.9665 36.2592 63.0713 34.3837L63.0738 34.385Z" fill="#3E80A4"/>
<path id="Vector_3" d="M4.19976 113.104C4.12909 105.68 5.31783 99.224 8.94336 93.4239C12.4288 87.8467 17.5585 84.9163 24.0777 84.3388C30.3899 83.7804 36.3802 85.1962 42.2873 87.1933C44.3064 87.8759 46.3293 88.5458 48.3547 89.2081C52.9582 90.7138 57.5529 90.5429 62.1514 89.1537C66.4646 87.8505 70.658 86.1498 75.0887 85.2367C80.1099 84.2033 85.1551 83.5993 90.199 84.9568C98.2489 87.1236 102.779 92.7451 104.981 100.521C106.748 106.762 106.618 113.121 106.123 119.52C105.385 129.068 102.086 137.869 98.5076 146.594C96.3711 151.802 95.4575 157.241 95.1193 162.821C94.6259 170.952 94.2612 179.099 92.203 187.044C90.7429 192.68 88.898 198.159 85.9728 203.22C85.0011 204.901 83.8767 206.482 82.3233 207.684C79.7452 209.678 77.2504 209.268 75.5581 206.493C73.6917 203.434 72.826 199.988 72.0159 196.542C70.7274 191.06 70.0182 185.454 68.5292 180.013C67.6029 176.627 66.4722 173.323 64.361 170.458C60.2231 164.846 52.9784 163.977 47.9912 168.533C45.721 170.608 44.3619 173.292 43.3764 176.163C41.7422 180.924 40.8689 185.866 39.9376 190.796C39.0366 195.566 38.1293 200.34 36.0332 204.774C35.7354 205.404 35.4136 206.031 35.03 206.611C33.3516 209.146 30.964 209.567 28.4906 207.781C26.994 206.701 25.9239 205.235 24.9699 203.692C21.6422 198.31 19.7846 192.349 18.293 186.259C16.7497 179.957 16.1149 173.52 15.8587 167.063C15.5294 158.761 14.1589 150.756 10.7732 143.085C8.08398 136.991 6.00811 130.652 5.08437 123.996C4.55184 120.159 4.15307 116.314 4.19976 113.105V113.104Z" fill="#C9EBF8"/>
<path id="Vector_4" d="M178.976 155.338C178.991 158.089 177.203 160.544 174.627 161.425C172.084 162.295 168.865 161.323 167.342 158.947C165.503 156.077 163.859 153.081 162.165 150.119C156.125 139.553 150.088 128.987 144.069 118.407C140.715 112.51 137.396 106.591 134.074 100.675C133.176 99.0783 132.78 97.3928 133.347 95.5768C133.68 94.5105 134.315 93.6443 135.256 93.082C136.596 92.2816 138.02 91.6231 139.521 91.19C141.575 90.5973 143.655 91.5991 144.944 93.8444C148.646 100.3 152.315 106.775 156 113.242C161.007 122.029 166.016 130.818 171.028 139.603C173.351 143.674 175.687 147.737 178.017 151.804C178.664 152.934 179.027 154.138 178.976 155.338Z" fill="#81C2DF"/>
<path id="Vector_5" d="M126.97 33.8151C126.921 50.8759 113.526 64.1957 96.3988 64.0843C80.7332 63.983 67.098 51.3305 67.1965 33.8341C67.2924 16.6859 80.7092 4.25635 97.2859 4.27028C113.864 4.28421 127.017 17.4141 126.97 33.8151Z" fill="#9FD5EC"/>
<path id="Vector_6" d="M119.992 59.4126C120.441 59.4747 120.49 59.8558 120.643 60.118C124.563 66.8286 128.476 73.5429 132.389 80.2573C133.694 82.495 134.976 84.7467 136.316 86.9629C136.704 87.6036 136.753 87.9329 135.934 88.1735C135.392 88.3318 134.831 88.5876 134.404 88.9498C133.308 89.8844 132.829 89.3107 132.253 88.3204C127.285 79.7938 122.286 71.2837 117.26 62.7913C116.865 62.1239 116.943 61.8441 117.549 61.4376C118.261 60.9601 118.883 60.3472 119.543 59.7925C119.697 59.6633 119.851 59.5316 119.991 59.4126H119.992Z" fill="#9AD2EA"/>
<path id="Vector_7" d="M53.1398 143.255C48.7521 143.112 43.6526 140.368 40.2479 134.655C39.7861 133.88 39.405 133.047 39.3772 132.112C39.3444 130.963 39.9123 130.235 41.0038 129.949C41.9742 129.694 42.9573 130.267 43.3662 131.271C46.7544 139.589 57.8645 141.907 64.6032 135.697C65.8487 134.548 66.9731 133.33 67.4223 131.597C67.7605 130.293 68.8269 129.675 69.9109 129.974C71.1109 130.305 71.7785 131.505 71.3835 132.806C70.6175 135.329 69.0527 137.326 67.074 138.995C63.682 141.856 59.7687 143.325 53.1385 143.255H53.1398Z" fill="#3F81A4"/>
<path id="Vector_8" d="M35.4198 112.308C39.7104 112.318 43.3662 115.163 44.2546 119.047C44.6029 120.569 44.0653 121.677 42.8236 122.001C41.5578 122.332 40.6253 121.644 40.2101 120.075C39.622 117.859 37.9235 116.525 35.6482 116.496C33.2808 116.466 31.5558 117.726 30.9299 120.028C30.7015 120.868 30.3961 121.606 29.5417 121.929C27.977 122.519 26.5926 121.319 26.7693 119.552C27.0835 116.414 30.0453 113.286 33.4007 112.555C34.1225 112.398 34.8482 112.245 35.4198 112.308Z" fill="#3F80A4"/>
<path id="Vector_9" d="M75.4154 112.311C79.4056 112.296 83.0841 115.168 83.965 118.987C84.3107 120.489 83.7757 121.653 82.5831 121.991C81.3553 122.339 80.2221 121.609 79.9306 120.119C79.5394 118.12 78.2636 117.028 76.4211 116.608C74.6166 116.196 73.0253 116.757 71.7495 118.141C71.198 118.74 70.9961 119.487 70.7904 120.245C70.3967 121.691 69.4654 122.298 68.1757 121.976C67.0904 121.706 66.5024 120.661 66.7055 119.368C67.3352 115.383 71.1046 112.327 75.4141 112.31L75.4154 112.311Z" fill="#3F80A4"/>
<path id="Vector_10" d="M121.81 33.9986C121.861 47.782 110.386 59.4403 96.5452 59.3175C82.2008 59.1896 71.7697 47.6921 71.6789 33.9695C71.5931 21.122 81.8967 9.05712 96.7875 9.05078C111.787 9.04445 122.089 21.336 121.81 33.9986Z" fill="#3E80A4"/>
<path id="Vector_11" d="M112.408 20.0596C119.05 27.0374 119.588 38.6172 113.637 46.5473C106.468 56.101 92.9663 57.9866 83.7707 50.7188C74.6128 43.4801 72.9092 29.7588 80.4026 20.8511C87.6612 12.2219 100.106 10.4679 109.429 17.3571C109.654 17.8801 109.326 18.2157 109.018 18.55C108.656 18.9439 108.274 19.3187 107.891 19.6923C101.068 26.3586 94.6119 33.3908 87.8177 40.0875C87.4366 40.4636 87.0731 40.8574 86.8245 41.3399C86.4081 42.1504 86.7349 42.771 87.3495 43.2978C87.935 43.7993 88.5407 43.7765 89.1414 43.3092C89.3686 43.1319 89.5743 42.9305 89.7774 42.7266C93.697 38.7945 97.715 34.9561 101.503 30.8998C104.649 27.5313 107.963 24.3374 111.165 21.0284C111.528 20.6522 111.837 20.1824 112.406 20.0608L112.408 20.0596Z" fill="#C8EBF8"/>
<path id="Vector_12" d="M112.408 20.0596C111.155 21.359 109.912 22.6697 108.646 23.9576C102.368 30.3478 96.0883 36.7342 89.8014 43.1155C88.5508 44.3857 87.4176 44.3084 86.586 42.923C86.2251 42.3215 86.0926 41.706 86.6112 41.0981C86.8763 40.7879 87.0996 40.4422 87.3646 40.1319C87.5779 39.8824 87.8265 39.6633 88.0574 39.429C94.9488 32.431 101.838 25.4329 108.733 18.4387C109.046 18.1221 109.336 17.808 109.428 17.3572C110.592 18.0676 111.555 19.0035 112.406 20.0596H112.408Z" fill="#ECF8FC"/>
</g>
<defs>
<clipPath id="clip0_285_876">
<rect width="183" height="213" fill="white"/>
</clipPath>
</defs>
</svg>
